<svg width="84" height="54" viewBox="0 0 84 54" fill="none" xmlns="http://www.w3.org/2000/svg">
<rect y="11.0769" width="9.18264" height="9.18264" fill="white"/>
<rect x="11.7163" y="11.0769" width="9.18264" height="9.18264" fill="white"/>
<rect x="23.4326" y="11.0769" width="9.18264" height="9.18264" fill="white"/>
<rect x="11.7163" y="22.7933" width="9.18264" height="9.18264" fill="white"/>
<rect x="23.4326" y="22.7933" width="9.18264" height="9.18264" fill="white"/>
<rect x="23.4326" y="34.5096" width="9.18264" height="9.18264" fill="white"/>
<path d="M51.0771 10.7692H62.9574L67.5387 15.4282H51.0771V10.7692Z" fill="white"/>
<path d="M84 10.7692H72.1197L67.5385 15.4282H84V10.7692Z" fill="white"/>
<path d="M84 44.0029H72.1197L67.5385 39.3439H84V44.0029Z" fill="white"/>
<path d="M51.0771 44.0029H62.9574L67.5387 39.3439H51.0771V44.0029Z" fill="white"/>
<path d="M51.0771 10.9246L51.0771 22.8048L55.7361 27.3861L55.7361 10.9246L51.0771 10.9246Z" fill="white"/>
<path d="M84 10.9246L84 22.8048L79.3411 27.3861L79.3411 10.9246L84 10.9246Z" fill="white"/>
<path d="M84 43.8477L84 31.9674L79.3411 27.3861L79.3411 43.8477L84 43.8477Z" fill="white"/>
<path d="M51.0771 43.8477L51.0771 31.9674L55.7361 27.3861L55.7361 43.8477L51.0771 43.8477Z" fill="white"/>
<line x1="42.8462" y1="4.37114e-08" x2="42.8462" y2="53.5385" stroke="white" stroke-width="2"/>
</svg>
