<svg width="1243" height="515" viewBox="0 0 1243 515" fill="none" xmlns="http://www.w3.org/2000/svg">
<rect x="3" y="3" width="1237" height="509" fill="white" stroke="#41414A" stroke-width="6"/>
<rect x="3" y="3" width="214" height="214" fill="#F3E0D2" stroke="#41414A" stroke-width="6"/>
<rect x="214" y="3" width="106" height="214" fill="#FFF5ED" stroke="#41414A" stroke-width="6"/>
<rect x="320" y="3" width="305" height="214" fill="#FFE3CE" stroke="#41414A" stroke-width="6"/>
<rect x="543" y="3" width="82" height="163" fill="#FFE3CE" stroke="#41414A" stroke-width="6"/>
<rect x="625" y="3" width="89" height="214" fill="#F3E0D2" stroke="#41414A" stroke-width="6"/>
<rect x="1041" y="3" width="110" height="214" fill="#E2E1E6" stroke="#41414A" stroke-width="6"/>
<rect x="714" y="3" width="106" height="214" fill="#E2E1E6" stroke="#41414A" stroke-width="6"/>
<rect x="1151" y="3" width="89" height="214" fill="#FFEEE2" stroke="#41414A" stroke-width="6"/>
<rect x="820" y="3" width="222" height="214" fill="#E2E1E6" stroke="#41414A" stroke-width="6"/>
<rect x="969" y="25" width="73" height="47" fill="white" stroke="#41414A" stroke-width="6"/>
<rect x="969" y="139" width="73" height="47" fill="white" stroke="#41414A" stroke-width="6"/>
<rect x="959" y="72" width="83" height="66" fill="white" stroke="#41414A" stroke-width="6"/>
<rect x="214" y="172" width="67" height="45" fill="#FFF5ED" stroke="#41414A" stroke-width="6"/>
<rect x="3" y="172" width="67" height="45" fill="#F3E0D2" stroke="#41414A" stroke-width="6"/>
<rect x="3" y="327" width="214" height="185" fill="#F3E0D2" stroke="#41414A" stroke-width="6"/>
<rect x="3" y="218" width="317" height="109" fill="#FFF5ED" stroke="#41414A" stroke-width="6"/>
<rect x="216" y="294" width="214" height="218" fill="#F3E0D2" stroke="#41414A" stroke-width="6"/>
<rect x="430" y="294" width="195" height="218" fill="#F3E0D2" stroke="#41414A" stroke-width="6"/>
<rect x="625" y="294" width="195" height="218" fill="#F3E0D2" stroke="#41414A" stroke-width="6"/>
<rect x="820" y="294" width="420" height="218" fill="#FFEEE2" stroke="#41414A" stroke-width="6"/>
<rect x="1157" y="294" width="83" height="82" fill="#FFEEE1" stroke="#41414A" stroke-width="6"/>
<rect x="216" y="294" width="65" height="33" fill="#F3E0D2" stroke="#41414A" stroke-width="6"/>
<rect x="320" y="294" width="110" height="33" fill="#F3E0D2" stroke="#41414A" stroke-width="6"/>
<rect x="789.444" y="50" width="119" height="43.7778" rx="21.8889" transform="rotate(90 789.444 50)" fill="white" stroke="#595961" stroke-width="4"/>
<line x1="766.778" y1="75" x2="766.778" y2="155" stroke="#595961" stroke-width="4" stroke-linecap="round"/>
<line x1="717" y1="73" x2="817" y2="73" stroke="#41414A" stroke-width="4"/>
<line x1="717" y1="86" x2="817" y2="86" stroke="#41414A" stroke-width="4"/>
<line x1="717" y1="100" x2="817" y2="100" stroke="#41414A" stroke-width="4"/>
<line x1="717" y1="114" x2="817" y2="114" stroke="#41414A" stroke-width="4"/>
<line x1="717" y1="128" x2="817" y2="128" stroke="#41414A" stroke-width="4"/>
<line x1="717" y1="142" x2="817" y2="142" stroke="#41414A" stroke-width="4"/>
<line x1="717" y1="155" x2="817" y2="155" stroke="#41414A" stroke-width="4"/>
<path d="M746.444 75L742.114 84H750.775L746.444 75Z" fill="#41414A"/>
<path d="M788.667 153L792.997 144L784.337 144L788.667 153Z" fill="#41414A"/>
<rect x="1119.68" y="50" width="119" height="45.2111" rx="22.6056" transform="rotate(90 1119.68 50)" fill="white" stroke="#595961" stroke-width="4"/>
<line x1="1096.21" y1="75" x2="1096.21" y2="155" stroke="#595961" stroke-width="4" stroke-linecap="round"/>
<line x1="1045" y1="73" x2="1148" y2="73" stroke="#41414A" stroke-width="4"/>
<line x1="1045" y1="86" x2="1148" y2="86" stroke="#41414A" stroke-width="4"/>
<line x1="1045" y1="100" x2="1148" y2="100" stroke="#41414A" stroke-width="4"/>
<line x1="1045" y1="114" x2="1148" y2="114" stroke="#41414A" stroke-width="4"/>
<line x1="1045" y1="128" x2="1148" y2="128" stroke="#41414A" stroke-width="4"/>
<line x1="1045" y1="142" x2="1148" y2="142" stroke="#41414A" stroke-width="4"/>
<line x1="1045" y1="155" x2="1148" y2="155" stroke="#41414A" stroke-width="4"/>
<path d="M1075.33 75L1070.87 84H1079.79L1075.33 75Z" fill="#41414A"/>
<path d="M1118.82 153L1123.28 144L1114.36 144L1118.82 153Z" fill="#41414A"/>
<rect x="319" y="4" width="306" height="36" fill="#D0598F" stroke="#41414A" stroke-width="6"/>
<rect x="820" y="476" width="420" height="36" fill="#D0598F" stroke="#41414A" stroke-width="6"/>
<rect x="214" y="4" width="106" height="36" fill="#D0598F" stroke="#41414A" stroke-width="6"/>
<rect x="3" y="327" width="109" height="36" transform="rotate(-90 3 327)" fill="#D0598F" stroke="#41414A" stroke-width="6"/>
<rect x="1151" y="4" width="89" height="36" fill="#D0598F" stroke="#41414A" stroke-width="6"/>
<path d="M460.9 29.179C459.945 29.179 459.095 29.0149 458.349 28.6868C457.608 28.3544 457.022 27.8984 456.592 27.3189C456.165 26.7351 455.946 26.0618 455.933 25.299H458.72C458.737 25.6186 458.842 25.8999 459.033 26.1428C459.229 26.3814 459.489 26.5668 459.813 26.6989C460.137 26.831 460.501 26.897 460.906 26.897C461.328 26.897 461.701 26.8224 462.025 26.6733C462.349 26.5241 462.602 26.3175 462.786 26.0533C462.969 25.7891 463.06 25.4844 463.06 25.1392C463.06 24.7898 462.962 24.4808 462.766 24.2124C462.575 23.9396 462.298 23.7266 461.935 23.5732C461.577 23.4197 461.151 23.343 460.657 23.343H459.436V21.3104H460.657C461.075 21.3104 461.443 21.2379 461.763 21.093C462.087 20.9482 462.338 20.7479 462.517 20.4922C462.696 20.2322 462.786 19.9297 462.786 19.5845C462.786 19.2564 462.707 18.9688 462.549 18.7216C462.396 18.4702 462.178 18.2741 461.897 18.1335C461.62 17.9929 461.296 17.9226 460.925 17.9226C460.55 17.9226 460.207 17.9908 459.896 18.1271C459.585 18.2592 459.336 18.4489 459.148 18.696C458.961 18.9432 458.861 19.233 458.848 19.5653H456.195C456.208 18.8111 456.423 18.1463 456.841 17.571C457.259 16.9957 457.821 16.5462 458.528 16.2223C459.24 15.8942 460.043 15.7301 460.938 15.7301C461.842 15.7301 462.632 15.8942 463.31 16.2223C463.987 16.5504 464.513 16.9936 464.888 17.5518C465.268 18.1058 465.455 18.728 465.451 19.4183C465.455 20.1513 465.227 20.7628 464.767 21.2528C464.311 21.7429 463.717 22.054 462.984 22.1861V22.2884C463.947 22.4119 464.68 22.7464 465.183 23.2919C465.69 23.8331 465.941 24.5107 465.937 25.3246C465.941 26.0703 465.726 26.733 465.291 27.3125C464.861 27.892 464.266 28.348 463.508 28.6804C462.749 29.0128 461.88 29.179 460.9 29.179ZM473.059 29.2876C471.96 29.2834 471.014 29.0128 470.221 28.4759C469.433 27.9389 468.825 27.1612 468.399 26.1428C467.977 25.1243 467.769 23.8991 467.773 22.4673C467.773 21.0398 467.984 19.8232 468.406 18.8175C468.832 17.8118 469.439 17.0469 470.227 16.5227C471.02 15.9943 471.964 15.7301 473.059 15.7301C474.154 15.7301 475.096 15.9943 475.884 16.5227C476.677 17.0511 477.286 17.8182 477.713 18.8239C478.139 19.8253 478.35 21.0398 478.345 22.4673C478.345 23.9034 478.132 25.1307 477.706 26.1491C477.284 27.1676 476.679 27.9453 475.891 28.4822C475.102 29.0192 474.159 29.2876 473.059 29.2876ZM473.059 26.9929C473.809 26.9929 474.408 26.6158 474.855 25.8615C475.303 25.1072 475.524 23.9759 475.52 22.4673C475.52 21.4744 475.418 20.6477 475.213 19.9872C475.013 19.3267 474.727 18.8303 474.357 18.4979C473.99 18.1655 473.558 17.9993 473.059 17.9993C472.313 17.9993 471.717 18.3722 471.269 19.1179C470.822 19.8636 470.596 20.9801 470.592 22.4673C470.592 23.473 470.692 24.3125 470.892 24.9858C471.097 25.6548 471.384 26.1577 471.755 26.4943C472.126 26.8267 472.561 26.9929 473.059 26.9929ZM485.055 15.7301C485.729 15.7301 486.376 15.843 486.999 16.0689C487.625 16.2947 488.183 16.6548 488.673 17.1491C489.168 17.6435 489.558 18.2997 489.843 19.1179C490.133 19.9318 490.28 20.9311 490.284 22.1158C490.284 23.228 490.158 24.2209 489.907 25.0945C489.66 25.9638 489.304 26.7031 488.839 27.3125C488.375 27.9219 487.815 28.3864 487.158 28.706C486.502 29.0213 485.769 29.179 484.96 29.179C484.086 29.179 483.315 29.0107 482.646 28.674C481.977 28.3331 481.438 27.8707 481.028 27.2869C480.624 26.6989 480.379 26.0384 480.293 25.3054H483.023C483.129 25.7827 483.353 26.1534 483.694 26.4176C484.035 26.6776 484.457 26.8075 484.96 26.8075C485.812 26.8075 486.46 26.4368 486.903 25.6953C487.346 24.9496 487.57 23.929 487.574 22.6335H487.484C487.288 23.017 487.024 23.3473 486.692 23.6243C486.359 23.897 485.978 24.108 485.548 24.2571C485.121 24.4062 484.668 24.4808 484.186 24.4808C483.415 24.4808 482.727 24.2997 482.121 23.9375C481.516 23.5753 481.039 23.0767 480.69 22.4418C480.34 21.8068 480.165 21.0824 480.165 20.2685C480.161 19.3906 480.364 18.6087 480.773 17.9226C481.182 17.2365 481.753 16.6996 482.486 16.3118C483.223 15.9197 484.08 15.7259 485.055 15.7301ZM485.075 17.9034C484.644 17.9034 484.261 18.0057 483.924 18.2102C483.592 18.4148 483.327 18.6896 483.131 19.0348C482.94 19.38 482.846 19.7656 482.85 20.1918C482.85 20.6222 482.944 21.0099 483.131 21.3551C483.323 21.696 483.583 21.9687 483.911 22.1733C484.244 22.3736 484.623 22.4737 485.049 22.4737C485.369 22.4737 485.665 22.4141 485.938 22.2947C486.21 22.1754 486.447 22.0114 486.647 21.8026C486.852 21.5895 487.011 21.3445 487.126 21.0675C487.241 20.7905 487.299 20.4964 487.299 20.1854C487.295 19.772 487.197 19.3928 487.005 19.0476C486.813 18.7024 486.549 18.4254 486.212 18.2166C485.876 18.0078 485.496 17.9034 485.075 17.9034Z" fill="white"/>
<path d="M1020.9 501.179C1019.95 501.179 1019.1 501.015 1018.35 500.687C1017.61 500.354 1017.02 499.898 1016.59 499.319C1016.17 498.735 1015.95 498.062 1015.93 497.299H1018.72C1018.74 497.619 1018.84 497.9 1019.03 498.143C1019.23 498.381 1019.49 498.567 1019.81 498.699C1020.14 498.831 1020.5 498.897 1020.91 498.897C1021.33 498.897 1021.7 498.822 1022.02 498.673C1022.35 498.524 1022.6 498.317 1022.79 498.053C1022.97 497.789 1023.06 497.484 1023.06 497.139C1023.06 496.79 1022.96 496.481 1022.77 496.212C1022.57 495.94 1022.3 495.727 1021.94 495.573C1021.58 495.42 1021.15 495.343 1020.66 495.343H1019.44V493.31H1020.66C1021.07 493.31 1021.44 493.238 1021.76 493.093C1022.09 492.948 1022.34 492.748 1022.52 492.492C1022.7 492.232 1022.79 491.93 1022.79 491.585C1022.79 491.256 1022.71 490.969 1022.55 490.722C1022.4 490.47 1022.18 490.274 1021.9 490.134C1021.62 489.993 1021.3 489.923 1020.93 489.923C1020.55 489.923 1020.21 489.991 1019.9 490.127C1019.59 490.259 1019.34 490.449 1019.15 490.696C1018.96 490.943 1018.86 491.233 1018.85 491.565H1016.2C1016.21 490.811 1016.42 490.146 1016.84 489.571C1017.26 488.996 1017.82 488.546 1018.53 488.222C1019.24 487.894 1020.04 487.73 1020.94 487.73C1021.84 487.73 1022.63 487.894 1023.31 488.222C1023.99 488.55 1024.51 488.994 1024.89 489.552C1025.27 490.106 1025.46 490.728 1025.45 491.418C1025.46 492.151 1025.23 492.763 1024.77 493.253C1024.31 493.743 1023.72 494.054 1022.98 494.186V494.288C1023.95 494.412 1024.68 494.746 1025.18 495.292C1025.69 495.833 1025.94 496.511 1025.94 497.325C1025.94 498.07 1025.73 498.733 1025.29 499.312C1024.86 499.892 1024.27 500.348 1023.51 500.68C1022.75 501.013 1021.88 501.179 1020.9 501.179ZM1033.06 501.288C1031.96 501.283 1031.01 501.013 1030.22 500.476C1029.43 499.939 1028.83 499.161 1028.4 498.143C1027.98 497.124 1027.77 495.899 1027.77 494.467C1027.77 493.04 1027.98 491.823 1028.41 490.817C1028.83 489.812 1029.44 489.047 1030.23 488.523C1031.02 487.994 1031.96 487.73 1033.06 487.73C1034.15 487.73 1035.1 487.994 1035.88 488.523C1036.68 489.051 1037.29 489.818 1037.71 490.824C1038.14 491.825 1038.35 493.04 1038.35 494.467C1038.35 495.903 1038.13 497.131 1037.71 498.149C1037.28 499.168 1036.68 499.945 1035.89 500.482C1035.1 501.019 1034.16 501.288 1033.06 501.288ZM1033.06 498.993C1033.81 498.993 1034.41 498.616 1034.86 497.862C1035.3 497.107 1035.52 495.976 1035.52 494.467C1035.52 493.474 1035.42 492.648 1035.21 491.987C1035.01 491.327 1034.73 490.83 1034.36 490.498C1033.99 490.165 1033.56 489.999 1033.06 489.999C1032.31 489.999 1031.72 490.372 1031.27 491.118C1030.82 491.864 1030.6 492.98 1030.59 494.467C1030.59 495.473 1030.69 496.312 1030.89 496.986C1031.1 497.655 1031.38 498.158 1031.76 498.494C1032.13 498.827 1032.56 498.993 1033.06 498.993ZM1045.34 501.179C1044.67 501.175 1044.02 501.062 1043.39 500.84C1042.77 500.619 1042.21 500.259 1041.72 499.76C1041.22 499.261 1040.83 498.601 1040.54 497.778C1040.26 496.956 1040.11 495.946 1040.11 494.749C1040.12 493.649 1040.24 492.667 1040.49 491.802C1040.74 490.933 1041.1 490.195 1041.57 489.59C1042.03 488.985 1042.59 488.525 1043.25 488.21C1043.9 487.89 1044.63 487.73 1045.44 487.73C1046.31 487.73 1047.08 487.901 1047.75 488.241C1048.42 488.578 1048.96 489.036 1049.36 489.616C1049.77 490.195 1050.02 490.845 1050.11 491.565H1047.38C1047.27 491.109 1047.05 490.751 1046.7 490.491C1046.36 490.232 1045.94 490.102 1045.44 490.102C1044.59 490.102 1043.94 490.472 1043.5 491.214C1043.06 491.955 1042.83 492.963 1042.82 494.237H1042.91C1043.11 493.849 1043.37 493.519 1043.71 493.246C1044.04 492.969 1044.42 492.759 1044.85 492.614C1045.28 492.464 1045.74 492.39 1046.21 492.39C1046.99 492.39 1047.68 492.573 1048.28 492.94C1048.89 493.302 1049.37 493.8 1049.72 494.435C1050.06 495.07 1050.24 495.797 1050.24 496.615C1050.24 497.501 1050.03 498.29 1049.62 498.98C1049.21 499.67 1048.64 500.212 1047.9 500.604C1047.17 500.991 1046.31 501.183 1045.34 501.179ZM1045.33 499.006C1045.76 499.006 1046.14 498.903 1046.47 498.699C1046.81 498.494 1047.08 498.217 1047.27 497.868C1047.46 497.518 1047.55 497.126 1047.55 496.692C1047.55 496.257 1047.46 495.867 1047.27 495.522C1047.08 495.177 1046.82 494.902 1046.49 494.697C1046.15 494.493 1045.78 494.391 1045.35 494.391C1045.03 494.391 1044.73 494.45 1044.46 494.57C1044.19 494.689 1043.96 494.855 1043.75 495.068C1043.55 495.281 1043.39 495.528 1043.28 495.81C1043.16 496.087 1043.11 496.383 1043.11 496.698C1043.11 497.12 1043.2 497.506 1043.39 497.855C1043.59 498.205 1043.85 498.484 1044.19 498.692C1044.52 498.901 1044.9 499.006 1045.33 499.006Z" fill="white"/>
<path d="M254.9 29.179C253.945 29.179 253.095 29.0149 252.349 28.6868C251.608 28.3544 251.022 27.8984 250.592 27.3189C250.165 26.7351 249.946 26.0618 249.933 25.299H252.72C252.737 25.6186 252.842 25.8999 253.033 26.1428C253.229 26.3814 253.489 26.5668 253.813 26.6989C254.137 26.831 254.501 26.897 254.906 26.897C255.328 26.897 255.701 26.8224 256.025 26.6733C256.349 26.5241 256.602 26.3175 256.786 26.0533C256.969 25.7891 257.06 25.4844 257.06 25.1392C257.06 24.7898 256.962 24.4808 256.766 24.2124C256.575 23.9396 256.298 23.7266 255.935 23.5732C255.577 23.4197 255.151 23.343 254.657 23.343H253.436V21.3104H254.657C255.075 21.3104 255.443 21.2379 255.763 21.093C256.087 20.9482 256.338 20.7479 256.517 20.4922C256.696 20.2322 256.786 19.9297 256.786 19.5845C256.786 19.2564 256.707 18.9688 256.549 18.7216C256.396 18.4702 256.178 18.2741 255.897 18.1335C255.62 17.9929 255.296 17.9226 254.925 17.9226C254.55 17.9226 254.207 17.9908 253.896 18.1271C253.585 18.2592 253.336 18.4489 253.148 18.696C252.961 18.9432 252.861 19.233 252.848 19.5653H250.195C250.208 18.8111 250.423 18.1463 250.841 17.571C251.259 16.9957 251.821 16.5462 252.528 16.2223C253.24 15.8942 254.043 15.7301 254.938 15.7301C255.842 15.7301 256.632 15.8942 257.31 16.2223C257.987 16.5504 258.513 16.9936 258.888 17.5518C259.268 18.1058 259.455 18.728 259.451 19.4183C259.455 20.1513 259.227 20.7628 258.767 21.2528C258.311 21.7429 257.717 22.054 256.984 22.1861V22.2884C257.947 22.4119 258.68 22.7464 259.183 23.2919C259.69 23.8331 259.941 24.5107 259.937 25.3246C259.941 26.0703 259.726 26.733 259.291 27.3125C258.861 27.892 258.266 28.348 257.508 28.6804C256.749 29.0128 255.88 29.179 254.9 29.179ZM267.059 29.2876C265.96 29.2834 265.014 29.0128 264.221 28.4759C263.433 27.9389 262.825 27.1612 262.399 26.1428C261.977 25.1243 261.769 23.8991 261.773 22.4673C261.773 21.0398 261.984 19.8232 262.406 18.8175C262.832 17.8118 263.439 17.0469 264.227 16.5227C265.02 15.9943 265.964 15.7301 267.059 15.7301C268.154 15.7301 269.096 15.9943 269.884 16.5227C270.677 17.0511 271.286 17.8182 271.713 18.8239C272.139 19.8253 272.35 21.0398 272.345 22.4673C272.345 23.9034 272.132 25.1307 271.706 26.1491C271.284 27.1676 270.679 27.9453 269.891 28.4822C269.102 29.0192 268.159 29.2876 267.059 29.2876ZM267.059 26.9929C267.809 26.9929 268.408 26.6158 268.855 25.8615C269.303 25.1072 269.524 23.9759 269.52 22.4673C269.52 21.4744 269.418 20.6477 269.213 19.9872C269.013 19.3267 268.727 18.8303 268.357 18.4979C267.99 18.1655 267.558 17.9993 267.059 17.9993C266.313 17.9993 265.717 18.3722 265.269 19.1179C264.822 19.8636 264.596 20.9801 264.592 22.4673C264.592 23.473 264.692 24.3125 264.892 24.9858C265.097 25.6548 265.384 26.1577 265.755 26.4943C266.126 26.8267 266.561 26.9929 267.059 26.9929ZM279.202 29.179C278.218 29.179 277.342 29.0192 276.575 28.6996C275.813 28.3757 275.214 27.9347 274.779 27.3764C274.344 26.8182 274.127 26.1854 274.127 25.478C274.127 24.9325 274.251 24.4318 274.498 23.9759C274.749 23.5156 275.09 23.1342 275.521 22.8317C275.951 22.5249 276.433 22.3288 276.965 22.2436V22.1541C276.266 22.0135 275.7 21.6747 275.265 21.1378C274.83 20.5966 274.613 19.968 274.613 19.2521C274.613 18.5746 274.811 17.9716 275.207 17.4432C275.604 16.9105 276.147 16.4929 276.837 16.1903C277.532 15.8835 278.32 15.7301 279.202 15.7301C280.085 15.7301 280.871 15.8835 281.561 16.1903C282.256 16.4972 282.801 16.9169 283.197 17.4496C283.594 17.978 283.794 18.5788 283.798 19.2521C283.794 19.9723 283.572 20.6009 283.134 21.1378C282.695 21.6747 282.132 22.0135 281.446 22.1541V22.2436C281.97 22.3288 282.445 22.5249 282.871 22.8317C283.302 23.1342 283.643 23.5156 283.894 23.9759C284.15 24.4318 284.28 24.9325 284.284 25.478C284.28 26.1854 284.06 26.8182 283.626 27.3764C283.191 27.9347 282.59 28.3757 281.823 28.6996C281.06 29.0192 280.187 29.179 279.202 29.179ZM279.202 27.1463C279.641 27.1463 280.025 27.0675 280.353 26.9098C280.681 26.7479 280.937 26.5263 281.12 26.245C281.308 25.9595 281.401 25.6314 281.401 25.2607C281.401 24.8814 281.305 24.5469 281.114 24.2571C280.922 23.9631 280.662 23.733 280.334 23.5668C280.006 23.3963 279.629 23.3111 279.202 23.3111C278.781 23.3111 278.403 23.3963 278.071 23.5668C277.739 23.733 277.477 23.9631 277.285 24.2571C277.097 24.5469 277.004 24.8814 277.004 25.2607C277.004 25.6314 277.095 25.9595 277.278 26.245C277.462 26.5263 277.719 26.7479 278.052 26.9098C278.384 27.0675 278.768 27.1463 279.202 27.1463ZM279.202 21.2976C279.569 21.2976 279.895 21.223 280.18 21.0739C280.466 20.9247 280.69 20.718 280.852 20.4538C281.013 20.1896 281.094 19.8849 281.094 19.5398C281.094 19.1989 281.013 18.9006 280.852 18.6449C280.69 18.3849 280.468 18.1825 280.187 18.0376C279.906 17.8885 279.577 17.8139 279.202 17.8139C278.832 17.8139 278.504 17.8885 278.218 18.0376C277.933 18.1825 277.709 18.3849 277.547 18.6449C277.389 18.9006 277.31 19.1989 277.31 19.5398C277.31 19.8849 277.391 20.1896 277.553 20.4538C277.715 20.718 277.939 20.9247 278.224 21.0739C278.51 21.223 278.836 21.2976 279.202 21.2976Z" fill="white"/>
<path d="M28.179 283.1C28.179 284.055 28.0149 284.905 27.6868 285.651C27.3544 286.392 26.8984 286.978 26.3189 287.408C25.7351 287.835 25.0618 288.054 24.299 288.067V285.28C24.6186 285.263 24.8999 285.158 25.1428 284.967C25.3814 284.771 25.5668 284.511 25.6989 284.187C25.831 283.863 25.897 283.499 25.897 283.094C25.897 282.672 25.8224 282.299 25.6733 281.975C25.5241 281.651 25.3175 281.398 25.0533 281.214C24.7891 281.031 24.4844 280.94 24.1392 280.94C23.7898 280.94 23.4808 281.038 23.2124 281.234C22.9396 281.425 22.7266 281.702 22.5732 282.065C22.4197 282.423 22.343 282.849 22.343 283.343V284.564H20.3104V283.343C20.3104 282.925 20.2379 282.557 20.093 282.237C19.9482 281.913 19.7479 281.662 19.4922 281.483C19.2322 281.304 18.9297 281.214 18.5845 281.214C18.2564 281.214 17.9688 281.293 17.7216 281.451C17.4702 281.604 17.2741 281.822 17.1335 282.103C16.9929 282.38 16.9226 282.704 16.9226 283.075C16.9226 283.45 16.9908 283.793 17.1271 284.104C17.2592 284.415 17.4489 284.664 17.696 284.852C17.9432 285.039 18.233 285.139 18.5653 285.152V287.805C17.8111 287.792 17.1463 287.577 16.571 287.159C15.9957 286.741 15.5462 286.179 15.2223 285.472C14.8942 284.76 14.7301 283.957 14.7301 283.062C14.7301 282.158 14.8942 281.368 15.2223 280.69C15.5504 280.013 15.9936 279.487 16.5518 279.112C17.1058 278.732 17.728 278.545 18.4183 278.549C19.1513 278.545 19.7628 278.773 20.2528 279.233C20.7429 279.689 21.054 280.283 21.1861 281.016H21.2884C21.4119 280.053 21.7464 279.32 22.2919 278.817C22.8331 278.31 23.5107 278.059 24.3246 278.063C25.0703 278.059 25.733 278.274 26.3125 278.709C26.892 279.139 27.348 279.734 27.6804 280.492C28.0128 281.251 28.179 282.12 28.179 283.1ZM28.2876 270.941C28.2834 272.04 28.0128 272.986 27.4759 273.779C26.9389 274.567 26.1612 275.175 25.1428 275.601C24.1243 276.023 22.8991 276.231 21.4673 276.227C20.0398 276.227 18.8232 276.016 17.8175 275.594C16.8118 275.168 16.0469 274.561 15.5227 273.773C14.9943 272.98 14.7301 272.036 14.7301 270.941C14.7301 269.846 14.9943 268.904 15.5227 268.116C16.0511 267.323 16.8182 266.714 17.8239 266.287C18.8253 265.861 20.0398 265.65 21.4673 265.655C22.9034 265.655 24.1307 265.868 25.1491 266.294C26.1676 266.716 26.9453 267.321 27.4822 268.109C28.0192 268.898 28.2876 269.841 28.2876 270.941ZM25.9929 270.941C25.9929 270.191 25.6158 269.592 24.8615 269.145C24.1072 268.697 22.9759 268.476 21.4673 268.48C20.4744 268.48 19.6477 268.582 18.9872 268.787C18.3267 268.987 17.8303 269.273 17.4979 269.643C17.1655 270.01 16.9993 270.442 16.9993 270.941C16.9993 271.687 17.3722 272.283 18.1179 272.731C18.8636 273.178 19.9801 273.404 21.4673 273.408C22.473 273.408 23.3125 273.308 23.9858 273.108C24.6548 272.903 25.1577 272.616 25.4943 272.245C25.8267 271.874 25.9929 271.439 25.9929 270.941ZM28.179 258.798C28.179 259.782 28.0192 260.658 27.6996 261.425C27.3757 262.187 26.9347 262.786 26.3764 263.221C25.8182 263.656 25.1854 263.873 24.478 263.873C23.9325 263.873 23.4318 263.749 22.9759 263.502C22.5156 263.251 22.1342 262.91 21.8317 262.479C21.5249 262.049 21.3288 261.567 21.2436 261.035H21.1541C21.0135 261.734 20.6747 262.3 20.1378 262.735C19.5966 263.17 18.968 263.387 18.2521 263.387C17.5746 263.387 16.9716 263.189 16.4432 262.793C15.9105 262.396 15.4929 261.853 15.1903 261.163C14.8835 260.468 14.7301 259.68 14.7301 258.798C14.7301 257.915 14.8835 257.129 15.1903 256.439C15.4972 255.744 15.9169 255.199 16.4496 254.803C16.978 254.406 17.5788 254.206 18.2521 254.202C18.9723 254.206 19.6009 254.428 20.1378 254.866C20.6747 255.305 21.0135 255.868 21.1541 256.554H21.2436C21.3288 256.03 21.5249 255.555 21.8317 255.129C22.1342 254.698 22.5156 254.357 22.9759 254.106C23.4318 253.85 23.9325 253.72 24.478 253.716C25.1854 253.72 25.8182 253.94 26.3764 254.374C26.9347 254.809 27.3757 255.41 27.6996 256.177C28.0192 256.94 28.179 257.813 28.179 258.798ZM26.1463 258.798C26.1463 258.359 26.0675 257.975 25.9098 257.647C25.7479 257.319 25.5263 257.063 25.245 256.88C24.9595 256.692 24.6314 256.599 24.2607 256.599C23.8814 256.599 23.5469 256.695 23.2571 256.886C22.9631 257.078 22.733 257.338 22.5668 257.666C22.3963 257.994 22.3111 258.371 22.3111 258.798C22.3111 259.219 22.3963 259.597 22.5668 259.929C22.733 260.261 22.9631 260.523 23.2571 260.715C23.5469 260.903 23.8814 260.996 24.2607 260.996C24.6314 260.996 24.9595 260.905 25.245 260.722C25.5263 260.538 25.7479 260.281 25.9098 259.948C26.0675 259.616 26.1463 259.232 26.1463 258.798ZM20.2976 258.798C20.2976 258.431 20.223 258.105 20.0739 257.82C19.9247 257.534 19.718 257.31 19.4538 257.148C19.1896 256.987 18.8849 256.906 18.5398 256.906C18.1989 256.906 17.9006 256.987 17.6449 257.148C17.3849 257.31 17.1825 257.532 17.0376 257.813C16.8885 258.094 16.8139 258.423 16.8139 258.798C16.8139 259.168 16.8885 259.496 17.0376 259.782C17.1825 260.067 17.3849 260.291 17.6449 260.453C17.9006 260.611 18.1989 260.69 18.5398 260.69C18.8849 260.69 19.1896 260.609 19.4538 260.447C19.718 260.285 19.9247 260.061 20.0739 259.776C20.223 259.49 20.2976 259.164 20.2976 258.798Z" fill="white"/>
<path d="M1181.9 29.179C1180.95 29.179 1180.1 29.0149 1179.35 28.6868C1178.61 28.3544 1178.02 27.8984 1177.59 27.3189C1177.17 26.7351 1176.95 26.0618 1176.93 25.299H1179.72C1179.74 25.6186 1179.84 25.8999 1180.03 26.1428C1180.23 26.3814 1180.49 26.5668 1180.81 26.6989C1181.14 26.831 1181.5 26.897 1181.91 26.897C1182.33 26.897 1182.7 26.8224 1183.02 26.6733C1183.35 26.5241 1183.6 26.3175 1183.79 26.0533C1183.97 25.7891 1184.06 25.4844 1184.06 25.1392C1184.06 24.7898 1183.96 24.4808 1183.77 24.2124C1183.57 23.9396 1183.3 23.7266 1182.94 23.5732C1182.58 23.4197 1182.15 23.343 1181.66 23.343H1180.44V21.3104H1181.66C1182.07 21.3104 1182.44 21.2379 1182.76 21.093C1183.09 20.9482 1183.34 20.7479 1183.52 20.4922C1183.7 20.2322 1183.79 19.9297 1183.79 19.5845C1183.79 19.2564 1183.71 18.9688 1183.55 18.7216C1183.4 18.4702 1183.18 18.2741 1182.9 18.1335C1182.62 17.9929 1182.3 17.9226 1181.93 17.9226C1181.55 17.9226 1181.21 17.9908 1180.9 18.1271C1180.59 18.2592 1180.34 18.4489 1180.15 18.696C1179.96 18.9432 1179.86 19.233 1179.85 19.5653H1177.2C1177.21 18.8111 1177.42 18.1463 1177.84 17.571C1178.26 16.9957 1178.82 16.5462 1179.53 16.2223C1180.24 15.8942 1181.04 15.7301 1181.94 15.7301C1182.84 15.7301 1183.63 15.8942 1184.31 16.2223C1184.99 16.5504 1185.51 16.9936 1185.89 17.5518C1186.27 18.1058 1186.46 18.728 1186.45 19.4183C1186.46 20.1513 1186.23 20.7628 1185.77 21.2528C1185.31 21.7429 1184.72 22.054 1183.98 22.1861V22.2884C1184.95 22.4119 1185.68 22.7464 1186.18 23.2919C1186.69 23.8331 1186.94 24.5107 1186.94 25.3246C1186.94 26.0703 1186.73 26.733 1186.29 27.3125C1185.86 27.892 1185.27 28.348 1184.51 28.6804C1183.75 29.0128 1182.88 29.179 1181.9 29.179ZM1194.06 29.2876C1192.96 29.2834 1192.01 29.0128 1191.22 28.4759C1190.43 27.9389 1189.83 27.1612 1189.4 26.1428C1188.98 25.1243 1188.77 23.8991 1188.77 22.4673C1188.77 21.0398 1188.98 19.8232 1189.41 18.8175C1189.83 17.8118 1190.44 17.0469 1191.23 16.5227C1192.02 15.9943 1192.96 15.7301 1194.06 15.7301C1195.15 15.7301 1196.1 15.9943 1196.88 16.5227C1197.68 17.0511 1198.29 17.8182 1198.71 18.8239C1199.14 19.8253 1199.35 21.0398 1199.35 22.4673C1199.35 23.9034 1199.13 25.1307 1198.71 26.1491C1198.28 27.1676 1197.68 27.9453 1196.89 28.4822C1196.1 29.0192 1195.16 29.2876 1194.06 29.2876ZM1194.06 26.9929C1194.81 26.9929 1195.41 26.6158 1195.86 25.8615C1196.3 25.1072 1196.52 23.9759 1196.52 22.4673C1196.52 21.4744 1196.42 20.6477 1196.21 19.9872C1196.01 19.3267 1195.73 18.8303 1195.36 18.4979C1194.99 18.1655 1194.56 17.9993 1194.06 17.9993C1193.31 17.9993 1192.72 18.3722 1192.27 19.1179C1191.82 19.8636 1191.6 20.9801 1191.59 22.4673C1191.59 23.473 1191.69 24.3125 1191.89 24.9858C1192.1 25.6548 1192.38 26.1577 1192.76 26.4943C1193.13 26.8267 1193.56 26.9929 1194.06 26.9929ZM1206.16 29.179C1205.2 29.179 1204.35 29.0149 1203.61 28.6868C1202.87 28.3544 1202.28 27.8984 1201.85 27.3189C1201.42 26.7351 1201.2 26.0618 1201.19 25.299H1203.98C1204 25.6186 1204.1 25.8999 1204.29 26.1428C1204.49 26.3814 1204.75 26.5668 1205.07 26.6989C1205.39 26.831 1205.76 26.897 1206.16 26.897C1206.59 26.897 1206.96 26.8224 1207.28 26.6733C1207.61 26.5241 1207.86 26.3175 1208.04 26.0533C1208.23 25.7891 1208.32 25.4844 1208.32 25.1392C1208.32 24.7898 1208.22 24.4808 1208.02 24.2124C1207.83 23.9396 1207.56 23.7266 1207.19 23.5732C1206.84 23.4197 1206.41 23.343 1205.91 23.343H1204.69V21.3104H1205.91C1206.33 21.3104 1206.7 21.2379 1207.02 21.093C1207.34 20.9482 1207.6 20.7479 1207.77 20.4922C1207.95 20.2322 1208.04 19.9297 1208.04 19.5845C1208.04 19.2564 1207.96 18.9688 1207.81 18.7216C1207.65 18.4702 1207.44 18.2741 1207.15 18.1335C1206.88 17.9929 1206.55 17.9226 1206.18 17.9226C1205.81 17.9226 1205.47 17.9908 1205.15 18.1271C1204.84 18.2592 1204.59 18.4489 1204.41 18.696C1204.22 18.9432 1204.12 19.233 1204.11 19.5653H1201.45C1201.47 18.8111 1201.68 18.1463 1202.1 17.571C1202.52 16.9957 1203.08 16.5462 1203.79 16.2223C1204.5 15.8942 1205.3 15.7301 1206.2 15.7301C1207.1 15.7301 1207.89 15.8942 1208.57 16.2223C1209.25 16.5504 1209.77 16.9936 1210.15 17.5518C1210.53 18.1058 1210.71 18.728 1210.71 19.4183C1210.71 20.1513 1210.49 20.7628 1210.02 21.2528C1209.57 21.7429 1208.97 22.054 1208.24 22.1861V22.2884C1209.2 22.4119 1209.94 22.7464 1210.44 23.2919C1210.95 23.8331 1211.2 24.5107 1211.19 25.3246C1211.2 26.0703 1210.98 26.733 1210.55 27.3125C1210.12 27.892 1209.52 28.348 1208.77 28.6804C1208.01 29.0128 1207.14 29.179 1206.16 29.179Z" fill="white"/>
</svg>
