<svg width="1243" height="515" viewBox="0 0 1243 515" fill="none" xmlns="http://www.w3.org/2000/svg">
<rect x="3" y="3" width="1237" height="509" fill="white" stroke="#41414A" stroke-width="6"/>
<rect x="3" y="3" width="268" height="216" fill="#FFF5ED" stroke="#41414A" stroke-width="6"/>
<rect x="272" y="3" width="324" height="216" fill="#FFEEE1" stroke="#41414A" stroke-width="6"/>
<rect x="597" y="3" width="100" height="216" fill="#FFEEE1" stroke="#41414A" stroke-width="6"/>
<rect x="697" y="3" width="117" height="216" fill="#E2E1E6" stroke="#41414A" stroke-width="6"/>
<rect x="1012" y="3" width="116" height="216" fill="#E2E1E6" stroke="#41414A" stroke-width="6"/>
<rect x="1128" y="3" width="112" height="216" fill="#FFEEE1" stroke="#41414A" stroke-width="6"/>
<rect x="814" y="3" width="198" height="216" fill="#E2E1E6" stroke="#41414A" stroke-width="6"/>
<rect x="507" y="3" width="89" height="166" fill="#FFEEE1" stroke="#41414A" stroke-width="6"/>
<rect x="3" y="338" width="174" height="174" fill="#FFF5ED" stroke="#41414A" stroke-width="6"/>
<rect x="176" y="293" width="220" height="219" fill="#FFF5ED" stroke="#41414A" stroke-width="6"/>
<rect x="394" y="293" width="202" height="219" fill="#FFEEE1" stroke="#41414A" stroke-width="6"/>
<rect x="597" y="293" width="211" height="219" fill="#FFEEE1" stroke="#41414A" stroke-width="6"/>
<rect x="808" y="293" width="432" height="219" fill="#FFEEE1" stroke="#41414A" stroke-width="6"/>
<rect x="1161" y="293" width="79" height="79" fill="#FFEEE1" stroke="#41414A" stroke-width="6"/>
<rect x="3" y="219" width="268" height="119" fill="#FFF5ED" stroke="#41414A" stroke-width="6"/>
<rect x="780.633" y="51" width="119" height="49.0333" rx="24.5167" transform="rotate(90 780.633 51)" fill="white" stroke="#595961" stroke-width="4"/>
<line x1="755.033" y1="76" x2="755.033" y2="156" stroke="#595961" stroke-width="4" stroke-linecap="round"/>
<line x1="700" y1="74" x2="811" y2="74" stroke="#41414A" stroke-width="4"/>
<line x1="700" y1="87" x2="811" y2="87" stroke="#41414A" stroke-width="4"/>
<line x1="700" y1="101" x2="811" y2="101" stroke="#41414A" stroke-width="4"/>
<line x1="700" y1="115" x2="811" y2="115" stroke="#41414A" stroke-width="4"/>
<line x1="700" y1="129" x2="811" y2="129" stroke="#41414A" stroke-width="4"/>
<line x1="700" y1="143" x2="811" y2="143" stroke="#41414A" stroke-width="4"/>
<line x1="700" y1="156" x2="811" y2="156" stroke="#41414A" stroke-width="4"/>
<path d="M732.683 76L727.877 85H737.49L732.683 76Z" fill="#41414A"/>
<path d="M779.55 154L784.356 145L774.744 145L779.55 154Z" fill="#41414A"/>
<rect x="1095.63" y="51" width="119" height="49.0333" rx="24.5167" transform="rotate(90 1095.63 51)" fill="white" stroke="#595961" stroke-width="4"/>
<line x1="1070.03" y1="76" x2="1070.03" y2="156" stroke="#595961" stroke-width="4" stroke-linecap="round"/>
<line x1="1015" y1="74" x2="1126" y2="74" stroke="#41414A" stroke-width="4"/>
<line x1="1015" y1="87" x2="1126" y2="87" stroke="#41414A" stroke-width="4"/>
<line x1="1015" y1="101" x2="1126" y2="101" stroke="#41414A" stroke-width="4"/>
<line x1="1015" y1="115" x2="1126" y2="115" stroke="#41414A" stroke-width="4"/>
<line x1="1015" y1="129" x2="1126" y2="129" stroke="#41414A" stroke-width="4"/>
<line x1="1015" y1="143" x2="1126" y2="143" stroke="#41414A" stroke-width="4"/>
<line x1="1015" y1="156" x2="1126" y2="156" stroke="#41414A" stroke-width="4"/>
<path d="M1047.68 76L1042.88 85H1052.49L1047.68 76Z" fill="#41414A"/>
<path d="M1094.55 154L1099.36 145L1089.74 145L1094.55 154Z" fill="#41414A"/>
<path d="M394 480H176V512H394V480Z" fill="#D0598F" stroke="#41414A" stroke-width="6"/>
<path d="M176 480H3V512H176V480Z" fill="#D0598F" stroke="#41414A" stroke-width="6"/>
<path d="M272 3H3V35H272V3Z" fill="#D0598F" stroke="#41414A" stroke-width="6"/>
<path d="M2.99999 219L3 338L35 338L35 219L2.99999 219Z" fill="#D0598F" stroke="#41414A" stroke-width="6"/>
<path d="M261.863 500.699V498.519L267.328 489.909H269.207V492.926H268.095L264.65 498.379V498.481H272.416V500.699H261.863ZM268.146 503V500.034L268.197 499.069V489.909H270.793V503H268.146ZM279.393 503.288C278.294 503.283 277.348 503.013 276.555 502.476C275.767 501.939 275.159 501.161 274.733 500.143C274.311 499.124 274.103 497.899 274.107 496.467C274.107 495.04 274.318 493.823 274.74 492.817C275.166 491.812 275.773 491.047 276.561 490.523C277.354 489.994 278.298 489.73 279.393 489.73C280.488 489.73 281.43 489.994 282.218 490.523C283.011 491.051 283.62 491.818 284.047 492.824C284.473 493.825 284.684 495.04 284.679 496.467C284.679 497.903 284.466 499.131 284.04 500.149C283.618 501.168 283.013 501.945 282.225 502.482C281.436 503.019 280.493 503.288 279.393 503.288ZM279.393 500.993C280.143 500.993 280.742 500.616 281.189 499.862C281.637 499.107 281.858 497.976 281.854 496.467C281.854 495.474 281.752 494.648 281.547 493.987C281.347 493.327 281.061 492.83 280.691 492.498C280.324 492.165 279.892 491.999 279.393 491.999C278.647 491.999 278.051 492.372 277.603 493.118C277.156 493.864 276.93 494.98 276.926 496.467C276.926 497.473 277.026 498.312 277.226 498.986C277.431 499.655 277.718 500.158 278.089 500.494C278.46 500.827 278.895 500.993 279.393 500.993ZM291.536 503.179C290.552 503.179 289.676 503.019 288.909 502.7C288.146 502.376 287.548 501.935 287.113 501.376C286.678 500.818 286.461 500.185 286.461 499.478C286.461 498.933 286.585 498.432 286.832 497.976C287.083 497.516 287.424 497.134 287.855 496.832C288.285 496.525 288.767 496.329 289.299 496.244V496.154C288.6 496.013 288.034 495.675 287.599 495.138C287.164 494.597 286.947 493.968 286.947 493.252C286.947 492.575 287.145 491.972 287.541 491.443C287.938 490.911 288.481 490.493 289.171 490.19C289.866 489.884 290.654 489.73 291.536 489.73C292.419 489.73 293.205 489.884 293.895 490.19C294.59 490.497 295.135 490.917 295.531 491.45C295.928 491.978 296.128 492.579 296.132 493.252C296.128 493.972 295.906 494.601 295.468 495.138C295.029 495.675 294.466 496.013 293.78 496.154V496.244C294.304 496.329 294.779 496.525 295.205 496.832C295.636 497.134 295.977 497.516 296.228 497.976C296.484 498.432 296.614 498.933 296.618 499.478C296.614 500.185 296.394 500.818 295.96 501.376C295.525 501.935 294.924 502.376 294.157 502.7C293.394 503.019 292.521 503.179 291.536 503.179ZM291.536 501.146C291.975 501.146 292.359 501.067 292.687 500.91C293.015 500.748 293.271 500.526 293.454 500.245C293.642 499.96 293.735 499.631 293.735 499.261C293.735 498.881 293.639 498.547 293.448 498.257C293.256 497.963 292.996 497.733 292.668 497.567C292.34 497.396 291.963 497.311 291.536 497.311C291.115 497.311 290.737 497.396 290.405 497.567C290.073 497.733 289.811 497.963 289.619 498.257C289.431 498.547 289.338 498.881 289.338 499.261C289.338 499.631 289.429 499.96 289.612 500.245C289.796 500.526 290.053 500.748 290.386 500.91C290.718 501.067 291.102 501.146 291.536 501.146ZM291.536 495.298C291.903 495.298 292.229 495.223 292.514 495.074C292.8 494.925 293.024 494.718 293.186 494.454C293.347 494.19 293.428 493.885 293.428 493.54C293.428 493.199 293.347 492.901 293.186 492.645C293.024 492.385 292.802 492.183 292.521 492.038C292.24 491.888 291.911 491.814 291.536 491.814C291.166 491.814 290.838 491.888 290.552 492.038C290.267 492.183 290.043 492.385 289.881 492.645C289.723 492.901 289.644 493.199 289.644 493.54C289.644 493.885 289.725 494.19 289.887 494.454C290.049 494.718 290.273 494.925 290.558 495.074C290.844 495.223 291.17 495.298 291.536 495.298ZM304.696 495.374V497.535H298.726V495.374H304.696ZM312.686 489.909V503H309.918V492.536H309.842L306.844 494.415V491.961L310.085 489.909H312.686Z" fill="white"/>
<path d="M61.8629 500.699V498.519L67.3281 489.909H69.2074V492.926H68.0952L64.6499 498.379V498.481H72.4162V500.699H61.8629ZM68.1463 503V500.034L68.1974 499.069V489.909H70.7926V503H68.1463ZM79.3931 503.288C78.2937 503.283 77.3477 503.013 76.555 502.476C75.7667 501.939 75.1594 501.161 74.7333 500.143C74.3114 499.124 74.1026 497.899 74.1069 496.467C74.1069 495.04 74.3178 493.823 74.7397 492.817C75.1658 491.812 75.7731 491.047 76.5614 490.523C77.354 489.994 78.2979 489.73 79.3931 489.73C80.4883 489.73 81.43 489.994 82.2184 490.523C83.011 491.051 83.6204 491.818 84.0465 492.824C84.4727 493.825 84.6836 495.04 84.6793 496.467C84.6793 497.903 84.4663 499.131 84.0401 500.149C83.6183 501.168 83.0131 501.945 82.2248 502.482C81.4364 503.019 80.4925 503.288 79.3931 503.288ZM79.3931 500.993C80.1431 500.993 80.7418 500.616 81.1893 499.862C81.6367 499.107 81.8583 497.976 81.854 496.467C81.854 495.474 81.7518 494.648 81.5472 493.987C81.3469 493.327 81.0614 492.83 80.6907 492.498C80.3242 492.165 79.8917 491.999 79.3931 491.999C78.6474 491.999 78.0508 492.372 77.6033 493.118C77.1559 493.864 76.93 494.98 76.9258 496.467C76.9258 497.473 77.0259 498.312 77.2262 498.986C77.4308 499.655 77.7184 500.158 78.0891 500.494C78.4599 500.827 78.8945 500.993 79.3931 500.993ZM91.5364 503.179C90.552 503.179 89.6763 503.019 88.9093 502.7C88.1465 502.376 87.5478 501.935 87.1131 501.376C86.6784 500.818 86.4611 500.185 86.4611 499.478C86.4611 498.933 86.5847 498.432 86.8319 497.976C87.0833 497.516 87.4242 497.134 87.8546 496.832C88.285 496.525 88.7665 496.329 89.2992 496.244V496.154C88.6003 496.013 88.0336 495.675 87.5989 495.138C87.1642 494.597 86.9469 493.968 86.9469 493.252C86.9469 492.575 87.1451 491.972 87.5414 491.443C87.9377 490.911 88.481 490.493 89.1713 490.19C89.8659 489.884 90.6543 489.73 91.5364 489.73C92.4185 489.73 93.2047 489.884 93.8951 490.19C94.5897 490.497 95.1351 490.917 95.5314 491.45C95.9277 491.978 96.128 492.579 96.1323 493.252C96.128 493.972 95.9064 494.601 95.4675 495.138C95.0286 495.675 94.4661 496.013 93.78 496.154V496.244C94.3042 496.329 94.7793 496.525 95.2054 496.832C95.6358 497.134 95.9767 497.516 96.2282 497.976C96.4838 498.432 96.6138 498.933 96.6181 499.478C96.6138 500.185 96.3944 500.818 95.9597 501.376C95.525 501.935 94.9242 502.376 94.1571 502.7C93.3944 503.019 92.5208 503.179 91.5364 503.179ZM91.5364 501.146C91.9753 501.146 92.3588 501.067 92.687 500.91C93.0151 500.748 93.2708 500.526 93.454 500.245C93.6415 499.96 93.7353 499.631 93.7353 499.261C93.7353 498.881 93.6394 498.547 93.4476 498.257C93.2559 497.963 92.9959 497.733 92.6678 497.567C92.3397 497.396 91.9625 497.311 91.5364 497.311C91.1145 497.311 90.7374 497.396 90.405 497.567C90.0726 497.733 89.8105 497.963 89.6188 498.257C89.4313 498.547 89.3375 498.881 89.3375 499.261C89.3375 499.631 89.4292 499.96 89.6124 500.245C89.7956 500.526 90.0534 500.748 90.3858 500.91C90.7182 501.067 91.1017 501.146 91.5364 501.146ZM91.5364 495.298C91.9029 495.298 92.2289 495.223 92.5144 495.074C92.7999 494.925 93.0236 494.718 93.1855 494.454C93.3475 494.19 93.4284 493.885 93.4284 493.54C93.4284 493.199 93.3475 492.901 93.1855 492.645C93.0236 492.385 92.802 492.183 92.5208 492.038C92.2395 491.888 91.9114 491.814 91.5364 491.814C91.1657 491.814 90.8375 491.888 90.552 492.038C90.2665 492.183 90.0428 492.385 89.8809 492.645C89.7232 492.901 89.6444 493.199 89.6444 493.54C89.6444 493.885 89.7253 494.19 89.8873 494.454C90.0492 494.718 90.2729 494.925 90.5584 495.074C90.8439 495.223 91.1699 495.298 91.5364 495.298ZM104.696 495.374V497.535H98.7259V495.374H104.696ZM106.622 503V501.006L111.281 496.691C111.678 496.308 112.01 495.962 112.279 495.656C112.551 495.349 112.758 495.048 112.899 494.754C113.039 494.456 113.11 494.134 113.11 493.789C113.11 493.406 113.022 493.075 112.847 492.798C112.673 492.517 112.434 492.302 112.132 492.153C111.829 491.999 111.486 491.923 111.102 491.923C110.702 491.923 110.352 492.004 110.054 492.165C109.756 492.327 109.526 492.56 109.364 492.862C109.202 493.165 109.121 493.525 109.121 493.942H106.494C106.494 493.086 106.688 492.342 107.075 491.712C107.463 491.081 108.007 490.593 108.705 490.248C109.404 489.903 110.21 489.73 111.122 489.73C112.059 489.73 112.875 489.896 113.57 490.229C114.269 490.557 114.812 491.013 115.2 491.597C115.588 492.18 115.781 492.849 115.781 493.604C115.781 494.098 115.683 494.586 115.487 495.067C115.296 495.549 114.953 496.084 114.458 496.672C113.964 497.256 113.267 497.957 112.368 498.775L110.457 500.648V500.737H115.954V503H106.622Z" fill="white"/>
<path d="M106.863 23.6989V21.5192L112.328 12.9091H114.207V15.9261H113.095L109.65 21.3786V21.4808H117.416V23.6989H106.863ZM113.146 26V23.0341L113.197 22.0689V12.9091L115.793 12.9091V26H113.146ZM124.393 26.2876C123.294 26.2834 122.348 26.0128 121.555 25.4759C120.767 24.9389 120.159 24.1612 119.733 23.1428C119.311 22.1243 119.103 20.8991 119.107 19.4673C119.107 18.0398 119.318 16.8232 119.74 15.8175C120.166 14.8118 120.773 14.0469 121.561 13.5227C122.354 12.9943 123.298 12.7301 124.393 12.7301C125.488 12.7301 126.43 12.9943 127.218 13.5227C128.011 14.0511 128.62 14.8182 129.047 15.8239C129.473 16.8253 129.684 18.0398 129.679 19.4673C129.679 20.9034 129.466 22.1307 129.04 23.1491C128.618 24.1676 128.013 24.9453 127.225 25.4822C126.436 26.0192 125.493 26.2876 124.393 26.2876ZM124.393 23.9929C125.143 23.9929 125.742 23.6158 126.189 22.8615C126.637 22.1072 126.858 20.9759 126.854 19.4673C126.854 18.4744 126.752 17.6477 126.547 16.9872C126.347 16.3267 126.061 15.8303 125.691 15.4979C125.324 15.1655 124.892 14.9993 124.393 14.9993C123.647 14.9993 123.051 15.3722 122.603 16.1179C122.156 16.8636 121.93 17.9801 121.926 19.4673C121.926 20.473 122.026 21.3125 122.226 21.9858C122.431 22.6548 122.718 23.1577 123.089 23.4943C123.46 23.8267 123.895 23.9929 124.393 23.9929ZM136.536 26.179C135.552 26.179 134.676 26.0192 133.909 25.6996C133.146 25.3757 132.548 24.9347 132.113 24.3764C131.678 23.8182 131.461 23.1854 131.461 22.478C131.461 21.9325 131.585 21.4318 131.832 20.9759C132.083 20.5156 132.424 20.1342 132.855 19.8317C133.285 19.5249 133.767 19.3288 134.299 19.2436V19.1541C133.6 19.0135 133.034 18.6747 132.599 18.1378C132.164 17.5966 131.947 16.968 131.947 16.2521C131.947 15.5746 132.145 14.9716 132.541 14.4432C132.938 13.9105 133.481 13.4929 134.171 13.1903C134.866 12.8835 135.654 12.7301 136.536 12.7301C137.419 12.7301 138.205 12.8835 138.895 13.1903C139.59 13.4972 140.135 13.9169 140.531 14.4496C140.928 14.978 141.128 15.5788 141.132 16.2521C141.128 16.9723 140.906 17.6009 140.468 18.1378C140.029 18.6747 139.466 19.0135 138.78 19.1541V19.2436C139.304 19.3288 139.779 19.5249 140.205 19.8317C140.636 20.1342 140.977 20.5156 141.228 20.9759C141.484 21.4318 141.614 21.9325 141.618 22.478C141.614 23.1854 141.394 23.8182 140.96 24.3764C140.525 24.9347 139.924 25.3757 139.157 25.6996C138.394 26.0192 137.521 26.179 136.536 26.179ZM136.536 24.1463C136.975 24.1463 137.359 24.0675 137.687 23.9098C138.015 23.7479 138.271 23.5263 138.454 23.245C138.642 22.9595 138.735 22.6314 138.735 22.2607C138.735 21.8814 138.639 21.5469 138.448 21.2571C138.256 20.9631 137.996 20.733 137.668 20.5668C137.34 20.3963 136.963 20.3111 136.536 20.3111C136.115 20.3111 135.737 20.3963 135.405 20.5668C135.073 20.733 134.811 20.9631 134.619 21.2571C134.431 21.5469 134.338 21.8814 134.338 22.2607C134.338 22.6314 134.429 22.9595 134.612 23.245C134.796 23.5263 135.053 23.7479 135.386 23.9098C135.718 24.0675 136.102 24.1463 136.536 24.1463ZM136.536 18.2976C136.903 18.2976 137.229 18.223 137.514 18.0739C137.8 17.9247 138.024 17.718 138.186 17.4538C138.347 17.1896 138.428 16.8849 138.428 16.5398C138.428 16.1989 138.347 15.9006 138.186 15.6449C138.024 15.3849 137.802 15.1825 137.521 15.0376C137.24 14.8885 136.911 14.8139 136.536 14.8139C136.166 14.8139 135.838 14.8885 135.552 15.0376C135.267 15.1825 135.043 15.3849 134.881 15.6449C134.723 15.9006 134.644 16.1989 134.644 16.5398C134.644 16.8849 134.725 17.1896 134.887 17.4538C135.049 17.718 135.273 17.9247 135.558 18.0739C135.844 18.223 136.17 18.2976 136.536 18.2976ZM149.696 18.3743V20.5348H143.726V18.3743H149.696ZM156.742 26.179C155.787 26.179 154.937 26.0149 154.191 25.6868C153.45 25.3544 152.864 24.8984 152.433 24.3189C152.007 23.7351 151.788 23.0618 151.775 22.299H154.562C154.579 22.6186 154.683 22.8999 154.875 23.1428C155.071 23.3814 155.331 23.5668 155.655 23.6989C155.979 23.831 156.343 23.897 156.748 23.897C157.17 23.897 157.543 23.8224 157.867 23.6733C158.191 23.5241 158.444 23.3175 158.627 23.0533C158.811 22.7891 158.902 22.4844 158.902 22.1392C158.902 21.7898 158.804 21.4808 158.608 21.2124C158.416 20.9396 158.139 20.7266 157.777 20.5732C157.419 20.4197 156.993 20.343 156.499 20.343H155.278V18.3104H156.499C156.916 18.3104 157.285 18.2379 157.605 18.093C157.928 17.9482 158.18 17.7479 158.359 17.4922C158.538 17.2322 158.627 16.9297 158.627 16.5845C158.627 16.2564 158.548 15.9688 158.391 15.7216C158.237 15.4702 158.02 15.2741 157.739 15.1335C157.462 14.9929 157.138 14.9226 156.767 14.9226C156.392 14.9226 156.049 14.9908 155.738 15.1271C155.427 15.2592 155.178 15.4489 154.99 15.696C154.803 15.9432 154.703 16.233 154.69 16.5653H152.037C152.05 15.8111 152.265 15.1463 152.683 14.571C153.1 13.9957 153.663 13.5462 154.37 13.2223C155.082 12.8942 155.885 12.7301 156.78 12.7301C157.683 12.7301 158.474 12.8942 159.151 13.2223C159.829 13.5504 160.355 13.9936 160.73 14.5518C161.11 15.1058 161.297 15.728 161.293 16.4183C161.297 17.1513 161.069 17.7628 160.609 18.2528C160.153 18.7429 159.558 19.054 158.825 19.1861V19.2884C159.789 19.4119 160.521 19.7464 161.024 20.2919C161.531 20.8331 161.783 21.5107 161.779 22.3246C161.783 23.0703 161.568 23.733 161.133 24.3125C160.703 24.892 160.108 25.348 159.35 25.6804C158.591 26.0128 157.722 26.179 156.742 26.179Z" fill="white"/>
<path d="M23.6989 298.137L21.5192 298.137L12.9091 292.672L12.9091 290.793L15.9261 290.793L15.9261 291.905L21.3786 295.35L21.4808 295.35L21.4808 287.584L23.6989 287.584L23.6989 298.137ZM26 291.854L23.0341 291.854L22.0689 291.803L12.9091 291.803L12.9091 289.207L26 289.207L26 291.854ZM26.2876 280.607C26.2834 281.706 26.0128 282.652 25.4759 283.445C24.9389 284.233 24.1612 284.841 23.1428 285.267C22.1243 285.689 20.8991 285.897 19.4673 285.893C18.0398 285.893 16.8232 285.682 15.8175 285.26C14.8118 284.834 14.0469 284.227 13.5227 283.439C12.9943 282.646 12.7301 281.702 12.7301 280.607C12.7301 279.512 12.9943 278.57 13.5227 277.782C14.0511 276.989 14.8182 276.38 15.8239 275.953C16.8253 275.527 18.0398 275.316 19.4673 275.321C20.9034 275.321 22.1307 275.534 23.1491 275.96C24.1676 276.382 24.9453 276.987 25.4822 277.775C26.0192 278.564 26.2876 279.507 26.2876 280.607ZM23.9929 280.607C23.9929 279.857 23.6158 279.258 22.8615 278.811C22.1072 278.363 20.9759 278.142 19.4673 278.146C18.4744 278.146 17.6477 278.248 16.9872 278.453C16.3267 278.653 15.8303 278.939 15.4979 279.309C15.1655 279.676 14.9993 280.108 14.9993 280.607C14.9993 281.353 15.3722 281.949 16.1179 282.397C16.8636 282.844 17.9801 283.07 19.4673 283.074C20.473 283.074 21.3125 282.974 21.9858 282.774C22.6548 282.569 23.1577 282.282 23.4943 281.911C23.8267 281.54 23.9929 281.105 23.9929 280.607ZM26.179 268.464C26.179 269.448 26.0192 270.324 25.6996 271.091C25.3757 271.854 24.9347 272.452 24.3764 272.887C23.8182 273.322 23.1854 273.539 22.478 273.539C21.9325 273.539 21.4318 273.415 20.9759 273.168C20.5156 272.917 20.1342 272.576 19.8317 272.145C19.5249 271.715 19.3288 271.233 19.2436 270.701L19.1541 270.701C19.0135 271.4 18.6747 271.966 18.1378 272.401C17.5966 272.836 16.968 273.053 16.2521 273.053C15.5746 273.053 14.9716 272.855 14.4432 272.459C13.9105 272.062 13.4929 271.519 13.1903 270.829C12.8835 270.134 12.7301 269.346 12.7301 268.464C12.7301 267.581 12.8835 266.795 13.1903 266.105C13.4972 265.41 13.9169 264.865 14.4496 264.469C14.978 264.072 15.5788 263.872 16.2521 263.868C16.9723 263.872 17.6009 264.094 18.1378 264.532C18.6747 264.971 19.0135 265.534 19.1541 266.22L19.2436 266.22C19.3288 265.696 19.5249 265.221 19.8317 264.795C20.1342 264.364 20.5156 264.023 20.9759 263.772C21.4318 263.516 21.9325 263.386 22.478 263.382C23.1854 263.386 23.8182 263.606 24.3764 264.04C24.9347 264.475 25.3757 265.076 25.6996 265.843C26.0192 266.606 26.179 267.479 26.179 268.464ZM24.1463 268.464C24.1463 268.025 24.0675 267.641 23.9098 267.313C23.7479 266.985 23.5263 266.729 23.245 266.546C22.9595 266.358 22.6314 266.265 22.2607 266.265C21.8814 266.265 21.5469 266.361 21.2571 266.552C20.9631 266.744 20.733 267.004 20.5668 267.332C20.3963 267.66 20.3111 268.037 20.3111 268.464C20.3111 268.885 20.3963 269.263 20.5668 269.595C20.733 269.927 20.9631 270.189 21.2571 270.381C21.5469 270.569 21.8814 270.662 22.2607 270.662C22.6314 270.662 22.9595 270.571 23.245 270.388C23.5263 270.204 23.7479 269.947 23.9098 269.614C24.0675 269.282 24.1463 268.898 24.1463 268.464ZM18.2976 268.464C18.2976 268.097 18.223 267.771 18.0739 267.486C17.9247 267.2 17.718 266.976 17.4538 266.814C17.1896 266.653 16.8849 266.572 16.5398 266.572C16.1989 266.572 15.9006 266.653 15.6449 266.814C15.3849 266.976 15.1825 267.198 15.0376 267.479C14.8885 267.76 14.8139 268.089 14.8139 268.464C14.8139 268.834 14.8885 269.162 15.0376 269.448C15.1825 269.733 15.3849 269.957 15.6449 270.119C15.9006 270.277 16.1989 270.356 16.5398 270.356C16.8849 270.356 17.1896 270.275 17.4538 270.113C17.718 269.951 17.9247 269.727 18.0739 269.442C18.223 269.156 18.2976 268.83 18.2976 268.464Z" fill="white"/>
<rect x="938" y="29" width="73" height="47" fill="white" stroke="#41414A" stroke-width="6"/>
<rect x="938" y="143" width="73" height="47" fill="white" stroke="#41414A" stroke-width="6"/>
<rect x="928" y="76" width="83" height="66" fill="white" stroke="#41414A" stroke-width="6"/>
</svg>
