<svg width="1513" height="492" viewBox="0 0 1513 492" fill="none" xmlns="http://www.w3.org/2000/svg">
<rect x="4" y="3" width="1503" height="486" fill="white" stroke="#41414A" stroke-width="6"/>
<path d="M224.5 276H347.5" stroke="#41414A" stroke-width="6"/>
<path d="M424 188H328V3H424V188Z" stroke="#41414A" stroke-width="6"/>
<path d="M495 188H424V3H495V188Z" stroke="#41414A" stroke-width="6"/>
<path d="M329 83H243V3H329V83Z" fill="#FFF5ED" stroke="#41414A" stroke-width="6"/>
<path d="M329 188H243V83H329V188Z" fill="#E2E1E6" stroke="#41414A" stroke-width="6"/>
<path d="M666 188H576V3H666V188Z" stroke="#41414A" stroke-width="6"/>
<path d="M936 188H846V3H936V188Z" stroke="#41414A" stroke-width="6"/>
<path d="M846 188H666V3H846V188Z" stroke="#41414A" stroke-width="6"/>
<path d="M576 188H495V3H576V188Z" fill="#E2E1E6" stroke="#41414A" stroke-width="6"/>
<path d="M1017 188H936V3H1017V188Z" fill="#E2E1E6" stroke="#41414A" stroke-width="6"/>
<path d="M1098 214H1017V3H1098V214Z" fill="white" stroke="#41414A" stroke-width="6"/>
<path d="M1179 214H1098V3H1179V214Z" fill="white" stroke="#41414A" stroke-width="6"/>
<path d="M1273 214H1179V3H1273V214Z" fill="white" stroke="#41414A" stroke-width="6"/>
<path d="M1342 77H1273V3H1342V77Z" fill="white" stroke="#41414A" stroke-width="6"/>
<path d="M1342 214H1273V77H1342V214Z" fill="white" stroke="#41414A" stroke-width="6"/>
<path d="M1342 489H1248V342H1342V489Z" fill="white" stroke="#41414A" stroke-width="6"/>
<path d="M1248 489H1169V276H1248V489Z" fill="white" stroke="#41414A" stroke-width="6"/>
<path d="M1169 489H1090V276H1169V489Z" fill="white" stroke="#41414A" stroke-width="6"/>
<path d="M1090 489H1011V276H1090V489Z" fill="white" stroke="#41414A" stroke-width="6"/>
<path d="M1342 342H1248V276H1342V342Z" fill="white" stroke="#41414A" stroke-width="6"/>
<path d="M1510 146H1342V4H1510V146Z" fill="#FFE3CE" stroke="#41414A" stroke-width="6"/>
<path d="M1510 276H1342V146H1510V276Z" fill="#FFE3CE" stroke="#41414A" stroke-width="6"/>
<path d="M1510 489H1342V276H1510V489Z" fill="#FFE3CE" stroke="#41414A" stroke-width="6"/>
<path d="M156 489H4V188H156V489Z" fill="#F3E0D2" stroke="#41414A" stroke-width="6"/>
<path d="M225 276H156V189H225V276Z" stroke="#41414A" stroke-width="6"/>
<path d="M277 489H225V325H277V489Z" fill="#E2E1E6" stroke="#41414A" stroke-width="6"/>
<path d="M347 489H277V325H347V489Z" fill="#F3E0D2" stroke="#41414A" stroke-width="6"/>
<path d="M432 489H347V276H432V489Z" stroke="#41414A" stroke-width="6"/>
<path d="M700 489H615V276H700V489Z" stroke="#41414A" stroke-width="6"/>
<path d="M797 489H700V276H797V489Z" stroke="#41414A" stroke-width="6"/>
<path d="M867 489H797V276H867V489Z" fill="#FFEBF4" stroke="#41414A" stroke-width="6"/>
<path d="M1011 489H867V342H1011V489Z" fill="#FFEBF4" stroke="#41414A" stroke-width="6"/>
<path d="M1011 342H867V276H1011V342Z" fill="#FFEBF4" stroke="#41414A" stroke-width="6"/>
<path d="M516 489H432V276H516V489Z" fill="white" stroke="#41414A" stroke-width="6"/>
<path d="M615 489H516V276H615V489Z" fill="#E2E1E6" stroke="#41414A" stroke-width="6"/>
<path d="M329 4H243V36H329V4Z" fill="#D05A8F" stroke="#41414A" stroke-width="6"/>
<path d="M424 4H329V36H424V4Z" fill="#D05A8F" stroke="#41414A" stroke-width="6"/>
<path d="M495 4H424V36H495V4Z" fill="#6768AA" stroke="#41414A" stroke-width="6"/>
<path d="M347 457H277V489H347V457Z" fill="#D0598F" stroke="#41414A" stroke-width="6"/>
<path d="M432 457H347V489H432V457Z" fill="#D0598F" stroke="#41414A" stroke-width="6"/>
<path d="M516 457H431V489H516V457Z" fill="#D0598F" stroke="#41414A" stroke-width="6"/>
<path d="M700 457H615V489H700V457Z" fill="#D0598F" stroke="#41414A" stroke-width="6"/>
<path d="M867 457H797V489H867V457Z" fill="#D0598F" stroke="#41414A" stroke-width="6"/>
<path d="M1011 457H867V489H1011V457Z" fill="#D0598F" stroke="#41414A" stroke-width="6"/>
<path d="M1510 489L1510 276L1478 276L1478 489L1510 489Z" fill="#D0598F" stroke="#41414A" stroke-width="6"/>
<path d="M1510 276L1510 146L1478 146L1478 276L1510 276Z" fill="#D0598F" stroke="#41414A" stroke-width="6"/>
<path d="M1510 146L1510 4L1478 4L1478 146L1510 146Z" fill="#D0598F" stroke="#41414A" stroke-width="6"/>
<path d="M1090 457H1011V489H1090V457Z" fill="#D0598F" stroke="#41414A" stroke-width="6"/>
<path d="M1169 457H1090V489H1169V457Z" fill="#D0598F" stroke="#41414A" stroke-width="6"/>
<path d="M1247 457H1168V489H1247V457Z" fill="#D0598F" stroke="#41414A" stroke-width="6"/>
<path d="M1011 342L1011 276L979 276L979 342L1011 342Z" fill="#D0598F" stroke="#41414A" stroke-width="6"/>
<path d="M797 457H700V489H797V457Z" fill="#D0598F" stroke="#41414A" stroke-width="6"/>
<path d="M277 457H225V489H277V457Z" fill="#6768AA" stroke="#41414A" stroke-width="6"/>
<path d="M1179 4H1098V36H1179V4Z" fill="#D0598F" stroke="#41414A" stroke-width="6"/>
<path d="M1273 4H1179V36H1273V4Z" fill="#D0598F" stroke="#41414A" stroke-width="6"/>
<path d="M50 325H4V408H50V325Z" fill="#D05A8F" stroke="#41414A" stroke-width="6"/>
<path d="M50 408H4V489H50V408Z" fill="#D05A8F" stroke="#41414A" stroke-width="6"/>
<path d="M49 188H3V325H49V188Z" fill="#D05A8F" stroke="#41414A" stroke-width="6"/>
<path d="M36.2187 280.859C36.2187 281.964 36.0156 282.948 35.6094 283.812C35.2031 284.672 34.6432 285.354 33.9297 285.859C33.2161 286.365 32.3984 286.628 31.4766 286.648L31.4766 283.367C32.0964 283.331 32.599 283.07 32.9844 282.586C33.3698 282.102 33.5625 281.526 33.5625 280.859C33.5625 280.328 33.4453 279.859 33.2109 279.453C32.9714 279.042 32.6406 278.721 32.2187 278.492C31.7917 278.258 31.3021 278.141 30.75 278.141C30.1875 278.141 29.6927 278.26 29.2656 278.5C28.8385 278.734 28.5052 279.06 28.2656 279.477C28.026 279.893 27.9036 280.37 27.8984 280.906C27.8984 281.375 27.9948 281.831 28.1875 282.273C28.3802 282.711 28.6432 283.052 28.9766 283.297L28.4375 286.305L20 285.547L20 275.766L22.7656 275.766L22.7656 282.758L26.7734 283.172L26.7734 283.078C26.3776 282.797 26.0495 282.372 25.7891 281.805C25.5286 281.237 25.3984 280.602 25.3984 279.898C25.3984 278.935 25.625 278.076 26.0781 277.32C26.5312 276.565 27.1536 275.969 27.9453 275.531C28.7318 275.094 29.638 274.878 30.6641 274.883C31.7422 274.878 32.7005 275.128 33.5391 275.633C34.3724 276.133 35.0286 276.833 35.5078 277.734C35.9818 278.63 36.2187 279.672 36.2187 280.859ZM20 265.562L36 265.562L36 268.945L23.2109 268.945L23.2109 269.039L25.5078 272.703L22.5078 272.703L20 268.742L20 265.562ZM36.3516 255.486C36.3464 256.83 36.0156 257.986 35.3594 258.955C34.7031 259.919 33.7526 260.661 32.5078 261.182C31.263 261.697 29.7656 261.952 28.0156 261.947C26.2708 261.947 24.7839 261.689 23.5547 261.174C22.3255 260.653 21.3906 259.911 20.75 258.947C20.1042 257.979 19.7812 256.825 19.7812 255.486C19.7812 254.148 20.1042 252.997 20.75 252.033C21.3958 251.064 22.3333 250.32 23.5625 249.799C24.7865 249.278 26.2708 249.02 28.0156 249.025C29.7708 249.025 31.2708 249.286 32.5156 249.807C33.7604 250.322 34.7109 251.062 35.3672 252.025C36.0234 252.989 36.3516 254.143 36.3516 255.486ZM33.5469 255.486C33.5469 254.57 33.0859 253.838 32.1641 253.291C31.2422 252.744 29.8594 252.473 28.0156 252.479C26.8021 252.479 25.7917 252.604 24.9844 252.854C24.1771 253.098 23.5703 253.447 23.1641 253.9C22.7578 254.348 22.5547 254.877 22.5547 255.486C22.5547 256.398 23.0104 257.127 23.9219 257.674C24.8333 258.221 26.1979 258.497 28.0156 258.502C29.2448 258.502 30.2708 258.38 31.0937 258.135C31.9115 257.885 32.526 257.533 32.9375 257.08C33.3437 256.627 33.5469 256.096 33.5469 255.486ZM39.8594 242.295L33.3047 242.295L33.3047 241.209C33.0391 240.839 32.6641 240.501 32.1797 240.193C31.6901 239.886 31.0156 239.623 30.1562 239.404C29.2917 239.186 28.1615 239.029 26.7656 238.936L20 238.482L20 227.896L33.3047 227.896L33.3047 226.146L39.8437 226.146L39.8437 229.396L36 229.396L36 239.045L39.8594 239.045L39.8594 242.295ZM33.3047 237.303L33.3047 231.146L22.7891 231.146L22.7891 235.436L26.7656 235.686C27.8229 235.753 28.7604 235.865 29.5781 236.021C30.3958 236.173 31.112 236.357 31.7266 236.576C32.3359 236.79 32.862 237.032 33.3047 237.303Z" fill="white"/>
<path d="M36.2187 387.859C36.2187 388.964 36.0156 389.948 35.6094 390.812C35.2031 391.672 34.6432 392.354 33.9297 392.859C33.2161 393.365 32.3984 393.628 31.4766 393.648L31.4766 390.367C32.0964 390.331 32.599 390.07 32.9844 389.586C33.3698 389.102 33.5625 388.526 33.5625 387.859C33.5625 387.328 33.4453 386.859 33.2109 386.453C32.9714 386.042 32.6406 385.721 32.2187 385.492C31.7917 385.258 31.3021 385.141 30.75 385.141C30.1875 385.141 29.6927 385.26 29.2656 385.5C28.8385 385.734 28.5052 386.06 28.2656 386.477C28.026 386.893 27.9036 387.37 27.8984 387.906C27.8984 388.375 27.9948 388.831 28.1875 389.273C28.3802 389.711 28.6432 390.052 28.9766 390.297L28.4375 393.305L20 392.547L20 382.766L22.7656 382.766L22.7656 389.758L26.7734 390.172L26.7734 390.078C26.3776 389.797 26.0495 389.372 25.7891 388.805C25.5286 388.237 25.3984 387.602 25.3984 386.898C25.3984 385.935 25.625 385.076 26.0781 384.32C26.5312 383.565 27.1536 382.969 27.9453 382.531C28.7318 382.094 29.638 381.878 30.6641 381.883C31.7422 381.878 32.7005 382.128 33.5391 382.633C34.3724 383.133 35.0286 383.833 35.5078 384.734C35.9818 385.63 36.2187 386.672 36.2187 387.859ZM20 372.562L36 372.562L36 375.945L23.2109 375.945L23.2109 376.039L25.5078 379.703L22.5078 379.703L20 375.742L20 372.562ZM36.3516 362.486C36.3464 363.83 36.0156 364.986 35.3594 365.955C34.7031 366.919 33.7526 367.661 32.5078 368.182C31.263 368.697 29.7656 368.952 28.0156 368.947C26.2708 368.947 24.7839 368.689 23.5547 368.174C22.3255 367.653 21.3906 366.911 20.75 365.947C20.1042 364.979 19.7812 363.825 19.7812 362.486C19.7812 361.148 20.1042 359.997 20.75 359.033C21.3958 358.064 22.3333 357.32 23.5625 356.799C24.7865 356.278 26.2708 356.02 28.0156 356.025C29.7708 356.025 31.2708 356.286 32.5156 356.807C33.7604 357.322 34.7109 358.062 35.3672 359.025C36.0234 359.989 36.3516 361.143 36.3516 362.486ZM33.5469 362.486C33.5469 361.57 33.0859 360.838 32.1641 360.291C31.2422 359.744 29.8594 359.473 28.0156 359.479C26.8021 359.479 25.7917 359.604 24.9844 359.854C24.1771 360.098 23.5703 360.447 23.1641 360.9C22.7578 361.348 22.5547 361.877 22.5547 362.486C22.5547 363.398 23.0104 364.127 23.9219 364.674C24.8333 365.221 26.1979 365.497 28.0156 365.502C29.2448 365.502 30.2708 365.38 31.0937 365.135C31.9115 364.885 32.526 364.533 32.9375 364.08C33.3437 363.627 33.5469 363.096 33.5469 362.486ZM20 337.811L22.7891 337.811L22.7891 345.045L36 345.045L36 348.428L20 348.428L20 337.811Z" fill="white"/>
<path d="M36.2187 470.859C36.2187 471.964 36.0156 472.948 35.6094 473.812C35.2031 474.672 34.6432 475.354 33.9297 475.859C33.2161 476.365 32.3984 476.628 31.4766 476.648L31.4766 473.367C32.0964 473.331 32.599 473.07 32.9844 472.586C33.3698 472.102 33.5625 471.526 33.5625 470.859C33.5625 470.328 33.4453 469.859 33.2109 469.453C32.9714 469.042 32.6406 468.721 32.2187 468.492C31.7917 468.258 31.3021 468.141 30.75 468.141C30.1875 468.141 29.6927 468.26 29.2656 468.5C28.8385 468.734 28.5052 469.06 28.2656 469.477C28.026 469.893 27.9036 470.37 27.8984 470.906C27.8984 471.375 27.9948 471.831 28.1875 472.273C28.3802 472.711 28.6432 473.052 28.9766 473.297L28.4375 476.305L20 475.547L20 465.766L22.7656 465.766L22.7656 472.758L26.7734 473.172L26.7734 473.078C26.3776 472.797 26.0495 472.372 25.7891 471.805C25.5286 471.237 25.3984 470.602 25.3984 469.898C25.3984 468.935 25.625 468.076 26.0781 467.32C26.5312 466.565 27.1536 465.969 27.9453 465.531C28.7318 465.094 29.638 464.878 30.6641 464.883C31.7422 464.878 32.7005 465.128 33.5391 465.633C34.3724 466.133 35.0286 466.833 35.5078 467.734C35.9818 468.63 36.2187 469.672 36.2187 470.859ZM20 455.562L36 455.562L36 458.945L23.2109 458.945L23.2109 459.039L25.5078 462.703L22.5078 462.703L20 458.742L20 455.562ZM36.3516 445.486C36.3464 446.83 36.0156 447.986 35.3594 448.955C34.7031 449.919 33.7526 450.661 32.5078 451.182C31.263 451.697 29.7656 451.952 28.0156 451.947C26.2708 451.947 24.7839 451.689 23.5547 451.174C22.3255 450.653 21.3906 449.911 20.75 448.947C20.1042 447.979 19.7812 446.825 19.7812 445.486C19.7812 444.148 20.1042 442.997 20.75 442.033C21.3958 441.064 22.3333 440.32 23.5625 439.799C24.7865 439.278 26.2708 439.02 28.0156 439.025C29.7708 439.025 31.2708 439.286 32.5156 439.807C33.7604 440.322 34.7109 441.062 35.3672 442.025C36.0234 442.989 36.3516 444.143 36.3516 445.486ZM33.5469 445.486C33.5469 444.57 33.0859 443.838 32.1641 443.291C31.2422 442.744 29.8594 442.473 28.0156 442.479C26.8021 442.479 25.7917 442.604 24.9844 442.854C24.1771 443.098 23.5703 443.447 23.1641 443.9C22.7578 444.348 22.5547 444.877 22.5547 445.486C22.5547 446.398 23.0104 447.127 23.9219 447.674C24.8333 448.221 26.1979 448.497 28.0156 448.502C29.2448 448.502 30.2708 448.38 31.0937 448.135C31.9115 447.885 32.526 447.533 32.9375 447.08C33.3437 446.627 33.5469 446.096 33.5469 445.486ZM36 431.428L20 431.428L20 425.021C20 423.844 20.1745 422.863 20.5234 422.076C20.8724 421.29 21.3568 420.699 21.9766 420.303C22.5911 419.907 23.2995 419.709 24.1016 419.709C24.7266 419.709 25.276 419.834 25.75 420.084C26.2187 420.334 26.6042 420.678 26.9062 421.115C27.2031 421.548 27.4141 422.042 27.5391 422.6L27.6953 422.6C27.7214 421.99 27.8932 421.42 28.2109 420.889C28.5286 420.352 28.974 419.917 29.5469 419.584C30.1146 419.251 30.7917 419.084 31.5781 419.084C32.4271 419.084 33.1849 419.295 33.8516 419.717C34.513 420.133 35.0365 420.751 35.4219 421.568C35.8073 422.386 36 423.394 36 424.592L36 431.428ZM33.2344 428.045L33.2344 425.287C33.2344 424.344 33.0547 423.657 32.6953 423.225C32.3307 422.792 31.8464 422.576 31.2422 422.576C30.7995 422.576 30.4089 422.683 30.0703 422.896C29.7318 423.11 29.4661 423.415 29.2734 423.811C29.0807 424.201 28.9844 424.667 28.9844 425.209L28.9844 428.045L33.2344 428.045ZM26.6953 428.045L26.6953 425.537C26.6953 425.074 26.6146 424.662 26.4531 424.303C26.2865 423.938 26.0521 423.652 25.75 423.443C25.4479 423.23 25.0859 423.123 24.6641 423.123C24.0859 423.123 23.6198 423.329 23.2656 423.74C22.9115 424.146 22.7344 424.725 22.7344 425.475L22.7344 428.045L26.6953 428.045Z" fill="white"/>
<path d="M269.842 27.179C268.939 27.179 268.134 27.0128 267.426 26.6804C266.723 26.348 266.165 25.8899 265.751 25.3061C265.338 24.7223 265.123 24.0533 265.106 23.299H267.79C267.82 23.8061 268.033 24.2173 268.43 24.5327C268.826 24.848 269.297 25.0057 269.842 25.0057C270.277 25.0057 270.661 24.9098 270.993 24.718C271.33 24.522 271.592 24.2514 271.779 23.9062C271.971 23.5568 272.067 23.1562 272.067 22.7045C272.067 22.2443 271.969 21.8395 271.773 21.4901C271.581 21.1406 271.315 20.8679 270.974 20.6719C270.633 20.4759 270.243 20.3757 269.804 20.3714C269.42 20.3714 269.048 20.4503 268.685 20.608C268.327 20.7656 268.048 20.9808 267.848 21.2536L265.387 20.8125L266.007 13.9091L274.01 13.9091V16.1719H268.289L267.95 19.451H268.027C268.257 19.1271 268.604 18.8587 269.069 18.6456C269.533 18.4325 270.053 18.326 270.629 18.326C271.417 18.326 272.12 18.5114 272.738 18.8821C273.356 19.2528 273.844 19.7621 274.202 20.4098C274.56 21.0533 274.737 21.7947 274.732 22.6342C274.737 23.5163 274.532 24.3004 274.119 24.9865C273.71 25.6683 273.136 26.2053 272.399 26.5973C271.666 26.9851 270.814 27.179 269.842 27.179ZM282.358 13.9091V27H279.59V16.5362H279.513L276.516 18.4155V15.9609L279.756 13.9091H282.358ZM285.469 27V25.0057L290.129 20.6911C290.525 20.3075 290.858 19.9624 291.126 19.6555C291.399 19.3487 291.606 19.0483 291.746 18.7543C291.887 18.456 291.957 18.1342 291.957 17.7891C291.957 17.4055 291.87 17.0753 291.695 16.7983C291.52 16.517 291.282 16.3018 290.979 16.1527C290.677 15.9993 290.334 15.9226 289.95 15.9226C289.55 15.9226 289.2 16.0036 288.902 16.1655C288.604 16.3274 288.373 16.5597 288.211 16.8622C288.05 17.1648 287.969 17.5249 287.969 17.9425H285.341C285.341 17.0859 285.535 16.3423 285.923 15.7116C286.311 15.081 286.854 14.593 287.553 14.2479C288.252 13.9027 289.057 13.7301 289.969 13.7301C290.907 13.7301 291.723 13.8963 292.417 14.2287C293.116 14.5568 293.66 15.0128 294.047 15.5966C294.435 16.1804 294.629 16.8494 294.629 17.6037C294.629 18.098 294.531 18.5859 294.335 19.0675C294.143 19.549 293.8 20.0838 293.306 20.6719C292.812 21.2557 292.115 21.9567 291.216 22.7749L289.305 24.6477V24.7372L294.802 24.7372V27H285.469ZM301.05 27V13.9091H306.291C307.254 13.9091 308.058 14.0518 308.701 14.3374C309.345 14.6229 309.828 15.0192 310.152 15.5263C310.476 16.0291 310.638 16.6087 310.638 17.2649C310.638 17.7763 310.536 18.2259 310.331 18.6136C310.127 18.9972 309.845 19.3125 309.487 19.5597C309.134 19.8026 308.729 19.9751 308.273 20.0774V20.2053C308.771 20.2266 309.238 20.3672 309.673 20.6271C310.112 20.8871 310.468 21.2514 310.74 21.7202C311.013 22.1847 311.149 22.7386 311.149 23.3821C311.149 24.0767 310.977 24.6967 310.632 25.2422C310.291 25.7834 309.786 26.2116 309.117 26.527C308.448 26.8423 307.623 27 306.643 27H301.05ZM303.818 24.7372H306.074C306.845 24.7372 307.408 24.5902 307.762 24.2962C308.115 23.9979 308.292 23.6016 308.292 23.1072C308.292 22.745 308.205 22.4254 308.03 22.1484C307.855 21.8714 307.606 21.6541 307.282 21.4964C306.963 21.3388 306.581 21.2599 306.138 21.2599H303.818V24.7372ZM303.818 19.3871H305.869C306.249 19.3871 306.585 19.321 306.879 19.1889C307.178 19.0526 307.412 18.8608 307.583 18.6136C307.757 18.3665 307.845 18.0703 307.845 17.7251C307.845 17.2521 307.676 16.8707 307.34 16.581C307.007 16.2912 306.534 16.1463 305.921 16.1463H303.818V19.3871Z" fill="white"/>
<path d="M364.842 27.179C363.939 27.179 363.134 27.0128 362.426 26.6804C361.723 26.348 361.165 25.8899 360.751 25.3061C360.338 24.7223 360.123 24.0533 360.106 23.299H362.79C362.82 23.8061 363.033 24.2173 363.43 24.5327C363.826 24.848 364.297 25.0057 364.842 25.0057C365.277 25.0057 365.661 24.9098 365.993 24.718C366.33 24.522 366.592 24.2514 366.779 23.9062C366.971 23.5568 367.067 23.1562 367.067 22.7045C367.067 22.2443 366.969 21.8395 366.773 21.4901C366.581 21.1406 366.315 20.8679 365.974 20.6719C365.633 20.4759 365.243 20.3757 364.804 20.3714C364.42 20.3714 364.048 20.4503 363.685 20.608C363.327 20.7656 363.048 20.9808 362.848 21.2536L360.387 20.8125L361.007 13.9091L369.01 13.9091V16.1719H363.289L362.95 19.451H363.027C363.257 19.1271 363.604 18.8587 364.069 18.6456C364.533 18.4325 365.053 18.326 365.629 18.326C366.417 18.326 367.12 18.5114 367.738 18.8821C368.356 19.2528 368.844 19.7621 369.202 20.4098C369.56 21.0533 369.737 21.7947 369.732 22.6342C369.737 23.5163 369.532 24.3004 369.119 24.9865C368.71 25.6683 368.136 26.2053 367.399 26.5973C366.666 26.9851 365.814 27.179 364.842 27.179ZM377.358 13.9091V27H374.59V16.5362H374.513L371.516 18.4155V15.9609L374.756 13.9091H377.358ZM385.308 27.179C384.354 27.179 383.503 27.0149 382.758 26.6868C382.016 26.3544 381.43 25.8984 381 25.3189C380.574 24.7351 380.354 24.0618 380.341 23.299H383.128C383.145 23.6186 383.25 23.8999 383.442 24.1428C383.638 24.3814 383.898 24.5668 384.221 24.6989C384.545 24.831 384.91 24.897 385.314 24.897C385.736 24.897 386.109 24.8224 386.433 24.6733C386.757 24.5241 387.01 24.3175 387.194 24.0533C387.377 23.7891 387.469 23.4844 387.469 23.1392C387.469 22.7898 387.371 22.4808 387.175 22.2124C386.983 21.9396 386.706 21.7266 386.344 21.5732C385.986 21.4197 385.559 21.343 385.065 21.343H383.844V19.3104H385.065C385.483 19.3104 385.851 19.2379 386.171 19.093C386.495 18.9482 386.746 18.7479 386.925 18.4922C387.104 18.2322 387.194 17.9297 387.194 17.5845C387.194 17.2564 387.115 16.9688 386.957 16.7216C386.804 16.4702 386.586 16.2741 386.305 16.1335C386.028 15.9929 385.704 15.9226 385.334 15.9226C384.959 15.9226 384.616 15.9908 384.305 16.1271C383.993 16.2592 383.744 16.4489 383.557 16.696C383.369 16.9432 383.269 17.233 383.256 17.5653H380.604C380.616 16.8111 380.831 16.1463 381.249 15.571C381.667 14.9957 382.229 14.5462 382.937 14.2223C383.648 13.8942 384.452 13.7301 385.346 13.7301C386.25 13.7301 387.04 13.8942 387.718 14.2223C388.395 14.5504 388.922 14.9936 389.297 15.5518C389.676 16.1058 389.863 16.728 389.859 17.4183C389.863 18.1513 389.635 18.7628 389.175 19.2528C388.719 19.7429 388.125 20.054 387.392 20.1861V20.2884C388.355 20.4119 389.088 20.7464 389.591 21.2919C390.098 21.8331 390.349 22.5107 390.345 23.3246C390.349 24.0703 390.134 24.733 389.699 25.3125C389.269 25.892 388.675 26.348 387.916 26.6804C387.157 27.0128 386.288 27.179 385.308 27.179Z" fill="white"/>
<path d="M446.842 27.179C445.939 27.179 445.134 27.0128 444.426 26.6804C443.723 26.348 443.165 25.8899 442.751 25.3061C442.338 24.7223 442.123 24.0533 442.106 23.299H444.79C444.82 23.8061 445.033 24.2173 445.43 24.5327C445.826 24.848 446.297 25.0057 446.842 25.0057C447.277 25.0057 447.661 24.9098 447.993 24.718C448.33 24.522 448.592 24.2514 448.779 23.9062C448.971 23.5568 449.067 23.1562 449.067 22.7045C449.067 22.2443 448.969 21.8395 448.773 21.4901C448.581 21.1406 448.315 20.8679 447.974 20.6719C447.633 20.4759 447.243 20.3757 446.804 20.3714C446.42 20.3714 446.048 20.4503 445.685 20.608C445.327 20.7656 445.048 20.9808 444.848 21.2536L442.387 20.8125L443.007 13.9091L451.01 13.9091V16.1719H445.289L444.95 19.451H445.027C445.257 19.1271 445.604 18.8587 446.069 18.6456C446.533 18.4325 447.053 18.326 447.629 18.326C448.417 18.326 449.12 18.5114 449.738 18.8821C450.356 19.2528 450.844 19.7621 451.202 20.4098C451.56 21.0533 451.737 21.7947 451.732 22.6342C451.737 23.5163 451.532 24.3004 451.119 24.9865C450.71 25.6683 450.136 26.2053 449.399 26.5973C448.666 26.9851 447.814 27.179 446.842 27.179ZM459.358 13.9091V27H456.59V16.5362H456.513L453.516 18.4155V15.9609L456.756 13.9091H459.358ZM462.271 24.6989V22.5192L467.736 13.9091H469.616V16.9261H468.503L465.058 22.3786V22.4808L472.824 22.4808V24.6989L462.271 24.6989ZM468.555 27V24.0341L468.606 23.0689V13.9091H471.201V27H468.555Z" fill="white"/>
<path d="M294.842 480.179C293.939 480.179 293.134 480.013 292.426 479.68C291.723 479.348 291.165 478.89 290.751 478.306C290.338 477.722 290.123 477.053 290.106 476.299H292.79C292.82 476.806 293.033 477.217 293.43 477.533C293.826 477.848 294.297 478.006 294.842 478.006C295.277 478.006 295.661 477.91 295.993 477.718C296.33 477.522 296.592 477.251 296.779 476.906C296.971 476.557 297.067 476.156 297.067 475.705C297.067 475.244 296.969 474.839 296.773 474.49C296.581 474.141 296.315 473.868 295.974 473.672C295.633 473.476 295.243 473.376 294.804 473.371C294.42 473.371 294.048 473.45 293.685 473.608C293.327 473.766 293.048 473.981 292.848 474.254L290.387 473.812L291.007 466.909H299.01V469.172H293.289L292.95 472.451H293.027C293.257 472.127 293.604 471.859 294.069 471.646C294.533 471.433 295.053 471.326 295.629 471.326C296.417 471.326 297.12 471.511 297.738 471.882C298.356 472.253 298.844 472.762 299.202 473.41C299.56 474.053 299.737 474.795 299.732 475.634C299.737 476.516 299.532 477.3 299.119 477.987C298.71 478.668 298.136 479.205 297.399 479.597C296.666 479.985 295.814 480.179 294.842 480.179ZM307.358 466.909V480H304.59V469.536H304.513L301.516 471.415V468.961L304.756 466.909H307.358ZM315.602 480.288C314.503 480.283 313.557 480.013 312.764 479.476C311.976 478.939 311.368 478.161 310.942 477.143C310.52 476.124 310.312 474.899 310.316 473.467C310.316 472.04 310.527 470.823 310.949 469.817C311.375 468.812 311.982 468.047 312.77 467.523C313.563 466.994 314.507 466.73 315.602 466.73C316.697 466.73 317.639 466.994 318.427 467.523C319.22 468.051 319.829 468.818 320.256 469.824C320.682 470.825 320.893 472.04 320.888 473.467C320.888 474.903 320.675 476.131 320.249 477.149C319.827 478.168 319.222 478.945 318.434 479.482C317.645 480.019 316.702 480.288 315.602 480.288ZM315.602 477.993C316.352 477.993 316.951 477.616 317.398 476.862C317.846 476.107 318.067 474.976 318.063 473.467C318.063 472.474 317.961 471.648 317.756 470.987C317.556 470.327 317.27 469.83 316.9 469.498C316.533 469.165 316.101 468.999 315.602 468.999C314.856 468.999 314.26 469.372 313.812 470.118C313.365 470.864 313.139 471.98 313.135 473.467C313.135 474.473 313.235 475.312 313.435 475.986C313.64 476.655 313.927 477.158 314.298 477.494C314.669 477.827 315.104 477.993 315.602 477.993ZM329.361 480H326.395L330.914 466.909H334.481L338.994 480H336.028L332.749 469.901H332.646L329.361 480ZM329.176 474.854H336.181V477.015H329.176V474.854Z" fill="white"/>
<path d="M375.842 480.179C374.939 480.179 374.134 480.013 373.426 479.68C372.723 479.348 372.165 478.89 371.751 478.306C371.338 477.722 371.123 477.053 371.106 476.299H373.79C373.82 476.806 374.033 477.217 374.43 477.533C374.826 477.848 375.297 478.006 375.842 478.006C376.277 478.006 376.661 477.91 376.993 477.718C377.33 477.522 377.592 477.251 377.779 476.906C377.971 476.557 378.067 476.156 378.067 475.705C378.067 475.244 377.969 474.839 377.773 474.49C377.581 474.141 377.315 473.868 376.974 473.672C376.633 473.476 376.243 473.376 375.804 473.371C375.42 473.371 375.048 473.45 374.685 473.608C374.327 473.766 374.048 473.981 373.848 474.254L371.387 473.812L372.007 466.909H380.01V469.172H374.289L373.95 472.451H374.027C374.257 472.127 374.604 471.859 375.069 471.646C375.533 471.433 376.053 471.326 376.629 471.326C377.417 471.326 378.12 471.511 378.738 471.882C379.356 472.253 379.844 472.762 380.202 473.41C380.56 474.053 380.737 474.795 380.732 475.634C380.737 476.516 380.532 477.3 380.119 477.987C379.71 478.668 379.136 479.205 378.399 479.597C377.666 479.985 376.814 480.179 375.842 480.179ZM387.795 480.288C386.696 480.283 385.75 480.013 384.957 479.476C384.169 478.939 383.562 478.161 383.136 477.143C382.714 476.124 382.505 474.899 382.509 473.467C382.509 472.04 382.72 470.823 383.142 469.817C383.568 468.812 384.175 468.047 384.964 467.523C385.756 466.994 386.7 466.73 387.795 466.73C388.891 466.73 389.832 466.994 390.621 467.523C391.413 468.051 392.023 468.818 392.449 469.824C392.875 470.825 393.086 472.04 393.082 473.467C393.082 474.903 392.869 476.131 392.442 477.149C392.021 478.168 391.415 478.945 390.627 479.482C389.839 480.019 388.895 480.288 387.795 480.288ZM387.795 477.993C388.545 477.993 389.144 477.616 389.592 476.862C390.039 476.107 390.261 474.976 390.256 473.467C390.256 472.474 390.154 471.648 389.95 470.987C389.749 470.327 389.464 469.83 389.093 469.498C388.727 469.165 388.294 468.999 387.795 468.999C387.05 468.999 386.453 469.372 386.006 470.118C385.558 470.864 385.332 471.98 385.328 473.467C385.328 474.473 385.428 475.312 385.629 475.986C385.833 476.655 386.121 477.158 386.491 477.494C386.862 477.827 387.297 477.993 387.795 477.993ZM399.792 466.73C400.465 466.73 401.113 466.843 401.735 467.069C402.361 467.295 402.92 467.655 403.41 468.149C403.904 468.643 404.294 469.3 404.579 470.118C404.869 470.932 405.016 471.931 405.02 473.116C405.02 474.228 404.895 475.221 404.643 476.094C404.396 476.964 404.04 477.703 403.576 478.312C403.111 478.922 402.551 479.386 401.895 479.706C401.238 480.021 400.506 480.179 399.696 480.179C398.822 480.179 398.051 480.011 397.382 479.674C396.713 479.333 396.174 478.871 395.765 478.287C395.36 477.699 395.115 477.038 395.03 476.305H397.759C397.866 476.783 398.089 477.153 398.43 477.418C398.771 477.678 399.193 477.808 399.696 477.808C400.548 477.808 401.196 477.437 401.639 476.695C402.082 475.95 402.306 474.929 402.31 473.634H402.221C402.025 474.017 401.76 474.347 401.428 474.624C401.096 474.897 400.714 475.108 400.284 475.257C399.858 475.406 399.404 475.481 398.922 475.481C398.151 475.481 397.463 475.3 396.858 474.938C396.253 474.575 395.775 474.077 395.426 473.442C395.077 472.807 394.902 472.082 394.902 471.268C394.898 470.391 395.1 469.609 395.509 468.923C395.918 468.237 396.489 467.7 397.222 467.312C397.959 466.92 398.816 466.726 399.792 466.73ZM399.811 468.903C399.381 468.903 398.997 469.006 398.66 469.21C398.328 469.415 398.064 469.69 397.868 470.035C397.676 470.38 397.582 470.766 397.586 471.192C397.586 471.622 397.68 472.01 397.868 472.355C398.059 472.696 398.319 472.969 398.648 473.173C398.98 473.374 399.359 473.474 399.785 473.474C400.105 473.474 400.401 473.414 400.674 473.295C400.947 473.175 401.183 473.011 401.383 472.803C401.588 472.589 401.748 472.344 401.863 472.067C401.978 471.79 402.035 471.496 402.035 471.185C402.031 470.772 401.933 470.393 401.741 470.048C401.55 469.702 401.285 469.425 400.949 469.217C400.612 469.008 400.233 468.903 399.811 468.903Z" fill="white"/>
<path d="M461.842 480.179C460.939 480.179 460.134 480.013 459.426 479.68C458.723 479.348 458.165 478.89 457.751 478.306C457.338 477.722 457.123 477.053 457.106 476.299H459.79C459.82 476.806 460.033 477.217 460.43 477.533C460.826 477.848 461.297 478.006 461.842 478.006C462.277 478.006 462.661 477.91 462.993 477.718C463.33 477.522 463.592 477.251 463.779 476.906C463.971 476.557 464.067 476.156 464.067 475.705C464.067 475.244 463.969 474.839 463.773 474.49C463.581 474.141 463.315 473.868 462.974 473.672C462.633 473.476 462.243 473.376 461.804 473.371C461.42 473.371 461.048 473.45 460.685 473.608C460.327 473.766 460.048 473.981 459.848 474.254L457.387 473.812L458.007 466.909H466.01V469.172H460.289L459.95 472.451H460.027C460.257 472.127 460.604 471.859 461.069 471.646C461.533 471.433 462.053 471.326 462.629 471.326C463.417 471.326 464.12 471.511 464.738 471.882C465.356 472.253 465.844 472.762 466.202 473.41C466.56 474.053 466.737 474.795 466.732 475.634C466.737 476.516 466.532 477.3 466.119 477.987C465.71 478.668 465.136 479.205 464.399 479.597C463.666 479.985 462.814 480.179 461.842 480.179ZM473.795 480.288C472.696 480.283 471.75 480.013 470.957 479.476C470.169 478.939 469.562 478.161 469.136 477.143C468.714 476.124 468.505 474.899 468.509 473.467C468.509 472.04 468.72 470.823 469.142 469.817C469.568 468.812 470.175 468.047 470.964 467.523C471.756 466.994 472.7 466.73 473.795 466.73C474.891 466.73 475.832 466.994 476.621 467.523C477.413 468.051 478.023 468.818 478.449 469.824C478.875 470.825 479.086 472.04 479.082 473.467C479.082 474.903 478.869 476.131 478.442 477.149C478.021 478.168 477.415 478.945 476.627 479.482C475.839 480.019 474.895 480.288 473.795 480.288ZM473.795 477.993C474.545 477.993 475.144 477.616 475.592 476.862C476.039 476.107 476.261 474.976 476.256 473.467C476.256 472.474 476.154 471.648 475.95 470.987C475.749 470.327 475.464 469.83 475.093 469.498C474.727 469.165 474.294 468.999 473.795 468.999C473.05 468.999 472.453 469.372 472.006 470.118C471.558 470.864 471.332 471.98 471.328 473.467C471.328 474.473 471.428 475.312 471.629 475.986C471.833 476.655 472.121 477.158 472.491 477.494C472.862 477.827 473.297 477.993 473.795 477.993ZM485.939 480.179C484.954 480.179 484.079 480.019 483.312 479.7C482.549 479.376 481.95 478.935 481.515 478.376C481.081 477.818 480.863 477.185 480.863 476.478C480.863 475.933 480.987 475.432 481.234 474.976C481.486 474.516 481.827 474.134 482.257 473.832C482.687 473.525 483.169 473.329 483.702 473.244V473.154C483.003 473.013 482.436 472.675 482.001 472.138C481.567 471.597 481.349 470.968 481.349 470.252C481.349 469.575 481.547 468.972 481.944 468.443C482.34 467.911 482.883 467.493 483.574 467.19C484.268 466.884 485.057 466.73 485.939 466.73C486.821 466.73 487.607 466.884 488.297 467.19C488.992 467.497 489.537 467.917 489.934 468.45C490.33 468.978 490.53 469.579 490.535 470.252C490.53 470.972 490.309 471.601 489.87 472.138C489.431 472.675 488.868 473.013 488.182 473.154V473.244C488.706 473.329 489.182 473.525 489.608 473.832C490.038 474.134 490.379 474.516 490.631 474.976C490.886 475.432 491.016 475.933 491.02 476.478C491.016 477.185 490.797 477.818 490.362 478.376C489.927 478.935 489.327 479.376 488.559 479.7C487.797 480.019 486.923 480.179 485.939 480.179ZM485.939 478.146C486.378 478.146 486.761 478.067 487.089 477.91C487.417 477.748 487.673 477.526 487.856 477.245C488.044 476.96 488.138 476.631 488.138 476.261C488.138 475.881 488.042 475.547 487.85 475.257C487.658 474.963 487.398 474.733 487.07 474.567C486.742 474.396 486.365 474.311 485.939 474.311C485.517 474.311 485.14 474.396 484.807 474.567C484.475 474.733 484.213 474.963 484.021 475.257C483.834 475.547 483.74 475.881 483.74 476.261C483.74 476.631 483.831 476.96 484.015 477.245C484.198 477.526 484.456 477.748 484.788 477.91C485.121 478.067 485.504 478.146 485.939 478.146ZM485.939 472.298C486.305 472.298 486.631 472.223 486.917 472.074C487.202 471.925 487.426 471.718 487.588 471.454C487.75 471.19 487.831 470.885 487.831 470.54C487.831 470.199 487.75 469.901 487.588 469.645C487.426 469.385 487.204 469.183 486.923 469.038C486.642 468.888 486.314 468.814 485.939 468.814C485.568 468.814 485.24 468.888 484.954 469.038C484.669 469.183 484.445 469.385 484.283 469.645C484.126 469.901 484.047 470.199 484.047 470.54C484.047 470.885 484.128 471.19 484.29 471.454C484.452 471.718 484.675 471.925 484.961 472.074C485.246 472.223 485.572 472.298 485.939 472.298Z" fill="white"/>
<path d="M645.842 480.179C644.939 480.179 644.134 480.013 643.426 479.68C642.723 479.348 642.165 478.89 641.751 478.306C641.338 477.722 641.123 477.053 641.106 476.299H643.79C643.82 476.806 644.033 477.217 644.43 477.533C644.826 477.848 645.297 478.006 645.842 478.006C646.277 478.006 646.661 477.91 646.993 477.718C647.33 477.522 647.592 477.251 647.779 476.906C647.971 476.557 648.067 476.156 648.067 475.705C648.067 475.244 647.969 474.839 647.773 474.49C647.581 474.141 647.315 473.868 646.974 473.672C646.633 473.476 646.243 473.376 645.804 473.371C645.42 473.371 645.048 473.45 644.685 473.608C644.327 473.766 644.048 473.981 643.848 474.254L641.387 473.812L642.007 466.909H650.01V469.172H644.289L643.95 472.451H644.027C644.257 472.127 644.604 471.859 645.069 471.646C645.533 471.433 646.053 471.326 646.629 471.326C647.417 471.326 648.12 471.511 648.738 471.882C649.356 472.253 649.844 472.762 650.202 473.41C650.56 474.053 650.737 474.795 650.732 475.634C650.737 476.516 650.532 477.3 650.119 477.987C649.71 478.668 649.136 479.205 648.399 479.597C647.666 479.985 646.814 480.179 645.842 480.179ZM657.795 480.288C656.696 480.283 655.75 480.013 654.957 479.476C654.169 478.939 653.562 478.161 653.136 477.143C652.714 476.124 652.505 474.899 652.509 473.467C652.509 472.04 652.72 470.823 653.142 469.817C653.568 468.812 654.175 468.047 654.964 467.523C655.756 466.994 656.7 466.73 657.795 466.73C658.891 466.73 659.832 466.994 660.621 467.523C661.413 468.051 662.023 468.818 662.449 469.824C662.875 470.825 663.086 472.04 663.082 473.467C663.082 474.903 662.869 476.131 662.442 477.149C662.021 478.168 661.415 478.945 660.627 479.482C659.839 480.019 658.895 480.288 657.795 480.288ZM657.795 477.993C658.545 477.993 659.144 477.616 659.592 476.862C660.039 476.107 660.261 474.976 660.256 473.467C660.256 472.474 660.154 471.648 659.95 470.987C659.749 470.327 659.464 469.83 659.093 469.498C658.727 469.165 658.294 468.999 657.795 468.999C657.05 468.999 656.453 469.372 656.006 470.118C655.558 470.864 655.332 471.98 655.328 473.467C655.328 474.473 655.428 475.312 655.629 475.986C655.833 476.655 656.121 477.158 656.491 477.494C656.862 477.827 657.297 477.993 657.795 477.993ZM665.221 480L670.648 469.261V469.172H664.327V466.909H673.512V469.204L668.079 480H665.221Z" fill="white"/>
<path d="M813.842 480.179C812.939 480.179 812.134 480.013 811.426 479.68C810.723 479.348 810.165 478.89 809.751 478.306C809.338 477.722 809.123 477.053 809.106 476.299H811.79C811.82 476.806 812.033 477.217 812.43 477.533C812.826 477.848 813.297 478.006 813.842 478.006C814.277 478.006 814.661 477.91 814.993 477.718C815.33 477.522 815.592 477.251 815.779 476.906C815.971 476.557 816.067 476.156 816.067 475.705C816.067 475.244 815.969 474.839 815.773 474.49C815.581 474.141 815.315 473.868 814.974 473.672C814.633 473.476 814.243 473.376 813.804 473.371C813.42 473.371 813.048 473.45 812.685 473.608C812.327 473.766 812.048 473.981 811.848 474.254L809.387 473.812L810.007 466.909H818.01V469.172H812.289L811.95 472.451H812.027C812.257 472.127 812.604 471.859 813.069 471.646C813.533 471.433 814.053 471.326 814.629 471.326C815.417 471.326 816.12 471.511 816.738 471.882C817.356 472.253 817.844 472.762 818.202 473.41C818.56 474.053 818.737 474.795 818.732 475.634C818.737 476.516 818.532 477.3 818.119 477.987C817.71 478.668 817.136 479.205 816.399 479.597C815.666 479.985 814.814 480.179 813.842 480.179ZM825.795 480.288C824.696 480.283 823.75 480.013 822.957 479.476C822.169 478.939 821.562 478.161 821.136 477.143C820.714 476.124 820.505 474.899 820.509 473.467C820.509 472.04 820.72 470.823 821.142 469.817C821.568 468.812 822.175 468.047 822.964 467.523C823.756 466.994 824.7 466.73 825.795 466.73C826.891 466.73 827.832 466.994 828.621 467.523C829.413 468.051 830.023 468.818 830.449 469.824C830.875 470.825 831.086 472.04 831.082 473.467C831.082 474.903 830.869 476.131 830.442 477.149C830.021 478.168 829.415 478.945 828.627 479.482C827.839 480.019 826.895 480.288 825.795 480.288ZM825.795 477.993C826.545 477.993 827.144 477.616 827.592 476.862C828.039 476.107 828.261 474.976 828.256 473.467C828.256 472.474 828.154 471.648 827.95 470.987C827.749 470.327 827.464 469.83 827.093 469.498C826.727 469.165 826.294 468.999 825.795 468.999C825.05 468.999 824.453 469.372 824.006 470.118C823.558 470.864 823.332 471.98 823.328 473.467C823.328 474.473 823.428 475.312 823.629 475.986C823.833 476.655 824.121 477.158 824.491 477.494C824.862 477.827 825.297 477.993 825.795 477.993ZM837.836 480.179C836.933 480.179 836.128 480.013 835.42 479.68C834.717 479.348 834.159 478.89 833.746 478.306C833.332 477.722 833.117 477.053 833.1 476.299H835.785C835.814 476.806 836.028 477.217 836.424 477.533C836.82 477.848 837.291 478.006 837.836 478.006C838.271 478.006 838.655 477.91 838.987 477.718C839.324 477.522 839.586 477.251 839.773 476.906C839.965 476.557 840.061 476.156 840.061 475.705C840.061 475.244 839.963 474.839 839.767 474.49C839.575 474.141 839.309 473.868 838.968 473.672C838.627 473.476 838.237 473.376 837.798 473.371C837.415 473.371 837.042 473.45 836.68 473.608C836.322 473.766 836.042 473.981 835.842 474.254L833.381 473.812L834.001 466.909H842.004V469.172H836.283L835.944 472.451H836.021C836.251 472.127 836.599 471.859 837.063 471.646C837.528 471.433 838.047 471.326 838.623 471.326C839.411 471.326 840.114 471.511 840.732 471.882C841.35 472.253 841.838 472.762 842.196 473.41C842.554 474.053 842.731 474.795 842.726 475.634C842.731 476.516 842.526 477.3 842.113 477.987C841.704 478.668 841.131 479.205 840.393 479.597C839.66 479.985 838.808 480.179 837.836 480.179ZM848.9 480V466.909H854.141C855.104 466.909 855.907 467.052 856.551 467.337C857.194 467.623 857.678 468.019 858.002 468.526C858.326 469.029 858.488 469.609 858.488 470.265C858.488 470.776 858.385 471.226 858.181 471.614C857.976 471.997 857.695 472.312 857.337 472.56C856.983 472.803 856.578 472.975 856.123 473.077V473.205C856.621 473.227 857.088 473.367 857.522 473.627C857.961 473.887 858.317 474.251 858.59 474.72C858.863 475.185 858.999 475.739 858.999 476.382C858.999 477.077 858.826 477.697 858.481 478.242C858.14 478.783 857.635 479.212 856.966 479.527C856.297 479.842 855.473 480 854.493 480H848.9ZM851.667 477.737H853.924C854.695 477.737 855.257 477.59 855.611 477.296C855.965 476.998 856.142 476.602 856.142 476.107C856.142 475.745 856.054 475.425 855.88 475.148C855.705 474.871 855.456 474.654 855.132 474.496C854.812 474.339 854.431 474.26 853.988 474.26H851.667V477.737ZM851.667 472.387H853.719C854.098 472.387 854.435 472.321 854.729 472.189C855.027 472.053 855.262 471.861 855.432 471.614C855.607 471.366 855.694 471.07 855.694 470.725C855.694 470.252 855.526 469.871 855.189 469.581C854.857 469.291 854.384 469.146 853.77 469.146H851.667V472.387Z" fill="white"/>
<path d="M916.842 480.179C915.939 480.179 915.134 480.013 914.426 479.68C913.723 479.348 913.165 478.89 912.751 478.306C912.338 477.722 912.123 477.053 912.106 476.299H914.79C914.82 476.806 915.033 477.217 915.43 477.533C915.826 477.848 916.297 478.006 916.842 478.006C917.277 478.006 917.661 477.91 917.993 477.718C918.33 477.522 918.592 477.251 918.779 476.906C918.971 476.557 919.067 476.156 919.067 475.705C919.067 475.244 918.969 474.839 918.773 474.49C918.581 474.141 918.315 473.868 917.974 473.672C917.633 473.476 917.243 473.376 916.804 473.371C916.42 473.371 916.048 473.45 915.685 473.608C915.327 473.766 915.048 473.981 914.848 474.254L912.387 473.812L913.007 466.909H921.01V469.172H915.289L914.95 472.451H915.027C915.257 472.127 915.604 471.859 916.069 471.646C916.533 471.433 917.053 471.326 917.629 471.326C918.417 471.326 919.12 471.511 919.738 471.882C920.356 472.253 920.844 472.762 921.202 473.41C921.56 474.053 921.737 474.795 921.732 475.634C921.737 476.516 921.532 477.3 921.119 477.987C920.71 478.668 920.136 479.205 919.399 479.597C918.666 479.985 917.814 480.179 916.842 480.179ZM928.795 480.288C927.696 480.283 926.75 480.013 925.957 479.476C925.169 478.939 924.562 478.161 924.136 477.143C923.714 476.124 923.505 474.899 923.509 473.467C923.509 472.04 923.72 470.823 924.142 469.817C924.568 468.812 925.175 468.047 925.964 467.523C926.756 466.994 927.7 466.73 928.795 466.73C929.891 466.73 930.832 466.994 931.621 467.523C932.413 468.051 933.023 468.818 933.449 469.824C933.875 470.825 934.086 472.04 934.082 473.467C934.082 474.903 933.869 476.131 933.442 477.149C933.021 478.168 932.415 478.945 931.627 479.482C930.839 480.019 929.895 480.288 928.795 480.288ZM928.795 477.993C929.545 477.993 930.144 477.616 930.592 476.862C931.039 476.107 931.261 474.976 931.256 473.467C931.256 472.474 931.154 471.648 930.95 470.987C930.749 470.327 930.464 469.83 930.093 469.498C929.727 469.165 929.294 468.999 928.795 468.999C928.05 468.999 927.453 469.372 927.006 470.118C926.558 470.864 926.332 471.98 926.328 473.467C926.328 474.473 926.428 475.312 926.629 475.986C926.833 476.655 927.121 477.158 927.491 477.494C927.862 477.827 928.297 477.993 928.795 477.993ZM940.836 480.179C939.933 480.179 939.128 480.013 938.42 479.68C937.717 479.348 937.159 478.89 936.746 478.306C936.332 477.722 936.117 477.053 936.1 476.299H938.785C938.814 476.806 939.028 477.217 939.424 477.533C939.82 477.848 940.291 478.006 940.836 478.006C941.271 478.006 941.655 477.91 941.987 477.718C942.324 477.522 942.586 477.251 942.773 476.906C942.965 476.557 943.061 476.156 943.061 475.705C943.061 475.244 942.963 474.839 942.767 474.49C942.575 474.141 942.309 473.868 941.968 473.672C941.627 473.476 941.237 473.376 940.798 473.371C940.415 473.371 940.042 473.45 939.68 473.608C939.322 473.766 939.042 473.981 938.842 474.254L936.381 473.812L937.001 466.909H945.004V469.172H939.283L938.944 472.451H939.021C939.251 472.127 939.599 471.859 940.063 471.646C940.528 471.433 941.047 471.326 941.623 471.326C942.411 471.326 943.114 471.511 943.732 471.882C944.35 472.253 944.838 472.762 945.196 473.41C945.554 474.053 945.731 474.795 945.726 475.634C945.731 476.516 945.526 477.3 945.113 477.987C944.704 478.668 944.131 479.205 943.393 479.597C942.66 479.985 941.808 480.179 940.836 480.179ZM951.9 480V466.909H960.586V469.191H954.667V471.748H956.796C957.831 471.748 958.724 471.916 959.474 472.253C960.228 472.585 960.81 473.056 961.219 473.665C961.628 474.275 961.833 474.993 961.833 475.82C961.833 476.642 961.628 477.369 961.219 477.999C960.81 478.626 960.228 479.116 959.474 479.469C958.724 479.823 957.831 480 956.796 480H951.9ZM954.667 477.776H956.796C957.29 477.776 957.708 477.686 958.049 477.507C958.39 477.324 958.647 477.083 958.822 476.785C959.001 476.482 959.091 476.152 959.091 475.794C959.091 475.274 958.892 474.835 958.496 474.477C958.104 474.115 957.537 473.934 956.796 473.934H954.667V477.776Z" fill="white"/>
<path d="M1486.82 365.842C1486.82 364.939 1486.99 364.134 1487.32 363.426C1487.65 362.723 1488.11 362.165 1488.69 361.751C1489.28 361.338 1489.95 361.123 1490.7 361.106L1490.7 363.79C1490.19 363.82 1489.78 364.033 1489.47 364.43C1489.15 364.826 1488.99 365.297 1488.99 365.842C1488.99 366.277 1489.09 366.661 1489.28 366.993C1489.48 367.33 1489.75 367.592 1490.09 367.779C1490.44 367.971 1490.84 368.067 1491.3 368.067C1491.76 368.067 1492.16 367.969 1492.51 367.773C1492.86 367.581 1493.13 367.315 1493.33 366.974C1493.52 366.633 1493.62 366.243 1493.63 365.804C1493.63 365.42 1493.55 365.048 1493.39 364.685C1493.23 364.327 1493.02 364.048 1492.75 363.848L1493.19 361.387L1500.09 362.007L1500.09 370.01L1497.83 370.01L1497.83 364.289L1494.55 363.95L1494.55 364.027C1494.87 364.257 1495.14 364.604 1495.35 365.069C1495.57 365.533 1495.67 366.053 1495.67 366.629C1495.67 367.417 1495.49 368.12 1495.12 368.738C1494.75 369.356 1494.24 369.844 1493.59 370.202C1492.95 370.56 1492.21 370.737 1491.37 370.732C1490.48 370.737 1489.7 370.532 1489.01 370.119C1488.33 369.71 1487.79 369.136 1487.4 368.399C1487.01 367.666 1486.82 366.814 1486.82 365.842ZM1486.71 377.795C1486.72 376.696 1486.99 375.75 1487.52 374.957C1488.06 374.169 1488.84 373.562 1489.86 373.136C1490.88 372.714 1492.1 372.505 1493.53 372.509C1494.96 372.509 1496.18 372.72 1497.18 373.142C1498.19 373.568 1498.95 374.175 1499.48 374.964C1500.01 375.756 1500.27 376.7 1500.27 377.795C1500.27 378.891 1500.01 379.832 1499.48 380.621C1498.95 381.413 1498.18 382.023 1497.18 382.449C1496.17 382.875 1494.96 383.086 1493.53 383.082C1492.1 383.082 1490.87 382.869 1489.85 382.442C1488.83 382.021 1488.05 381.415 1487.52 380.627C1486.98 379.839 1486.71 378.895 1486.71 377.795ZM1489.01 377.795C1489.01 378.545 1489.38 379.144 1490.14 379.592C1490.89 380.039 1492.02 380.261 1493.53 380.256C1494.53 380.256 1495.35 380.154 1496.01 379.95C1496.67 379.749 1497.17 379.464 1497.5 379.093C1497.83 378.727 1498 378.294 1498 377.795C1498 377.05 1497.63 376.453 1496.88 376.006C1496.14 375.558 1495.02 375.332 1493.53 375.328C1492.53 375.328 1491.69 375.428 1491.01 375.629C1490.35 375.833 1489.84 376.121 1489.51 376.491C1489.17 376.862 1489.01 377.297 1489.01 377.795ZM1500.09 390.751L1487 390.751L1487 387.983L1497.46 387.983L1497.46 387.906L1495.58 384.908L1498.04 384.908L1500.09 388.149L1500.09 390.751ZM1487 400.361L1487 397.395L1500.09 401.914L1500.09 405.481L1487 409.994L1487 407.028L1497.1 403.749L1497.1 403.646L1487 400.361ZM1492.15 400.176L1492.15 407.181L1489.99 407.181L1489.99 400.176L1492.15 400.176Z" fill="white"/>
<path d="M1486.82 200.842C1486.82 199.939 1486.99 199.134 1487.32 198.426C1487.65 197.723 1488.11 197.165 1488.69 196.751C1489.28 196.338 1489.95 196.123 1490.7 196.106L1490.7 198.79C1490.19 198.82 1489.78 199.033 1489.47 199.43C1489.15 199.826 1488.99 200.297 1488.99 200.842C1488.99 201.277 1489.09 201.661 1489.28 201.993C1489.48 202.33 1489.75 202.592 1490.09 202.779C1490.44 202.971 1490.84 203.067 1491.3 203.067C1491.76 203.067 1492.16 202.969 1492.51 202.773C1492.86 202.581 1493.13 202.315 1493.33 201.974C1493.52 201.633 1493.62 201.243 1493.63 200.804C1493.63 200.42 1493.55 200.048 1493.39 199.685C1493.23 199.327 1493.02 199.048 1492.75 198.848L1493.19 196.387L1500.09 197.007L1500.09 205.01L1497.83 205.01L1497.83 199.289L1494.55 198.95L1494.55 199.027C1494.87 199.257 1495.14 199.604 1495.35 200.069C1495.57 200.533 1495.67 201.053 1495.67 201.629C1495.67 202.417 1495.49 203.12 1495.12 203.738C1494.75 204.356 1494.24 204.844 1493.59 205.202C1492.95 205.56 1492.21 205.737 1491.37 205.732C1490.48 205.737 1489.7 205.532 1489.01 205.119C1488.33 204.71 1487.79 204.136 1487.4 203.399C1487.01 202.666 1486.82 201.814 1486.82 200.842ZM1486.71 212.795C1486.72 211.696 1486.99 210.75 1487.52 209.957C1488.06 209.169 1488.84 208.562 1489.86 208.136C1490.88 207.714 1492.1 207.505 1493.53 207.509C1494.96 207.509 1496.18 207.72 1497.18 208.142C1498.19 208.568 1498.95 209.175 1499.48 209.964C1500.01 210.756 1500.27 211.7 1500.27 212.795C1500.27 213.891 1500.01 214.832 1499.48 215.621C1498.95 216.413 1498.18 217.023 1497.18 217.449C1496.17 217.875 1494.96 218.086 1493.53 218.082C1492.1 218.082 1490.87 217.869 1489.85 217.442C1488.83 217.021 1488.05 216.415 1487.52 215.627C1486.98 214.839 1486.71 213.895 1486.71 212.795ZM1489.01 212.795C1489.01 213.545 1489.38 214.144 1490.14 214.592C1490.89 215.039 1492.02 215.261 1493.53 215.256C1494.53 215.256 1495.35 215.154 1496.01 214.95C1496.67 214.749 1497.17 214.464 1497.5 214.093C1497.83 213.727 1498 213.294 1498 212.795C1498 212.05 1497.63 211.453 1496.88 211.006C1496.14 210.558 1495.02 210.332 1493.53 210.328C1492.53 210.328 1491.69 210.428 1491.01 210.629C1490.35 210.833 1489.84 211.121 1489.51 211.491C1489.17 211.862 1489.01 212.297 1489.01 212.795ZM1500.09 225.751L1487 225.751L1487 222.983L1497.46 222.983L1497.46 222.906L1495.58 219.908L1498.04 219.908L1500.09 223.149L1500.09 225.751Z" fill="white"/>
<path d="M1486.82 58.8423C1486.82 57.9389 1486.99 57.1335 1487.32 56.4261C1487.65 55.723 1488.11 55.1648 1488.69 54.7514C1489.28 54.3381 1489.95 54.1229 1490.7 54.1058L1490.7 56.7905C1490.19 56.8203 1489.78 57.0334 1489.47 57.4297C1489.15 57.826 1488.99 58.2969 1488.99 58.8423C1488.99 59.277 1489.09 59.6605 1489.28 59.9929C1489.48 60.3295 1489.75 60.5916 1490.09 60.7791C1490.44 60.9709 1490.84 61.0668 1491.3 61.0668C1491.76 61.0668 1492.16 60.9687 1492.51 60.7727C1492.86 60.581 1493.13 60.3146 1493.33 59.9737C1493.52 59.6328 1493.62 59.2429 1493.63 58.804C1493.63 58.4205 1493.55 58.0476 1493.39 57.6854C1493.23 57.3274 1493.02 57.0483 1492.75 56.848L1493.19 54.3871L1500.09 55.0071L1500.09 63.0099L1497.83 63.0099L1497.83 57.2891L1494.55 56.9503L1494.55 57.027C1494.87 57.2571 1495.14 57.6044 1495.35 58.0689C1495.57 58.5334 1495.67 59.0533 1495.67 59.6286C1495.67 60.4169 1495.49 61.12 1495.12 61.7379C1494.75 62.3558 1494.24 62.8437 1493.59 63.2017C1492.95 63.5597 1492.21 63.7365 1491.37 63.7322C1490.48 63.7365 1489.7 63.532 1489.01 63.1186C1488.33 62.7095 1487.79 62.1364 1487.4 61.3991C1487.01 60.6662 1486.82 59.8139 1486.82 58.8423ZM1486.71 70.7955C1486.72 69.696 1486.99 68.75 1487.52 67.9574C1488.06 67.169 1488.84 66.5618 1489.86 66.1357C1490.88 65.7138 1492.1 65.505 1493.53 65.5092C1494.96 65.5092 1496.18 65.7202 1497.18 66.142C1498.19 66.5682 1498.95 67.1754 1499.48 67.9638C1500.01 68.7564 1500.27 69.7003 1500.27 70.7955C1500.27 71.8906 1500.01 72.8324 1499.48 73.6207C1498.95 74.4134 1498.18 75.0227 1497.18 75.4489C1496.17 75.875 1494.96 76.0859 1493.53 76.0817C1492.1 76.0817 1490.87 75.8686 1489.85 75.4425C1488.83 75.0206 1488.05 74.4155 1487.52 73.6271C1486.98 72.8388 1486.71 71.8949 1486.71 70.7955ZM1489.01 70.7955C1489.01 71.5455 1489.38 72.1442 1490.14 72.5916C1490.89 73.0391 1492.02 73.2607 1493.53 73.2564C1494.53 73.2564 1495.35 73.1541 1496.01 72.9496C1496.67 72.7493 1497.17 72.4638 1497.5 72.093C1497.83 71.7266 1498 71.294 1498 70.7955C1498 70.0497 1497.63 69.4531 1496.88 69.0057C1496.14 68.5582 1495.02 68.3324 1493.53 68.3281C1492.53 68.3281 1491.69 68.4283 1491.01 68.6286C1490.35 68.8331 1489.84 69.1207 1489.51 69.4915C1489.17 69.8622 1489.01 70.2969 1489.01 70.7955ZM1500.09 83.7505L1487 83.7505L1487 80.9828L1497.46 80.9828L1497.46 80.9061L1495.58 77.9082L1498.04 77.9082L1500.09 81.149L1500.09 83.7505ZM1487 91.1046L1500.09 91.1046L1500.09 99.7914L1497.81 99.7914L1497.81 93.8723L1495.25 93.8723L1495.25 96.0009C1495.25 97.0364 1495.08 97.9292 1494.75 98.6792C1494.41 99.4334 1493.94 100.015 1493.33 100.424C1492.73 100.833 1492.01 101.038 1491.18 101.038C1490.36 101.038 1489.63 100.833 1489 100.424C1488.37 100.015 1487.88 99.4334 1487.53 98.6792C1487.18 97.9292 1487 97.0364 1487 96.0009L1487 91.1046ZM1489.22 93.8723L1489.22 96.0009C1489.22 96.4952 1489.31 96.9128 1489.49 97.2537C1489.68 97.5946 1489.92 97.8524 1490.22 98.0272C1490.52 98.2061 1490.85 98.2956 1491.21 98.2956C1491.73 98.2956 1492.16 98.0975 1492.52 97.7012C1492.88 97.3091 1493.07 96.7424 1493.07 96.0009L1493.07 93.8723L1489.22 93.8723Z" fill="white"/>
<path d="M1036.84 480.179C1035.94 480.179 1035.13 480.013 1034.43 479.68C1033.72 479.348 1033.16 478.89 1032.75 478.306C1032.34 477.722 1032.12 477.053 1032.11 476.299H1034.79C1034.82 476.806 1035.03 477.217 1035.43 477.533C1035.83 477.848 1036.3 478.006 1036.84 478.006C1037.28 478.006 1037.66 477.91 1037.99 477.718C1038.33 477.522 1038.59 477.251 1038.78 476.906C1038.97 476.557 1039.07 476.156 1039.07 475.705C1039.07 475.244 1038.97 474.839 1038.77 474.49C1038.58 474.141 1038.31 473.868 1037.97 473.672C1037.63 473.476 1037.24 473.376 1036.8 473.371C1036.42 473.371 1036.05 473.45 1035.69 473.608C1035.33 473.766 1035.05 473.981 1034.85 474.254L1032.39 473.812L1033.01 466.909H1041.01V469.172H1035.29L1034.95 472.451H1035.03C1035.26 472.127 1035.6 471.859 1036.07 471.646C1036.53 471.433 1037.05 471.326 1037.63 471.326C1038.42 471.326 1039.12 471.511 1039.74 471.882C1040.36 472.253 1040.84 472.762 1041.2 473.41C1041.56 474.053 1041.74 474.795 1041.73 475.634C1041.74 476.516 1041.53 477.3 1041.12 477.987C1040.71 478.668 1040.14 479.205 1039.4 479.597C1038.67 479.985 1037.81 480.179 1036.84 480.179ZM1048.8 480.288C1047.7 480.283 1046.75 480.013 1045.96 479.476C1045.17 478.939 1044.56 478.161 1044.14 477.143C1043.71 476.124 1043.5 474.899 1043.51 473.467C1043.51 472.04 1043.72 470.823 1044.14 469.817C1044.57 468.812 1045.18 468.047 1045.96 467.523C1046.76 466.994 1047.7 466.73 1048.8 466.73C1049.89 466.73 1050.83 466.994 1051.62 467.523C1052.41 468.051 1053.02 468.818 1053.45 469.824C1053.88 470.825 1054.09 472.04 1054.08 473.467C1054.08 474.903 1053.87 476.131 1053.44 477.149C1053.02 478.168 1052.42 478.945 1051.63 479.482C1050.84 480.019 1049.89 480.288 1048.8 480.288ZM1048.8 477.993C1049.55 477.993 1050.14 477.616 1050.59 476.862C1051.04 476.107 1051.26 474.976 1051.26 473.467C1051.26 472.474 1051.15 471.648 1050.95 470.987C1050.75 470.327 1050.46 469.83 1050.09 469.498C1049.73 469.165 1049.29 468.999 1048.8 468.999C1048.05 468.999 1047.45 469.372 1047.01 470.118C1046.56 470.864 1046.33 471.98 1046.33 473.467C1046.33 474.473 1046.43 475.312 1046.63 475.986C1046.83 476.655 1047.12 477.158 1047.49 477.494C1047.86 477.827 1048.3 477.993 1048.8 477.993ZM1055.86 477.699V475.519L1061.32 466.909H1063.2V469.926H1062.09L1058.64 475.379V475.481H1066.41V477.699H1055.86ZM1062.14 480V477.034L1062.19 476.069V466.909H1064.79V480H1062.14Z" fill="white"/>
<path d="M1117.84 480.179C1116.94 480.179 1116.13 480.013 1115.43 479.68C1114.72 479.348 1114.16 478.89 1113.75 478.306C1113.34 477.722 1113.12 477.053 1113.11 476.299H1115.79C1115.82 476.806 1116.03 477.217 1116.43 477.533C1116.83 477.848 1117.3 478.006 1117.84 478.006C1118.28 478.006 1118.66 477.91 1118.99 477.718C1119.33 477.522 1119.59 477.251 1119.78 476.906C1119.97 476.557 1120.07 476.156 1120.07 475.705C1120.07 475.244 1119.97 474.839 1119.77 474.49C1119.58 474.141 1119.31 473.868 1118.97 473.672C1118.63 473.476 1118.24 473.376 1117.8 473.371C1117.42 473.371 1117.05 473.45 1116.69 473.608C1116.33 473.766 1116.05 473.981 1115.85 474.254L1113.39 473.812L1114.01 466.909H1122.01V469.172H1116.29L1115.95 472.451H1116.03C1116.26 472.127 1116.6 471.859 1117.07 471.646C1117.53 471.433 1118.05 471.326 1118.63 471.326C1119.42 471.326 1120.12 471.511 1120.74 471.882C1121.36 472.253 1121.84 472.762 1122.2 473.41C1122.56 474.053 1122.74 474.795 1122.73 475.634C1122.74 476.516 1122.53 477.3 1122.12 477.987C1121.71 478.668 1121.14 479.205 1120.4 479.597C1119.67 479.985 1118.81 480.179 1117.84 480.179ZM1129.8 480.288C1128.7 480.283 1127.75 480.013 1126.96 479.476C1126.17 478.939 1125.56 478.161 1125.14 477.143C1124.71 476.124 1124.5 474.899 1124.51 473.467C1124.51 472.04 1124.72 470.823 1125.14 469.817C1125.57 468.812 1126.18 468.047 1126.96 467.523C1127.76 466.994 1128.7 466.73 1129.8 466.73C1130.89 466.73 1131.83 466.994 1132.62 467.523C1133.41 468.051 1134.02 468.818 1134.45 469.824C1134.88 470.825 1135.09 472.04 1135.08 473.467C1135.08 474.903 1134.87 476.131 1134.44 477.149C1134.02 478.168 1133.42 478.945 1132.63 479.482C1131.84 480.019 1130.89 480.288 1129.8 480.288ZM1129.8 477.993C1130.55 477.993 1131.14 477.616 1131.59 476.862C1132.04 476.107 1132.26 474.976 1132.26 473.467C1132.26 472.474 1132.15 471.648 1131.95 470.987C1131.75 470.327 1131.46 469.83 1131.09 469.498C1130.73 469.165 1130.29 468.999 1129.8 468.999C1129.05 468.999 1128.45 469.372 1128.01 470.118C1127.56 470.864 1127.33 471.98 1127.33 473.467C1127.33 474.473 1127.43 475.312 1127.63 475.986C1127.83 476.655 1128.12 477.158 1128.49 477.494C1128.86 477.827 1129.3 477.993 1129.8 477.993ZM1141.89 480.179C1140.94 480.179 1140.09 480.015 1139.34 479.687C1138.6 479.354 1138.02 478.898 1137.59 478.319C1137.16 477.735 1136.94 477.062 1136.93 476.299H1139.71C1139.73 476.619 1139.84 476.9 1140.03 477.143C1140.22 477.381 1140.48 477.567 1140.81 477.699C1141.13 477.831 1141.5 477.897 1141.9 477.897C1142.32 477.897 1142.7 477.822 1143.02 477.673C1143.34 477.524 1143.6 477.317 1143.78 477.053C1143.96 476.789 1144.05 476.484 1144.05 476.139C1144.05 475.79 1143.96 475.481 1143.76 475.212C1143.57 474.94 1143.29 474.727 1142.93 474.573C1142.57 474.42 1142.15 474.343 1141.65 474.343H1140.43V472.31H1141.65C1142.07 472.31 1142.44 472.238 1142.76 472.093C1143.08 471.948 1143.33 471.748 1143.51 471.492C1143.69 471.232 1143.78 470.93 1143.78 470.585C1143.78 470.256 1143.7 469.969 1143.54 469.722C1143.39 469.47 1143.17 469.274 1142.89 469.134C1142.61 468.993 1142.29 468.923 1141.92 468.923C1141.54 468.923 1141.2 468.991 1140.89 469.127C1140.58 469.259 1140.33 469.449 1140.14 469.696C1139.96 469.943 1139.85 470.233 1139.84 470.565H1137.19C1137.2 469.811 1137.42 469.146 1137.84 468.571C1138.25 467.996 1138.82 467.546 1139.52 467.222C1140.23 466.894 1141.04 466.73 1141.93 466.73C1142.84 466.73 1143.63 466.894 1144.3 467.222C1144.98 467.55 1145.51 467.994 1145.88 468.552C1146.26 469.106 1146.45 469.728 1146.45 470.418C1146.45 471.151 1146.22 471.763 1145.76 472.253C1145.31 472.743 1144.71 473.054 1143.98 473.186V473.288C1144.94 473.412 1145.67 473.746 1146.18 474.292C1146.68 474.833 1146.94 475.511 1146.93 476.325C1146.94 477.07 1146.72 477.733 1146.29 478.312C1145.85 478.892 1145.26 479.348 1144.5 479.68C1143.74 480.013 1142.87 480.179 1141.89 480.179Z" fill="white"/>
<path d="M1195.84 480.179C1194.94 480.179 1194.13 480.013 1193.43 479.68C1192.72 479.348 1192.16 478.89 1191.75 478.306C1191.34 477.722 1191.12 477.053 1191.11 476.299H1193.79C1193.82 476.806 1194.03 477.217 1194.43 477.533C1194.83 477.848 1195.3 478.006 1195.84 478.006C1196.28 478.006 1196.66 477.91 1196.99 477.718C1197.33 477.522 1197.59 477.251 1197.78 476.906C1197.97 476.557 1198.07 476.156 1198.07 475.705C1198.07 475.244 1197.97 474.839 1197.77 474.49C1197.58 474.141 1197.31 473.868 1196.97 473.672C1196.63 473.476 1196.24 473.376 1195.8 473.371C1195.42 473.371 1195.05 473.45 1194.69 473.608C1194.33 473.766 1194.05 473.981 1193.85 474.254L1191.39 473.812L1192.01 466.909H1200.01V469.172H1194.29L1193.95 472.451H1194.03C1194.26 472.127 1194.6 471.859 1195.07 471.646C1195.53 471.433 1196.05 471.326 1196.63 471.326C1197.42 471.326 1198.12 471.511 1198.74 471.882C1199.36 472.253 1199.84 472.762 1200.2 473.41C1200.56 474.053 1200.74 474.795 1200.73 475.634C1200.74 476.516 1200.53 477.3 1200.12 477.987C1199.71 478.668 1199.14 479.205 1198.4 479.597C1197.67 479.985 1196.81 480.179 1195.84 480.179ZM1207.8 480.288C1206.7 480.283 1205.75 480.013 1204.96 479.476C1204.17 478.939 1203.56 478.161 1203.14 477.143C1202.71 476.124 1202.5 474.899 1202.51 473.467C1202.51 472.04 1202.72 470.823 1203.14 469.817C1203.57 468.812 1204.18 468.047 1204.96 467.523C1205.76 466.994 1206.7 466.73 1207.8 466.73C1208.89 466.73 1209.83 466.994 1210.62 467.523C1211.41 468.051 1212.02 468.818 1212.45 469.824C1212.88 470.825 1213.09 472.04 1213.08 473.467C1213.08 474.903 1212.87 476.131 1212.44 477.149C1212.02 478.168 1211.42 478.945 1210.63 479.482C1209.84 480.019 1208.89 480.288 1207.8 480.288ZM1207.8 477.993C1208.55 477.993 1209.14 477.616 1209.59 476.862C1210.04 476.107 1210.26 474.976 1210.26 473.467C1210.26 472.474 1210.15 471.648 1209.95 470.987C1209.75 470.327 1209.46 469.83 1209.09 469.498C1208.73 469.165 1208.29 468.999 1207.8 468.999C1207.05 468.999 1206.45 469.372 1206.01 470.118C1205.56 470.864 1205.33 471.98 1205.33 473.467C1205.33 474.473 1205.43 475.312 1205.63 475.986C1205.83 476.655 1206.12 477.158 1206.49 477.494C1206.86 477.827 1207.3 477.993 1207.8 477.993ZM1215.06 480V478.006L1219.72 473.691C1220.11 473.308 1220.44 472.962 1220.71 472.656C1220.98 472.349 1221.19 472.048 1221.33 471.754C1221.47 471.456 1221.54 471.134 1221.54 470.789C1221.54 470.406 1221.46 470.075 1221.28 469.798C1221.11 469.517 1220.87 469.302 1220.57 469.153C1220.26 468.999 1219.92 468.923 1219.54 468.923C1219.14 468.923 1218.79 469.004 1218.49 469.165C1218.19 469.327 1217.96 469.56 1217.8 469.862C1217.64 470.165 1217.55 470.525 1217.55 470.942H1214.93C1214.93 470.086 1215.12 469.342 1215.51 468.712C1215.9 468.081 1216.44 467.593 1217.14 467.248C1217.84 466.903 1218.64 466.73 1219.56 466.73C1220.49 466.73 1221.31 466.896 1222 467.229C1222.7 467.557 1223.25 468.013 1223.63 468.597C1224.02 469.18 1224.22 469.849 1224.22 470.604C1224.22 471.098 1224.12 471.586 1223.92 472.067C1223.73 472.549 1223.39 473.084 1222.89 473.672C1222.4 474.256 1221.7 474.957 1220.8 475.775L1218.89 477.648V477.737H1224.39V480H1215.06Z" fill="white"/>
<path d="M988.821 288.842C988.821 287.939 988.987 287.134 989.32 286.426C989.652 285.723 990.11 285.165 990.694 284.751C991.278 284.338 991.947 284.123 992.701 284.106L992.701 286.79C992.194 286.82 991.783 287.033 991.467 287.43C991.152 287.826 990.994 288.297 990.994 288.842C990.994 289.277 991.09 289.661 991.282 289.993C991.478 290.33 991.749 290.592 992.094 290.779C992.443 290.971 992.844 291.067 993.295 291.067C993.756 291.067 994.161 290.969 994.51 290.773C994.859 290.581 995.132 290.315 995.328 289.974C995.524 289.633 995.624 289.243 995.629 288.804C995.629 288.42 995.55 288.048 995.392 287.685C995.234 287.327 995.019 287.048 994.746 286.848L995.187 284.387L1002.09 285.007L1002.09 293.01L999.828 293.01L999.828 287.289L996.549 286.95L996.549 287.027C996.873 287.257 997.141 287.604 997.354 288.069C997.567 288.533 997.674 289.053 997.674 289.629C997.674 290.417 997.489 291.12 997.118 291.738C996.747 292.356 996.238 292.844 995.59 293.202C994.947 293.56 994.205 293.737 993.366 293.732C992.484 293.737 991.7 293.532 991.013 293.119C990.332 292.71 989.795 292.136 989.403 291.399C989.015 290.666 988.821 289.814 988.821 288.842ZM988.712 300.795C988.717 299.696 988.987 298.75 989.524 297.957C990.061 297.169 990.839 296.562 991.857 296.136C992.876 295.714 994.101 295.505 995.533 295.509C996.96 295.509 998.177 295.72 999.183 296.142C1000.19 296.568 1000.95 297.175 1001.48 297.964C1002.01 298.756 1002.27 299.7 1002.27 300.795C1002.27 301.891 1002.01 302.832 1001.48 303.621C1000.95 304.413 1000.18 305.023 999.176 305.449C998.175 305.875 996.96 306.086 995.533 306.082C994.097 306.082 992.869 305.869 991.851 305.442C990.832 305.021 990.055 304.415 989.518 303.627C988.981 302.839 988.712 301.895 988.712 300.795ZM991.007 300.795C991.007 301.545 991.384 302.144 992.138 302.592C992.893 303.039 994.024 303.261 995.533 303.256C996.526 303.256 997.352 303.154 998.013 302.95C998.673 302.749 999.17 302.464 999.502 302.093C999.835 301.727 1000 301.294 1000 300.795C1000 300.05 999.628 299.453 998.882 299.006C998.136 298.558 997.02 298.332 995.533 298.328C994.527 298.328 993.687 298.428 993.014 298.629C992.345 298.833 991.842 299.121 991.506 299.491C991.173 299.862 991.007 300.297 991.007 300.795ZM988.821 312.836C988.821 311.933 988.987 311.128 989.32 310.42C989.652 309.717 990.11 309.159 990.694 308.746C991.278 308.332 991.947 308.117 992.701 308.1L992.701 310.785C992.194 310.814 991.783 311.028 991.467 311.424C991.152 311.82 990.994 312.291 990.994 312.836C990.994 313.271 991.09 313.655 991.282 313.987C991.478 314.324 991.749 314.586 992.094 314.773C992.443 314.965 992.844 315.061 993.295 315.061C993.756 315.061 994.161 314.963 994.51 314.767C994.859 314.575 995.132 314.309 995.328 313.968C995.524 313.627 995.624 313.237 995.629 312.798C995.629 312.415 995.55 312.042 995.392 311.68C995.234 311.322 995.019 311.042 994.746 310.842L995.187 308.381L1002.09 309.001L1002.09 317.004L999.828 317.004L999.828 311.283L996.549 310.944L996.549 311.021C996.873 311.251 997.141 311.599 997.354 312.063C997.567 312.528 997.674 313.047 997.674 313.623C997.674 314.411 997.489 315.114 997.118 315.732C996.747 316.35 996.238 316.838 995.59 317.196C994.947 317.554 994.205 317.731 993.366 317.726C992.484 317.731 991.7 317.526 991.013 317.113C990.332 316.704 989.795 316.131 989.403 315.393C989.015 314.66 988.821 313.808 988.821 312.836ZM989 326.156L989 323.19L1002.09 327.709L1002.09 331.276L989 335.789L989 332.823L999.099 329.544L999.099 329.441L989 326.156ZM994.146 325.971L994.146 332.976L991.985 332.976L991.985 325.971L994.146 325.971Z" fill="white"/>
<path d="M736.842 480.179C735.939 480.179 735.134 480.013 734.426 479.68C733.723 479.348 733.165 478.89 732.751 478.306C732.338 477.722 732.123 477.053 732.106 476.299H734.79C734.82 476.806 735.033 477.217 735.43 477.533C735.826 477.848 736.297 478.006 736.842 478.006C737.277 478.006 737.661 477.91 737.993 477.718C738.33 477.522 738.592 477.251 738.779 476.906C738.971 476.557 739.067 476.156 739.067 475.705C739.067 475.244 738.969 474.839 738.773 474.49C738.581 474.141 738.315 473.868 737.974 473.672C737.633 473.476 737.243 473.376 736.804 473.371C736.42 473.371 736.048 473.45 735.685 473.608C735.327 473.766 735.048 473.981 734.848 474.254L732.387 473.812L733.007 466.909H741.01V469.172H735.289L734.95 472.451H735.027C735.257 472.127 735.604 471.859 736.069 471.646C736.533 471.433 737.053 471.326 737.629 471.326C738.417 471.326 739.12 471.511 739.738 471.882C740.356 472.253 740.844 472.762 741.202 473.41C741.56 474.053 741.737 474.795 741.732 475.634C741.737 476.516 741.532 477.3 741.119 477.987C740.71 478.668 740.136 479.205 739.399 479.597C738.666 479.985 737.814 480.179 736.842 480.179ZM748.795 480.288C747.696 480.283 746.75 480.013 745.957 479.476C745.169 478.939 744.562 478.161 744.136 477.143C743.714 476.124 743.505 474.899 743.509 473.467C743.509 472.04 743.72 470.823 744.142 469.817C744.568 468.812 745.175 468.047 745.964 467.523C746.756 466.994 747.7 466.73 748.795 466.73C749.891 466.73 750.832 466.994 751.621 467.523C752.413 468.051 753.023 468.818 753.449 469.824C753.875 470.825 754.086 472.04 754.082 473.467C754.082 474.903 753.869 476.131 753.442 477.149C753.021 478.168 752.415 478.945 751.627 479.482C750.839 480.019 749.895 480.288 748.795 480.288ZM748.795 477.993C749.545 477.993 750.144 477.616 750.592 476.862C751.039 476.107 751.261 474.976 751.256 473.467C751.256 472.474 751.154 471.648 750.95 470.987C750.749 470.327 750.464 469.83 750.093 469.498C749.727 469.165 749.294 468.999 748.795 468.999C748.05 468.999 747.453 469.372 747.006 470.118C746.558 470.864 746.332 471.98 746.328 473.467C746.328 474.473 746.428 475.312 746.629 475.986C746.833 476.655 747.121 477.158 747.491 477.494C747.862 477.827 748.297 477.993 748.795 477.993ZM761.079 480.179C760.406 480.175 759.756 480.062 759.13 479.84C758.508 479.619 757.949 479.259 757.455 478.76C756.961 478.261 756.569 477.601 756.279 476.778C755.993 475.956 755.851 474.946 755.851 473.749C755.855 472.649 755.981 471.667 756.228 470.802C756.479 469.933 756.837 469.195 757.302 468.59C757.77 467.985 758.331 467.525 758.983 467.21C759.635 466.89 760.366 466.73 761.175 466.73C762.049 466.73 762.82 466.901 763.489 467.241C764.158 467.578 764.695 468.036 765.1 468.616C765.509 469.195 765.756 469.845 765.841 470.565H763.112C763.006 470.109 762.782 469.751 762.441 469.491C762.1 469.232 761.678 469.102 761.175 469.102C760.323 469.102 759.675 469.472 759.232 470.214C758.793 470.955 758.569 471.963 758.561 473.237H758.65C758.846 472.849 759.111 472.519 759.443 472.246C759.78 471.969 760.161 471.759 760.587 471.614C761.018 471.464 761.471 471.39 761.949 471.39C762.724 471.39 763.415 471.573 764.02 471.94C764.625 472.302 765.102 472.8 765.452 473.435C765.801 474.07 765.976 474.797 765.976 475.615C765.976 476.501 765.769 477.29 765.356 477.98C764.947 478.67 764.373 479.212 763.636 479.604C762.903 479.991 762.051 480.183 761.079 480.179ZM761.067 478.006C761.493 478.006 761.874 477.903 762.211 477.699C762.547 477.494 762.812 477.217 763.003 476.868C763.195 476.518 763.291 476.126 763.291 475.692C763.291 475.257 763.195 474.867 763.003 474.522C762.816 474.177 762.556 473.902 762.224 473.697C761.891 473.493 761.512 473.391 761.086 473.391C760.766 473.391 760.47 473.45 760.197 473.57C759.929 473.689 759.692 473.855 759.488 474.068C759.287 474.281 759.13 474.528 759.015 474.81C758.9 475.087 758.842 475.383 758.842 475.698C758.842 476.12 758.938 476.506 759.13 476.855C759.326 477.205 759.59 477.484 759.922 477.692C760.259 477.901 760.64 478.006 761.067 478.006Z" fill="white"/>
<path d="M239.895 478.119C239.293 478.119 238.756 478.009 238.284 477.787C237.815 477.565 237.443 477.26 237.168 476.871C236.892 476.482 236.749 476.036 236.737 475.533H238.527C238.547 475.871 238.689 476.145 238.953 476.355C239.217 476.565 239.531 476.67 239.895 476.67C240.185 476.67 240.44 476.607 240.662 476.479C240.886 476.348 241.061 476.168 241.186 475.938C241.314 475.705 241.378 475.437 241.378 475.136C241.378 474.83 241.313 474.56 241.182 474.327C241.054 474.094 240.876 473.912 240.649 473.781C240.422 473.651 240.162 473.584 239.869 473.581C239.614 473.581 239.365 473.634 239.124 473.739C238.885 473.844 238.699 473.987 238.565 474.169L236.925 473.875L237.338 469.273H242.673V470.781H238.859L238.634 472.967H238.685C238.838 472.751 239.07 472.572 239.379 472.43C239.689 472.288 240.036 472.217 240.419 472.217C240.945 472.217 241.413 472.341 241.825 472.588C242.237 472.835 242.562 473.175 242.801 473.607C243.04 474.036 243.158 474.53 243.155 475.089C243.158 475.678 243.021 476.2 242.746 476.658C242.473 477.112 242.091 477.47 241.599 477.732C241.111 477.99 240.543 478.119 239.895 478.119ZM248.239 469.273V478H246.393V471.024H246.342L244.344 472.277V470.641L246.504 469.273H248.239ZM253.735 478.192C253.002 478.189 252.371 478.009 251.843 477.651C251.317 477.293 250.912 476.774 250.628 476.095C250.347 475.416 250.208 474.599 250.211 473.645C250.211 472.693 250.351 471.882 250.632 471.212C250.917 470.541 251.321 470.031 251.847 469.682C252.375 469.33 253.005 469.153 253.735 469.153C254.465 469.153 255.093 469.33 255.618 469.682C256.147 470.034 256.553 470.545 256.837 471.216C257.121 471.884 257.262 472.693 257.259 473.645C257.259 474.602 257.117 475.42 256.833 476.099C256.551 476.778 256.148 477.297 255.623 477.655C255.097 478.013 254.468 478.192 253.735 478.192ZM253.735 476.662C254.235 476.662 254.634 476.411 254.932 475.908C255.23 475.405 255.378 474.651 255.375 473.645C255.375 472.983 255.307 472.432 255.171 471.991C255.037 471.551 254.847 471.22 254.6 470.999C254.355 470.777 254.067 470.666 253.735 470.666C253.238 470.666 252.84 470.915 252.542 471.412C252.243 471.909 252.093 472.653 252.09 473.645C252.09 474.315 252.157 474.875 252.29 475.324C252.426 475.77 252.618 476.105 252.865 476.33C253.113 476.551 253.402 476.662 253.735 476.662ZM261.403 478V469.273H267.194V470.794H263.248V472.499H264.667C265.358 472.499 265.953 472.611 266.453 472.835C266.956 473.057 267.343 473.371 267.616 473.777C267.889 474.183 268.025 474.662 268.025 475.213C268.025 475.761 267.889 476.246 267.616 476.666C267.343 477.084 266.956 477.411 266.453 477.646C265.953 477.882 265.358 478 264.667 478H261.403ZM263.248 476.517H264.667C264.997 476.517 265.275 476.457 265.502 476.338C265.73 476.216 265.902 476.055 266.018 475.857C266.137 475.655 266.197 475.435 266.197 475.196C266.197 474.849 266.065 474.557 265.801 474.318C265.539 474.077 265.162 473.956 264.667 473.956H263.248V476.517Z" fill="white"/>
<path d="M1127.84 27.179C1126.94 27.179 1126.13 27.0128 1125.43 26.6804C1124.72 26.348 1124.16 25.8899 1123.75 25.3061C1123.34 24.7223 1123.12 24.0533 1123.11 23.299H1125.79C1125.82 23.8061 1126.03 24.2173 1126.43 24.5327C1126.83 24.848 1127.3 25.0057 1127.84 25.0057C1128.28 25.0057 1128.66 24.9098 1128.99 24.718C1129.33 24.522 1129.59 24.2514 1129.78 23.9062C1129.97 23.5568 1130.07 23.1562 1130.07 22.7045C1130.07 22.2443 1129.97 21.8395 1129.77 21.4901C1129.58 21.1406 1129.31 20.8679 1128.97 20.6719C1128.63 20.4759 1128.24 20.3757 1127.8 20.3714C1127.42 20.3714 1127.05 20.4503 1126.69 20.608C1126.33 20.7656 1126.05 20.9808 1125.85 21.2536L1123.39 20.8125L1124.01 13.9091L1132.01 13.9091V16.1719H1126.29L1125.95 19.451H1126.03C1126.26 19.1271 1126.6 18.8587 1127.07 18.6456C1127.53 18.4325 1128.05 18.326 1128.63 18.326C1129.42 18.326 1130.12 18.5114 1130.74 18.8821C1131.36 19.2528 1131.84 19.7621 1132.2 20.4098C1132.56 21.0533 1132.74 21.7947 1132.73 22.6342C1132.74 23.5163 1132.53 24.3004 1132.12 24.9865C1131.71 25.6683 1131.14 26.2053 1130.4 26.5973C1129.67 26.9851 1128.81 27.179 1127.84 27.179ZM1140.36 13.9091V27H1137.59V16.5362H1137.51L1134.52 18.4155V15.9609L1137.76 13.9091H1140.36ZM1148.25 27.179C1147.35 27.179 1146.54 27.0128 1145.83 26.6804C1145.13 26.348 1144.57 25.8899 1144.16 25.3061C1143.75 24.7223 1143.53 24.0533 1143.51 23.299H1146.2C1146.23 23.8061 1146.44 24.2173 1146.84 24.5327C1147.23 24.848 1147.71 25.0057 1148.25 25.0057C1148.69 25.0057 1149.07 24.9098 1149.4 24.718C1149.74 24.522 1150 24.2514 1150.19 23.9063C1150.38 23.5568 1150.47 23.1562 1150.47 22.7045C1150.47 22.2443 1150.38 21.8395 1150.18 21.4901C1149.99 21.1406 1149.72 20.8679 1149.38 20.6719C1149.04 20.4759 1148.65 20.3757 1148.21 20.3714C1147.83 20.3714 1147.46 20.4503 1147.09 20.608C1146.74 20.7656 1146.46 20.9808 1146.26 21.2536L1143.8 20.8125L1144.42 13.9091L1152.42 13.9091V16.1719L1146.7 16.1719L1146.36 19.451H1146.44C1146.67 19.1271 1147.01 18.8587 1147.48 18.6456C1147.94 18.4325 1148.46 18.326 1149.04 18.326C1149.83 18.326 1150.53 18.5114 1151.15 18.8821C1151.76 19.2528 1152.25 19.7621 1152.61 20.4098C1152.97 21.0533 1153.14 21.7947 1153.14 22.6342C1153.14 23.5163 1152.94 24.3004 1152.53 24.9865C1152.12 25.6683 1151.54 26.2053 1150.81 26.5973C1150.07 26.9851 1149.22 27.179 1148.25 27.179Z" fill="white"/>
<path d="M1214.84 27.179C1213.94 27.179 1213.13 27.0128 1212.43 26.6804C1211.72 26.348 1211.16 25.8899 1210.75 25.3061C1210.34 24.7223 1210.12 24.0533 1210.11 23.299H1212.79C1212.82 23.8061 1213.03 24.2173 1213.43 24.5327C1213.83 24.848 1214.3 25.0057 1214.84 25.0057C1215.28 25.0057 1215.66 24.9098 1215.99 24.718C1216.33 24.522 1216.59 24.2514 1216.78 23.9062C1216.97 23.5568 1217.07 23.1562 1217.07 22.7045C1217.07 22.2443 1216.97 21.8395 1216.77 21.4901C1216.58 21.1406 1216.31 20.8679 1215.97 20.6719C1215.63 20.4759 1215.24 20.3757 1214.8 20.3714C1214.42 20.3714 1214.05 20.4503 1213.69 20.608C1213.33 20.7656 1213.05 20.9808 1212.85 21.2536L1210.39 20.8125L1211.01 13.9091L1219.01 13.9091V16.1719H1213.29L1212.95 19.451H1213.03C1213.26 19.1271 1213.6 18.8587 1214.07 18.6456C1214.53 18.4325 1215.05 18.326 1215.63 18.326C1216.42 18.326 1217.12 18.5114 1217.74 18.8821C1218.36 19.2528 1218.84 19.7621 1219.2 20.4098C1219.56 21.0533 1219.74 21.7947 1219.73 22.6342C1219.74 23.5163 1219.53 24.3004 1219.12 24.9865C1218.71 25.6683 1218.14 26.2053 1217.4 26.5973C1216.67 26.9851 1215.81 27.179 1214.84 27.179ZM1227.36 13.9091V27H1224.59V16.5362H1224.51L1221.52 18.4155V15.9609L1224.76 13.9091L1227.36 13.9091ZM1235.49 27.179C1234.82 27.1747 1234.17 27.0618 1233.54 26.8402C1232.92 26.6186 1232.36 26.2585 1231.87 25.7599C1231.37 25.2614 1230.98 24.6009 1230.69 23.7784C1230.41 22.956 1230.26 21.946 1230.26 20.7486C1230.27 19.6491 1230.39 18.6669 1230.64 17.8018C1230.89 16.9325 1231.25 16.1953 1231.72 15.5902C1232.18 14.9851 1232.74 14.5249 1233.4 14.2095C1234.05 13.8899 1234.78 13.7301 1235.59 13.7301C1236.46 13.7301 1237.23 13.9006 1237.9 14.2415C1238.57 14.5781 1239.11 15.0362 1239.51 15.6158C1239.92 16.1953 1240.17 16.8452 1240.26 17.5653H1237.53C1237.42 17.1094 1237.2 16.7514 1236.85 16.4915C1236.51 16.2315 1236.09 16.1016 1235.59 16.1016C1234.74 16.1016 1234.09 16.4723 1233.65 17.2138C1233.21 17.9553 1232.98 18.9631 1232.97 20.2372H1233.06C1233.26 19.8494 1233.52 19.5192 1233.86 19.2464C1234.19 18.9695 1234.58 18.7585 1235 18.6136C1235.43 18.4645 1235.89 18.3899 1236.36 18.3899C1237.14 18.3899 1237.83 18.5732 1238.43 18.9396C1239.04 19.3018 1239.52 19.8004 1239.87 20.4354C1240.22 21.0703 1240.39 21.7969 1240.39 22.6151C1240.39 23.5014 1240.18 24.2898 1239.77 24.9801C1239.36 25.6705 1238.79 26.2116 1238.05 26.6037C1237.32 26.9915 1236.47 27.1832 1235.49 27.179ZM1235.48 25.0057C1235.91 25.0057 1236.29 24.9034 1236.62 24.6989C1236.96 24.4943 1237.23 24.2173 1237.42 23.8679C1237.61 23.5185 1237.71 23.1264 1237.71 22.6918C1237.71 22.2571 1237.61 21.8672 1237.42 21.522C1237.23 21.1768 1236.97 20.902 1236.64 20.6974C1236.31 20.4929 1235.93 20.3906 1235.5 20.3906C1235.18 20.3906 1234.88 20.4503 1234.61 20.5696C1234.34 20.6889 1234.11 20.8551 1233.9 21.0682C1233.7 21.2812 1233.54 21.5284 1233.43 21.8097C1233.31 22.0866 1233.26 22.3828 1233.26 22.6982C1233.26 23.12 1233.35 23.5057 1233.54 23.8551C1233.74 24.2045 1234 24.4837 1234.34 24.6925C1234.67 24.9013 1235.05 25.0057 1235.48 25.0057Z" fill="white"/>
<path d="M243 188H4V103H243V188Z" fill="#FFF5ED" stroke="#41414A" stroke-width="6"/>
<path d="M243 103H4V3H243V103Z" fill="#FFF5ED" stroke="#41414A" stroke-width="6"/>
<path d="M4 324.5H156" stroke="#41414A" stroke-width="6"/>
<path d="M2.5 408H156" stroke="#41414A" stroke-width="6"/>
<rect x="641" y="29" width="119" height="39" rx="19.5" transform="rotate(90 641 29)" fill="white" stroke="#595961" stroke-width="4"/>
<line x1="621" y1="54" x2="621" y2="134" stroke="#595961" stroke-width="4" stroke-linecap="round"/>
<line x1="576" y1="52" x2="666" y2="52" stroke="#41414A" stroke-width="4"/>
<line x1="576" y1="65" x2="666" y2="65" stroke="#41414A" stroke-width="4"/>
<line x1="576" y1="79" x2="666" y2="79" stroke="#41414A" stroke-width="4"/>
<line x1="576" y1="93" x2="666" y2="93" stroke="#41414A" stroke-width="4"/>
<line x1="576" y1="107" x2="666" y2="107" stroke="#41414A" stroke-width="4"/>
<line x1="576" y1="121" x2="666" y2="121" stroke="#41414A" stroke-width="4"/>
<line x1="576" y1="134" x2="666" y2="134" stroke="#41414A" stroke-width="4"/>
<path d="M602.5 54L598.603 63H606.397L602.5 54Z" fill="#41414A"/>
<path d="M640.5 132L644.397 123L636.603 123L640.5 132Z" fill="#41414A"/>
<rect x="911" y="29" width="119" height="39" rx="19.5" transform="rotate(90 911 29)" fill="white" stroke="#595961" stroke-width="4"/>
<line x1="891" y1="54" x2="891" y2="134" stroke="#595961" stroke-width="4" stroke-linecap="round"/>
<line x1="846" y1="52" x2="936" y2="52" stroke="#41414A" stroke-width="4"/>
<line x1="846" y1="65" x2="936" y2="65" stroke="#41414A" stroke-width="4"/>
<line x1="846" y1="79" x2="936" y2="79" stroke="#41414A" stroke-width="4"/>
<line x1="846" y1="93" x2="936" y2="93" stroke="#41414A" stroke-width="4"/>
<line x1="846" y1="107" x2="936" y2="107" stroke="#41414A" stroke-width="4"/>
<line x1="846" y1="121" x2="936" y2="121" stroke="#41414A" stroke-width="4"/>
<line x1="846" y1="134" x2="936" y2="134" stroke="#41414A" stroke-width="4"/>
<path d="M872.5 54L868.603 63H876.397L872.5 54Z" fill="#41414A"/>
<path d="M910.5 132L914.397 123L906.603 123L910.5 132Z" fill="#41414A"/>
<path d="M50 3.5H4V103H50V3.5Z" fill="#D05A8F" stroke="#41414A" stroke-width="6"/>
<path d="M50 103H4V188H50V103Z" fill="#D05A8F" stroke="#41414A" stroke-width="6"/>
<path d="M35.2187 73.8594C35.2187 74.9635 35.0156 75.9479 34.6094 76.8125C34.2031 77.6719 33.6432 78.3542 32.9297 78.8594C32.2161 79.3646 31.3984 79.6276 30.4766 79.6484L30.4766 76.3672C31.0964 76.3307 31.599 76.0703 31.9844 75.5859C32.3698 75.1016 32.5625 74.526 32.5625 73.8594C32.5625 73.3281 32.4453 72.8594 32.2109 72.4531C31.9714 72.0417 31.6406 71.7214 31.2187 71.4922C30.7917 71.2578 30.3021 71.1406 29.75 71.1406C29.1875 71.1406 28.6927 71.2604 28.2656 71.5C27.8385 71.7344 27.5052 72.0599 27.2656 72.4766C27.026 72.8932 26.9036 73.3698 26.8984 73.9062C26.8984 74.375 26.9948 74.8307 27.1875 75.2734C27.3802 75.7109 27.6432 76.0521 27.9766 76.2969L27.4375 79.3047L19 78.5469L19 68.7656L21.7656 68.7656L21.7656 75.7578L25.7734 76.1719L25.7734 76.0781C25.3776 75.7969 25.0495 75.3724 24.7891 74.8047C24.5286 74.237 24.3984 73.6016 24.3984 72.8984C24.3984 71.9349 24.625 71.0755 25.0781 70.3203C25.5312 69.5651 26.1536 68.9687 26.9453 68.5312C27.7318 68.0937 28.638 67.8776 29.6641 67.8828C30.7422 67.8776 31.7005 68.1276 32.5391 68.6328C33.3724 69.1328 34.0286 69.8333 34.5078 70.7344C34.9818 71.6302 35.2187 72.6719 35.2187 73.8594ZM19 58.5625L35 58.5625L35 61.9453L22.2109 61.9453L22.2109 62.0391L24.5078 65.7031L21.5078 65.7031L19 61.7422L19 58.5625ZM35 54.7598L32.5625 54.7598L27.2891 49.0645C26.8203 48.5801 26.3984 48.1738 26.0234 47.8457C25.6484 47.5124 25.2812 47.2598 24.9219 47.0879C24.5573 46.916 24.1641 46.8301 23.7422 46.8301C23.2734 46.8301 22.8698 46.9368 22.5312 47.1504C22.1875 47.3639 21.9245 47.6556 21.7422 48.0254C21.5547 48.3952 21.4609 48.8145 21.4609 49.2832C21.4609 49.7728 21.5599 50.1999 21.7578 50.5645C21.9557 50.929 22.2396 51.2103 22.6094 51.4082C22.9792 51.6061 23.4193 51.7051 23.9297 51.7051L23.9297 54.916C22.8828 54.916 21.974 54.679 21.2031 54.2051C20.4323 53.7311 19.8359 53.0671 19.4141 52.2129C18.9922 51.3587 18.7812 50.3743 18.7812 49.2598C18.7812 48.1139 18.9844 47.1165 19.3906 46.2676C19.7917 45.4134 20.349 44.7493 21.0625 44.2754C21.776 43.8014 22.5937 43.5645 23.5156 43.5645C24.1198 43.5645 24.7161 43.6842 25.3047 43.9238C25.8932 44.1582 26.5469 44.5775 27.2656 45.1816C27.9792 45.7858 28.8359 46.6374 29.8359 47.7363L32.125 50.0723L32.2344 50.0723L32.2344 43.3535L35 43.3535L35 54.7598ZM35 35.7168L19 35.7168L19 25.0996L21.7891 25.0996L21.7891 32.334L24.9141 32.334L24.9141 29.7324C24.9141 28.4668 25.1198 27.3757 25.5312 26.459C25.9375 25.5371 26.513 24.8262 27.2578 24.3262C28.0026 23.8262 28.8802 23.5762 29.8906 23.5762C30.8958 23.5762 31.7839 23.8262 32.5547 24.3262C33.3203 24.8262 33.9193 25.5371 34.3516 26.459C34.7839 27.3756 35 28.4668 35 29.7324L35 35.7168ZM32.2812 32.334L32.2812 29.7324C32.2812 29.1283 32.1719 28.6178 31.9531 28.2012C31.7292 27.7845 31.4349 27.4694 31.0703 27.2559C30.7005 27.0371 30.2969 26.9277 29.8594 26.9277C29.224 26.9277 28.6875 27.1699 28.25 27.6543C27.8073 28.1335 27.5859 28.8262 27.5859 29.7324L27.5859 32.334L32.2812 32.334Z" fill="white"/>
<path d="M35.2187 169.859C35.2187 170.964 35.0156 171.948 34.6094 172.812C34.2031 173.672 33.6432 174.354 32.9297 174.859C32.2161 175.365 31.3984 175.628 30.4766 175.648L30.4766 172.367C31.0964 172.331 31.599 172.07 31.9844 171.586C32.3698 171.102 32.5625 170.526 32.5625 169.859C32.5625 169.328 32.4453 168.859 32.2109 168.453C31.9714 168.042 31.6406 167.721 31.2187 167.492C30.7917 167.258 30.3021 167.141 29.75 167.141C29.1875 167.141 28.6927 167.26 28.2656 167.5C27.8385 167.734 27.5052 168.06 27.2656 168.477C27.026 168.893 26.9036 169.37 26.8984 169.906C26.8984 170.375 26.9948 170.831 27.1875 171.273C27.3802 171.711 27.6432 172.052 27.9766 172.297L27.4375 175.305L19 174.547L19 164.766L21.7656 164.766L21.7656 171.758L25.7734 172.172L25.7734 172.078C25.3776 171.797 25.0495 171.372 24.7891 170.805C24.5286 170.237 24.3984 169.602 24.3984 168.898C24.3984 167.935 24.625 167.076 25.0781 166.32C25.5312 165.565 26.1536 164.969 26.9453 164.531C27.7318 164.094 28.638 163.878 29.6641 163.883C30.7422 163.878 31.7005 164.128 32.5391 164.633C33.3724 165.133 34.0286 165.833 34.5078 166.734C34.9818 167.63 35.2187 168.672 35.2187 169.859ZM19 154.562L35 154.562L35 157.945L22.2109 157.945L22.2109 158.039L24.5078 161.703L21.5078 161.703L19 157.742L19 154.562ZM35 150.76L32.5625 150.76L27.2891 145.064C26.8203 144.58 26.3984 144.174 26.0234 143.846C25.6484 143.512 25.2812 143.26 24.9219 143.088C24.5573 142.916 24.1641 142.83 23.7422 142.83C23.2734 142.83 22.8698 142.937 22.5312 143.15C22.1875 143.364 21.9245 143.656 21.7422 144.025C21.5547 144.395 21.4609 144.814 21.4609 145.283C21.4609 145.773 21.5599 146.2 21.7578 146.564C21.9557 146.929 22.2396 147.21 22.6094 147.408C22.9792 147.606 23.4193 147.705 23.9297 147.705L23.9297 150.916C22.8828 150.916 21.974 150.679 21.2031 150.205C20.4323 149.731 19.8359 149.067 19.4141 148.213C18.9922 147.359 18.7812 146.374 18.7812 145.26C18.7812 144.114 18.9844 143.117 19.3906 142.268C19.7917 141.413 20.349 140.749 21.0625 140.275C21.776 139.801 22.5937 139.564 23.5156 139.564C24.1198 139.564 24.7161 139.684 25.3047 139.924C25.8932 140.158 26.5469 140.577 27.2656 141.182C27.9792 141.786 28.8359 142.637 29.8359 143.736L32.125 146.072L32.2344 146.072L32.2344 139.354L35 139.354L35 150.76ZM35 128.959L35 132.584L19 127.061L19 122.701L35 117.186L35 120.811L22.6562 124.818L22.6562 124.943L35 128.959ZM28.7109 129.186L28.7109 120.623L31.3516 120.623L31.3516 129.186L28.7109 129.186Z" fill="white"/>
<path d="M518.311 114.166H516.317C516.24 113.74 516.097 113.365 515.888 113.041C515.68 112.717 515.424 112.442 515.121 112.217C514.819 111.991 514.48 111.82 514.105 111.705C513.734 111.59 513.34 111.533 512.923 111.533C512.168 111.533 511.493 111.722 510.896 112.102C510.304 112.481 509.835 113.037 509.49 113.77C509.149 114.503 508.979 115.398 508.979 116.455C508.979 117.52 509.149 118.419 509.49 119.152C509.835 119.885 510.306 120.439 510.903 120.814C511.499 121.189 512.17 121.376 512.916 121.376C513.33 121.376 513.722 121.321 514.092 121.21C514.467 121.095 514.806 120.927 515.109 120.705C515.411 120.484 515.667 120.213 515.876 119.893C516.089 119.57 516.236 119.199 516.317 118.781L518.311 118.788C518.205 119.431 517.998 120.023 517.691 120.565C517.388 121.102 516.999 121.566 516.521 121.958C516.048 122.346 515.507 122.646 514.898 122.859C514.288 123.072 513.624 123.179 512.903 123.179C511.77 123.179 510.76 122.911 509.874 122.374C508.987 121.832 508.288 121.059 507.777 120.053C507.27 119.048 507.016 117.848 507.016 116.455C507.016 115.057 507.272 113.857 507.783 112.856C508.295 111.85 508.994 111.079 509.88 110.542C510.766 110.001 511.774 109.73 512.903 109.73C513.598 109.73 514.246 109.83 514.847 110.031C515.452 110.227 515.995 110.516 516.477 110.9C516.958 111.279 517.357 111.744 517.672 112.293C517.987 112.839 518.2 113.463 518.311 114.166ZM525.507 109.295L521.288 124.969H519.581L523.8 109.295H525.507ZM528.339 126.682C528.053 126.682 527.793 126.658 527.559 126.612C527.324 126.569 527.15 126.522 527.035 126.471L527.495 124.905C527.844 124.999 528.155 125.039 528.428 125.026C528.701 125.013 528.942 124.911 529.15 124.719C529.363 124.528 529.551 124.214 529.713 123.78L529.949 123.128L526.357 113.182H528.403L530.889 120.801H530.991L533.478 113.182H535.53L531.483 124.31C531.296 124.822 531.057 125.254 530.768 125.608C530.478 125.966 530.133 126.234 529.732 126.413C529.331 126.592 528.867 126.682 528.339 126.682ZM536.744 120.405H538.7C538.726 120.805 538.907 121.114 539.243 121.332C539.584 121.549 540.025 121.658 540.567 121.658C541.116 121.658 541.585 121.54 541.973 121.306C542.361 121.067 542.555 120.699 542.555 120.2C542.555 119.902 542.48 119.642 542.331 119.42C542.186 119.195 541.979 119.02 541.711 118.896C541.447 118.773 541.133 118.711 540.771 118.711H539.173V117.209H540.771C541.312 117.209 541.717 117.085 541.986 116.838C542.254 116.591 542.388 116.282 542.388 115.911C542.388 115.511 542.243 115.189 541.954 114.946C541.668 114.699 541.27 114.575 540.758 114.575C540.238 114.575 539.806 114.692 539.461 114.927C539.116 115.157 538.934 115.455 538.917 115.822H536.987C537 115.272 537.166 114.79 537.486 114.377C537.809 113.96 538.244 113.636 538.79 113.406C539.339 113.171 539.964 113.054 540.662 113.054C541.391 113.054 542.022 113.171 542.555 113.406C543.087 113.64 543.498 113.964 543.788 114.377C544.082 114.79 544.229 115.266 544.229 115.803C544.229 116.344 544.067 116.787 543.743 117.132C543.424 117.473 543.006 117.718 542.491 117.867V117.969C542.87 117.995 543.206 118.11 543.501 118.315C543.795 118.519 544.025 118.79 544.191 119.126C544.357 119.463 544.44 119.844 544.44 120.271C544.44 120.871 544.274 121.391 543.942 121.83C543.613 122.269 543.157 122.608 542.574 122.847C541.994 123.081 541.331 123.198 540.586 123.198C539.861 123.198 539.211 123.085 538.636 122.859C538.065 122.629 537.611 122.305 537.275 121.888C536.942 121.47 536.765 120.976 536.744 120.405ZM550.645 123.198C549.678 123.198 548.845 122.991 548.146 122.578C547.451 122.161 546.914 121.575 546.535 120.82C546.16 120.062 545.973 119.173 545.973 118.155C545.973 117.149 546.16 116.263 546.535 115.496C546.914 114.729 547.443 114.13 548.12 113.7C548.802 113.269 549.599 113.054 550.511 113.054C551.065 113.054 551.602 113.146 552.122 113.329C552.642 113.512 553.108 113.8 553.522 114.192C553.935 114.584 554.261 115.093 554.5 115.719C554.738 116.342 554.858 117.098 554.858 117.989V118.666H547.053V117.234H552.985C552.985 116.732 552.882 116.286 552.678 115.898C552.473 115.506 552.186 115.197 551.815 114.972C551.449 114.746 551.018 114.633 550.524 114.633C549.987 114.633 549.518 114.765 549.118 115.029C548.721 115.289 548.414 115.63 548.197 116.052C547.984 116.469 547.877 116.923 547.877 117.413V118.532C547.877 119.188 547.993 119.746 548.223 120.207C548.457 120.667 548.783 121.018 549.201 121.261C549.618 121.5 550.106 121.619 550.664 121.619C551.027 121.619 551.357 121.568 551.655 121.466C551.953 121.359 552.211 121.202 552.429 120.993C552.646 120.784 552.812 120.526 552.927 120.219L554.736 120.545C554.591 121.078 554.331 121.545 553.956 121.945C553.586 122.342 553.119 122.651 552.556 122.872C551.998 123.089 551.361 123.198 550.645 123.198ZM556.205 123L556.198 121.344H556.55C556.823 121.344 557.051 121.287 557.234 121.172C557.421 121.053 557.575 120.852 557.694 120.571C557.813 120.29 557.905 119.902 557.969 119.408C558.033 118.909 558.08 118.283 558.11 117.528L558.282 113.182H565.134V123H563.262V114.831H560.053L559.899 118.168C559.861 118.977 559.778 119.685 559.65 120.29C559.526 120.895 559.345 121.4 559.107 121.805C558.868 122.205 558.561 122.506 558.186 122.706C557.811 122.902 557.355 123 556.818 123H556.205Z" fill="#41414A"/>
<path d="M957.311 114.166H955.317C955.24 113.74 955.097 113.365 954.888 113.041C954.68 112.717 954.424 112.442 954.121 112.217C953.819 111.991 953.48 111.82 953.105 111.705C952.734 111.59 952.34 111.533 951.923 111.533C951.168 111.533 950.493 111.722 949.896 112.102C949.304 112.481 948.835 113.037 948.49 113.77C948.149 114.503 947.979 115.398 947.979 116.455C947.979 117.52 948.149 118.419 948.49 119.152C948.835 119.885 949.306 120.439 949.903 120.814C950.499 121.189 951.17 121.376 951.916 121.376C952.33 121.376 952.722 121.321 953.092 121.21C953.467 121.095 953.806 120.927 954.109 120.705C954.411 120.484 954.667 120.213 954.876 119.893C955.089 119.57 955.236 119.199 955.317 118.781L957.311 118.788C957.205 119.431 956.998 120.023 956.691 120.565C956.388 121.102 955.999 121.566 955.521 121.958C955.048 122.346 954.507 122.646 953.898 122.859C953.288 123.072 952.624 123.179 951.903 123.179C950.77 123.179 949.76 122.911 948.874 122.374C947.987 121.832 947.288 121.059 946.777 120.053C946.27 119.048 946.016 117.848 946.016 116.455C946.016 115.057 946.272 113.857 946.783 112.856C947.295 111.85 947.994 111.079 948.88 110.542C949.766 110.001 950.774 109.73 951.903 109.73C952.598 109.73 953.246 109.83 953.847 110.031C954.452 110.227 954.995 110.516 955.477 110.9C955.958 111.279 956.357 111.744 956.672 112.293C956.987 112.839 957.2 113.463 957.311 114.166ZM964.507 109.295L960.288 124.969H958.581L962.8 109.295H964.507ZM967.339 126.682C967.053 126.682 966.793 126.658 966.559 126.612C966.324 126.569 966.15 126.522 966.035 126.471L966.495 124.905C966.844 124.999 967.155 125.039 967.428 125.026C967.701 125.013 967.942 124.911 968.15 124.719C968.363 124.528 968.551 124.214 968.713 123.78L968.949 123.128L965.357 113.182H967.403L969.889 120.801H969.991L972.478 113.182H974.53L970.483 124.31C970.296 124.822 970.057 125.254 969.768 125.608C969.478 125.966 969.133 126.234 968.732 126.413C968.331 126.592 967.867 126.682 967.339 126.682ZM975.744 120.405H977.7C977.726 120.805 977.907 121.114 978.243 121.332C978.584 121.549 979.025 121.658 979.567 121.658C980.116 121.658 980.585 121.54 980.973 121.306C981.361 121.067 981.555 120.699 981.555 120.2C981.555 119.902 981.48 119.642 981.331 119.42C981.186 119.195 980.979 119.02 980.711 118.896C980.447 118.773 980.133 118.711 979.771 118.711H978.173V117.209H979.771C980.312 117.209 980.717 117.085 980.986 116.838C981.254 116.591 981.388 116.282 981.388 115.911C981.388 115.511 981.243 115.189 980.954 114.946C980.668 114.699 980.27 114.575 979.758 114.575C979.238 114.575 978.806 114.692 978.461 114.927C978.116 115.157 977.934 115.455 977.917 115.822H975.987C976 115.272 976.166 114.79 976.486 114.377C976.809 113.96 977.244 113.636 977.79 113.406C978.339 113.171 978.964 113.054 979.662 113.054C980.391 113.054 981.022 113.171 981.555 113.406C982.087 113.64 982.498 113.964 982.788 114.377C983.082 114.79 983.229 115.266 983.229 115.803C983.229 116.344 983.067 116.787 982.743 117.132C982.424 117.473 982.006 117.718 981.491 117.867V117.969C981.87 117.995 982.206 118.11 982.501 118.315C982.795 118.519 983.025 118.79 983.191 119.126C983.357 119.463 983.44 119.844 983.44 120.271C983.44 120.871 983.274 121.391 982.942 121.83C982.613 122.269 982.157 122.608 981.574 122.847C980.994 123.081 980.331 123.198 979.586 123.198C978.861 123.198 978.211 123.085 977.636 122.859C977.065 122.629 976.611 122.305 976.275 121.888C975.942 121.47 975.765 120.976 975.744 120.405ZM989.645 123.198C988.678 123.198 987.845 122.991 987.146 122.578C986.451 122.161 985.914 121.575 985.535 120.82C985.16 120.062 984.973 119.173 984.973 118.155C984.973 117.149 985.16 116.263 985.535 115.496C985.914 114.729 986.443 114.13 987.12 113.7C987.802 113.269 988.599 113.054 989.511 113.054C990.065 113.054 990.602 113.146 991.122 113.329C991.642 113.512 992.108 113.8 992.522 114.192C992.935 114.584 993.261 115.093 993.5 115.719C993.738 116.342 993.858 117.098 993.858 117.989V118.666H986.053V117.234H991.985C991.985 116.732 991.882 116.286 991.678 115.898C991.473 115.506 991.186 115.197 990.815 114.972C990.449 114.746 990.018 114.633 989.524 114.633C988.987 114.633 988.518 114.765 988.118 115.029C987.721 115.289 987.414 115.63 987.197 116.052C986.984 116.469 986.877 116.923 986.877 117.413V118.532C986.877 119.188 986.993 119.746 987.223 120.207C987.457 120.667 987.783 121.018 988.201 121.261C988.618 121.5 989.106 121.619 989.664 121.619C990.027 121.619 990.357 121.568 990.655 121.466C990.953 121.359 991.211 121.202 991.429 120.993C991.646 120.784 991.812 120.526 991.927 120.219L993.736 120.545C993.591 121.078 993.331 121.545 992.956 121.945C992.586 122.342 992.119 122.651 991.556 122.872C990.998 123.089 990.361 123.198 989.645 123.198ZM995.205 123L995.198 121.344H995.55C995.823 121.344 996.051 121.287 996.234 121.172C996.421 121.053 996.575 120.852 996.694 120.571C996.813 120.29 996.905 119.902 996.969 119.408C997.033 118.909 997.08 118.283 997.11 117.528L997.282 113.182H1004.13V123H1002.26V114.831H999.053L998.899 118.168C998.861 118.977 998.778 119.685 998.65 120.29C998.526 120.895 998.345 121.4 998.107 121.805C997.868 122.205 997.561 122.506 997.186 122.706C996.811 122.902 996.355 123 995.818 123H995.205Z" fill="#41414A"/>
<rect x="787" y="3" width="58" height="59" fill="white" stroke="#41414A" stroke-width="6"/>
<rect x="787" y="129" width="58" height="59" fill="white" stroke="#41414A" stroke-width="6"/>
<rect x="787" y="62" width="58" height="66" fill="white" stroke="#41414A" stroke-width="6"/>
</svg>
