<svg width="1509" height="493" viewBox="0 0 1509 493" fill="none" xmlns="http://www.w3.org/2000/svg">
<rect x="3" y="3" width="1503" height="486" fill="white" stroke="#41414A" stroke-width="6"/>
<rect x="3" y="4" width="174" height="161" fill="#FFEBF4" stroke="#41414A" stroke-width="6"/>
<rect x="177" y="4" width="109" height="140" fill="white" stroke="#41414A" stroke-width="6"/>
<rect x="286" y="4" width="56" height="207" fill="white" stroke="#41414A" stroke-width="6"/>
<rect x="342" y="4" width="100" height="207" fill="white" stroke="#41414A" stroke-width="6"/>
<rect x="442" y="4" width="45" height="207" fill="white" stroke="#41414A" stroke-width="6"/>
<rect x="487" y="4" width="64" height="207" fill="#E2E1E6" stroke="#41414A" stroke-width="6"/>
<rect x="551" y="4" width="95" height="207" fill="#E2E1E6" stroke="#41414A" stroke-width="6"/>
<rect x="815" y="4" width="95" height="207" fill="#E2E1E6" stroke="#41414A" stroke-width="6"/>
<rect x="910" y="4" width="73" height="207" fill="white" stroke="#41414A" stroke-width="6"/>
<rect x="910" y="151" width="73" height="60" fill="white" stroke="#41414A" stroke-width="6"/>
<rect x="983" y="4" width="77" height="147" fill="#F3E0D2" stroke="#41414A" stroke-width="6"/>
<rect x="1060" y="4" width="157" height="207" fill="#F3E0D2" stroke="#41414A" stroke-width="6"/>
<rect x="1217" y="4" width="289" height="207" fill="white" stroke="#41414A" stroke-width="6"/>
<rect x="1273" y="90" width="233" height="121" fill="white" stroke="#41414A" stroke-width="6"/>
<rect x="1313" y="212" width="193" height="121" fill="white" stroke="#41414A" stroke-width="6"/>
<rect x="1259" y="334" width="247" height="156" fill="white" stroke="#41414A" stroke-width="6"/>
<rect x="1319" y="4" width="187" height="85" fill="white" stroke="#41414A" stroke-width="6"/>
<rect x="983" y="151" width="77" height="60" fill="#F3E0D2" stroke="#41414A" stroke-width="6"/>
<rect x="983" y="100" width="29" height="75" fill="#F3E0D2" stroke="#41414A" stroke-width="6"/>
<rect x="646" y="4" width="169" height="207" fill="#E2E1E6" stroke="#41414A" stroke-width="6"/>
<rect x="177" y="144" width="109" height="67" fill="white" stroke="#41414A" stroke-width="6"/>
<rect x="3" y="165" width="115" height="139" fill="white" stroke="#41414A" stroke-width="6"/>
<rect x="3" y="304" width="115" height="186" fill="white" stroke="#41414A" stroke-width="6"/>
<rect x="103" y="333" width="74" height="157" fill="white" stroke="#41414A" stroke-width="6"/>
<rect x="176" y="333" width="93" height="157" fill="white" stroke="#41414A" stroke-width="6"/>
<rect x="269" y="276" width="88" height="214" fill="white" stroke="#41414A" stroke-width="6"/>
<rect x="357" y="276" width="330" height="214" fill="#FFF5ED" stroke="#41414A" stroke-width="6"/>
<rect x="3" y="108" width="115" height="57" fill="#FFEBF4" stroke="#41414A" stroke-width="6"/>
<rect x="3" y="4" width="174" height="36" fill="#D0598F" stroke="#41414A" stroke-width="6"/>
<rect x="177" y="4" width="109" height="36" fill="#D0598F" stroke="#41414A" stroke-width="6"/>
<rect x="286" y="4" width="56" height="36" fill="#D0598F" stroke="#41414A" stroke-width="6"/>
<rect x="983" y="4" width="77" height="36" fill="#D0598F" stroke="#41414A" stroke-width="6"/>
<rect x="1060" y="4" width="157" height="36" fill="#D0598F" stroke="#41414A" stroke-width="6"/>
<rect x="1217" y="4" width="102" height="36" fill="#D0598F" stroke="#41414A" stroke-width="6"/>
<rect x="1464" y="4" width="42" height="85" fill="#D0598F" stroke="#41414A" stroke-width="6"/>
<rect x="1464" y="88" width="42" height="123" fill="#D0598F" stroke="#41414A" stroke-width="6"/>
<rect x="1464" y="212" width="42" height="121" fill="#D0598F" stroke="#41414A" stroke-width="6"/>
<rect x="1464" y="333" width="42" height="157" fill="#D0598F" stroke="#41414A" stroke-width="6"/>
<rect x="342" y="4" width="100" height="36" fill="#D0598F" stroke="#41414A" stroke-width="6"/>
<rect x="3" y="164" width="115" height="36" fill="#D0598F" stroke="#41414A" stroke-width="6"/>
<rect x="3" y="454" width="100" height="36" fill="#D0598F" stroke="#41414A" stroke-width="6"/>
<rect x="103" y="454" width="73" height="36" fill="#D0598F" stroke="#41414A" stroke-width="6"/>
<rect x="176" y="454" width="93" height="36" fill="#D0598F" stroke="#41414A" stroke-width="6"/>
<rect x="269" y="454" width="88" height="36" fill="#D0598F" stroke="#41414A" stroke-width="6"/>
<rect x="357" y="454" width="300" height="36" fill="#D0598F" stroke="#41414A" stroke-width="6"/>
<rect x="80" y="108" width="38" height="55" fill="#FFEBF4" stroke="#41414A" stroke-width="6"/>
<rect x="118" y="164" width="59" height="47" fill="#E2E1E6" stroke="#41414A" stroke-width="6"/>
<path d="M76.0852 29.179C75.4119 29.1747 74.7621 29.0618 74.1357 28.8402C73.5135 28.6186 72.9553 28.2585 72.4609 27.7599C71.9666 27.2614 71.5746 26.6009 71.2848 25.7784C70.9993 24.956 70.8565 23.946 70.8565 22.7486C70.8608 21.6491 70.9865 20.6669 71.2337 19.8018C71.4851 18.9325 71.843 18.1953 72.3075 17.5902C72.7763 16.9851 73.3366 16.5249 73.9886 16.2095C74.6406 15.8899 75.3714 15.7301 76.1811 15.7301C77.0547 15.7301 77.826 15.9006 78.495 16.2415C79.1641 16.5781 79.701 17.0362 80.1058 17.6158C80.5149 18.1953 80.7621 18.8452 80.8473 19.5653H78.1179C78.0114 19.1094 77.7876 18.7514 77.4467 18.4915C77.1058 18.2315 76.6839 18.1016 76.1811 18.1016C75.3288 18.1016 74.6811 18.4723 74.2379 19.2138C73.799 19.9553 73.5753 20.9631 73.5668 22.2372H73.6562C73.8523 21.8494 74.1165 21.5192 74.4489 21.2464C74.7855 20.9695 75.1669 20.7585 75.593 20.6136C76.0234 20.4645 76.4773 20.3899 76.9545 20.3899C77.7301 20.3899 78.4205 20.5732 79.0256 20.9396C79.6307 21.3018 80.108 21.8004 80.4574 22.4354C80.8068 23.0703 80.9815 23.7969 80.9815 24.6151C80.9815 25.5014 80.7749 26.2898 80.3615 26.9801C79.9524 27.6705 79.3793 28.2116 78.642 28.6037C77.9091 28.9915 77.0568 29.1832 76.0852 29.179ZM76.0724 27.0057C76.4986 27.0057 76.88 26.9034 77.2166 26.6989C77.5533 26.4943 77.8175 26.2173 78.0092 25.8679C78.201 25.5185 78.2969 25.1264 78.2969 24.6918C78.2969 24.2571 78.201 23.8672 78.0092 23.522C77.8217 23.1768 77.5618 22.902 77.2294 22.6974C76.897 22.4929 76.5178 22.3906 76.0916 22.3906C75.772 22.3906 75.4759 22.4503 75.2031 22.5696C74.9347 22.6889 74.6982 22.8551 74.4936 23.0682C74.2933 23.2812 74.1357 23.5284 74.0206 23.8097C73.9055 24.0866 73.848 24.3828 73.848 24.6982C73.848 25.12 73.9439 25.5057 74.1357 25.8551C74.3317 26.2045 74.5959 26.4837 74.9283 26.6925C75.2649 26.9013 75.6463 27.0057 76.0724 27.0057ZM82.9439 29V27.0057L87.6037 22.6911C88 22.3075 88.3324 21.9624 88.6009 21.6555C88.8736 21.3487 89.0803 21.0483 89.2209 20.7543C89.3615 20.456 89.4318 20.1342 89.4318 19.7891C89.4318 19.4055 89.3445 19.0753 89.1697 18.7983C88.995 18.517 88.7564 18.3018 88.4538 18.1527C88.1513 17.9993 87.8082 17.9226 87.4247 17.9226C87.0241 17.9226 86.6747 18.0036 86.3764 18.1655C86.0781 18.3274 85.848 18.5597 85.6861 18.8622C85.5241 19.1648 85.4432 19.5249 85.4432 19.9425H82.8161C82.8161 19.0859 83.0099 18.3423 83.3977 17.7116C83.7855 17.081 84.3288 16.593 85.0277 16.2479C85.7266 15.9027 86.532 15.7301 87.4439 15.7301C88.3814 15.7301 89.1974 15.8963 89.892 16.2287C90.5909 16.5568 91.1342 17.0128 91.522 17.5966C91.9098 18.1804 92.1037 18.8494 92.1037 19.6037C92.1037 20.098 92.0057 20.5859 91.8097 21.0675C91.6179 21.549 91.2749 22.0838 90.7805 22.6719C90.2862 23.2557 89.5895 23.9567 88.6903 24.7749L86.7791 26.6477V26.7372H92.2763V29H82.9439ZM99.4146 29.2876C98.3152 29.2834 97.3691 29.0128 96.5765 28.4759C95.7882 27.9389 95.1809 27.1612 94.7548 26.1428C94.3329 25.1243 94.1241 23.8991 94.1284 22.4673C94.1284 21.0398 94.3393 19.8232 94.7612 18.8175C95.1873 17.8118 95.7946 17.0469 96.5829 16.5227C97.3755 15.9943 98.3194 15.7301 99.4146 15.7301C100.51 15.7301 101.452 15.9943 102.24 16.5227C103.032 17.0511 103.642 17.8182 104.068 18.8239C104.494 19.8253 104.705 21.0398 104.701 22.4673C104.701 23.9034 104.488 25.1307 104.062 26.1491C103.64 27.1676 103.035 27.9453 102.246 28.4822C101.458 29.0192 100.514 29.2876 99.4146 29.2876ZM99.4146 26.9929C100.165 26.9929 100.763 26.6158 101.211 25.8615C101.658 25.1072 101.88 23.9759 101.876 22.4673C101.876 21.4744 101.773 20.6477 101.569 19.9872C101.368 19.3267 101.083 18.8303 100.712 18.4979C100.346 18.1655 99.9132 17.9993 99.4146 17.9993C98.6689 17.9993 98.0723 18.3722 97.6248 19.1179C97.1774 19.8636 96.9515 20.9801 96.9473 22.4673C96.9473 23.473 97.0474 24.3125 97.2477 24.9858C97.4522 25.6548 97.7399 26.1577 98.1106 26.4943C98.4814 26.8267 98.916 26.9929 99.4146 26.9929Z" fill="white"/>
<path d="M221.085 29.179C220.412 29.1747 219.762 29.0618 219.136 28.8402C218.513 28.6186 217.955 28.2585 217.461 27.7599C216.967 27.2614 216.575 26.6009 216.285 25.7784C215.999 24.956 215.857 23.946 215.857 22.7486C215.861 21.6491 215.987 20.6669 216.234 19.8018C216.485 18.9325 216.843 18.1953 217.308 17.5902C217.776 16.9851 218.337 16.5249 218.989 16.2095C219.641 15.8899 220.371 15.7301 221.181 15.7301C222.055 15.7301 222.826 15.9006 223.495 16.2415C224.164 16.5781 224.701 17.0362 225.106 17.6158C225.515 18.1953 225.762 18.8452 225.847 19.5653H223.118C223.011 19.1094 222.788 18.7514 222.447 18.4915C222.106 18.2315 221.684 18.1016 221.181 18.1016C220.329 18.1016 219.681 18.4723 219.238 19.2138C218.799 19.9553 218.575 20.9631 218.567 22.2372H218.656C218.852 21.8494 219.116 21.5192 219.449 21.2464C219.786 20.9695 220.167 20.7585 220.593 20.6136C221.023 20.4645 221.477 20.3899 221.955 20.3899C222.73 20.3899 223.42 20.5732 224.026 20.9396C224.631 21.3018 225.108 21.8004 225.457 22.4354C225.807 23.0703 225.982 23.7969 225.982 24.6151C225.982 25.5014 225.775 26.2898 225.362 26.9801C224.952 27.6705 224.379 28.2116 223.642 28.6037C222.909 28.9915 222.057 29.1832 221.085 29.179ZM221.072 27.0057C221.499 27.0057 221.88 26.9034 222.217 26.6989C222.553 26.4943 222.817 26.2173 223.009 25.8679C223.201 25.5185 223.297 25.1264 223.297 24.6918C223.297 24.2571 223.201 23.8672 223.009 23.522C222.822 23.1768 222.562 22.902 222.229 22.6974C221.897 22.4929 221.518 22.3906 221.092 22.3906C220.772 22.3906 220.476 22.4503 220.203 22.5696C219.935 22.6889 219.698 22.8551 219.494 23.0682C219.293 23.2812 219.136 23.5284 219.021 23.8097C218.906 24.0866 218.848 24.3828 218.848 24.6982C218.848 25.12 218.944 25.5057 219.136 25.8551C219.332 26.2045 219.596 26.4837 219.928 26.6925C220.265 26.9013 220.646 27.0057 221.072 27.0057ZM227.944 29V27.0057L232.604 22.6911C233 22.3075 233.332 21.9624 233.601 21.6555C233.874 21.3487 234.08 21.0483 234.221 20.7543C234.362 20.456 234.432 20.1342 234.432 19.7891C234.432 19.4055 234.344 19.0753 234.17 18.7983C233.995 18.517 233.756 18.3018 233.454 18.1527C233.151 17.9993 232.808 17.9226 232.425 17.9226C232.024 17.9226 231.675 18.0036 231.376 18.1655C231.078 18.3274 230.848 18.5597 230.686 18.8622C230.524 19.1648 230.443 19.5249 230.443 19.9425H227.816C227.816 19.0859 228.01 18.3423 228.398 17.7116C228.786 17.081 229.329 16.593 230.028 16.2479C230.727 15.9027 231.532 15.7301 232.444 15.7301C233.381 15.7301 234.197 15.8963 234.892 16.2287C235.591 16.5568 236.134 17.0128 236.522 17.5966C236.91 18.1804 237.104 18.8494 237.104 19.6037C237.104 20.098 237.006 20.5859 236.81 21.0675C236.618 21.549 236.275 22.0838 235.781 22.6719C235.286 23.2557 234.589 23.9567 233.69 24.7749L231.779 26.6477V26.7372H237.276V29H227.944ZM244.977 15.9091V29H242.209V18.5362H242.133L239.135 20.4155V17.9609L242.376 15.9091H244.977Z" fill="white"/>
<path d="M303.085 29.179C302.412 29.1747 301.762 29.0618 301.136 28.8402C300.513 28.6186 299.955 28.2585 299.461 27.7599C298.967 27.2614 298.575 26.6009 298.285 25.7784C297.999 24.956 297.857 23.946 297.857 22.7486C297.861 21.6491 297.987 20.6669 298.234 19.8018C298.485 18.9325 298.843 18.1953 299.308 17.5902C299.776 16.9851 300.337 16.5249 300.989 16.2095C301.641 15.8899 302.371 15.7301 303.181 15.7301C304.055 15.7301 304.826 15.9006 305.495 16.2415C306.164 16.5781 306.701 17.0362 307.106 17.6158C307.515 18.1953 307.762 18.8452 307.847 19.5653H305.118C305.011 19.1094 304.788 18.7514 304.447 18.4915C304.106 18.2315 303.684 18.1016 303.181 18.1016C302.329 18.1016 301.681 18.4723 301.238 19.2138C300.799 19.9553 300.575 20.9631 300.567 22.2372H300.656C300.852 21.8494 301.116 21.5192 301.449 21.2464C301.786 20.9695 302.167 20.7585 302.593 20.6136C303.023 20.4645 303.477 20.3899 303.955 20.3899C304.73 20.3899 305.42 20.5732 306.026 20.9396C306.631 21.3018 307.108 21.8004 307.457 22.4354C307.807 23.0703 307.982 23.7969 307.982 24.6151C307.982 25.5014 307.775 26.2898 307.362 26.9801C306.952 27.6705 306.379 28.2116 305.642 28.6037C304.909 28.9915 304.057 29.1832 303.085 29.179ZM303.072 27.0057C303.499 27.0057 303.88 26.9034 304.217 26.6989C304.553 26.4943 304.817 26.2173 305.009 25.8679C305.201 25.5185 305.297 25.1264 305.297 24.6918C305.297 24.2571 305.201 23.8672 305.009 23.522C304.822 23.1768 304.562 22.902 304.229 22.6974C303.897 22.4929 303.518 22.3906 303.092 22.3906C302.772 22.3906 302.476 22.4503 302.203 22.5696C301.935 22.6889 301.698 22.8551 301.494 23.0682C301.293 23.2812 301.136 23.5284 301.021 23.8097C300.906 24.0866 300.848 24.3828 300.848 24.6982C300.848 25.12 300.944 25.5057 301.136 25.8551C301.332 26.2045 301.596 26.4837 301.928 26.6925C302.265 26.9013 302.646 27.0057 303.072 27.0057ZM309.944 29V27.0057L314.604 22.6911C315 22.3075 315.332 21.9624 315.601 21.6555C315.874 21.3487 316.08 21.0483 316.221 20.7543C316.362 20.456 316.432 20.1342 316.432 19.7891C316.432 19.4055 316.344 19.0753 316.17 18.7983C315.995 18.517 315.756 18.3018 315.454 18.1527C315.151 17.9993 314.808 17.9226 314.425 17.9226C314.024 17.9226 313.675 18.0036 313.376 18.1655C313.078 18.3274 312.848 18.5597 312.686 18.8622C312.524 19.1648 312.443 19.5249 312.443 19.9425H309.816C309.816 19.0859 310.01 18.3423 310.398 17.7116C310.786 17.081 311.329 16.593 312.028 16.2479C312.727 15.9027 313.532 15.7301 314.444 15.7301C315.381 15.7301 316.197 15.8963 316.892 16.2287C317.591 16.5568 318.134 17.0128 318.522 17.5966C318.91 18.1804 319.104 18.8494 319.104 19.6037C319.104 20.098 319.006 20.5859 318.81 21.0675C318.618 21.549 318.275 22.0838 317.781 22.6719C317.286 23.2557 316.589 23.9567 315.69 24.7749L313.779 26.6477V26.7372H319.276V29H309.944ZM321.282 29V27.0057L325.942 22.6911C326.338 22.3075 326.67 21.9624 326.939 21.6555C327.211 21.3487 327.418 21.0483 327.559 20.7543C327.699 20.456 327.77 20.1342 327.77 19.7891C327.77 19.4055 327.682 19.0753 327.508 18.7983C327.333 18.517 327.094 18.3018 326.792 18.1527C326.489 17.9993 326.146 17.9226 325.763 17.9226C325.362 17.9226 325.013 18.0036 324.714 18.1655C324.416 18.3274 324.186 18.5597 324.024 18.8622C323.862 19.1648 323.781 19.5249 323.781 19.9425H321.154C321.154 19.0859 321.348 18.3423 321.736 17.7116C322.123 17.081 322.667 16.593 323.366 16.2479C324.064 15.9027 324.87 15.7301 325.782 15.7301C326.719 15.7301 327.535 15.8963 328.23 16.2287C328.929 16.5568 329.472 17.0128 329.86 17.5966C330.248 18.1804 330.442 18.8494 330.442 19.6037C330.442 20.098 330.344 20.5859 330.148 21.0675C329.956 21.549 329.613 22.0838 329.118 22.6719C328.624 23.2557 327.927 23.9567 327.028 24.7749L325.117 26.6477V26.7372H330.614V29H321.282Z" fill="white"/>
<path d="M1001.09 29.179C1000.41 29.1747 999.762 29.0618 999.136 28.8402C998.513 28.6186 997.955 28.2585 997.461 27.7599C996.967 27.2614 996.575 26.6009 996.285 25.7784C995.999 24.956 995.857 23.946 995.857 22.7486C995.861 21.6491 995.987 20.6669 996.234 19.8018C996.485 18.9325 996.843 18.1953 997.308 17.5902C997.776 16.9851 998.337 16.5249 998.989 16.2095C999.641 15.8899 1000.37 15.7301 1001.18 15.7301C1002.05 15.7301 1002.83 15.9006 1003.5 16.2415C1004.16 16.5781 1004.7 17.0362 1005.11 17.6158C1005.51 18.1953 1005.76 18.8452 1005.85 19.5653H1003.12C1003.01 19.1094 1002.79 18.7514 1002.45 18.4915C1002.11 18.2315 1001.68 18.1016 1001.18 18.1016C1000.33 18.1016 999.681 18.4723 999.238 19.2138C998.799 19.9553 998.575 20.9631 998.567 22.2372H998.656C998.852 21.8494 999.116 21.5192 999.449 21.2464C999.786 20.9695 1000.17 20.7585 1000.59 20.6136C1001.02 20.4645 1001.48 20.3899 1001.95 20.3899C1002.73 20.3899 1003.42 20.5732 1004.03 20.9396C1004.63 21.3018 1005.11 21.8004 1005.46 22.4354C1005.81 23.0703 1005.98 23.7969 1005.98 24.6151C1005.98 25.5014 1005.77 26.2898 1005.36 26.9801C1004.95 27.6705 1004.38 28.2116 1003.64 28.6037C1002.91 28.9915 1002.06 29.1832 1001.09 29.179ZM1001.07 27.0057C1001.5 27.0057 1001.88 26.9034 1002.22 26.6989C1002.55 26.4943 1002.82 26.2173 1003.01 25.8679C1003.2 25.5185 1003.3 25.1264 1003.3 24.6918C1003.3 24.2571 1003.2 23.8672 1003.01 23.522C1002.82 23.1768 1002.56 22.902 1002.23 22.6974C1001.9 22.4929 1001.52 22.3906 1001.09 22.3906C1000.77 22.3906 1000.48 22.4503 1000.2 22.5696C999.935 22.6889 999.698 22.8551 999.494 23.0682C999.293 23.2812 999.136 23.5284 999.021 23.8097C998.906 24.0866 998.848 24.3828 998.848 24.6982C998.848 25.12 998.944 25.5057 999.136 25.8551C999.332 26.2045 999.596 26.4837 999.928 26.6925C1000.26 26.9013 1000.65 27.0057 1001.07 27.0057ZM1013.08 29.2876C1011.98 29.2834 1011.03 29.0128 1010.24 28.4759C1009.45 27.9389 1008.84 27.1612 1008.42 26.1428C1008 25.1243 1007.79 23.8991 1007.79 22.4673C1007.79 21.0398 1008 19.8232 1008.42 18.8175C1008.85 17.8118 1009.46 17.0469 1010.25 16.5227C1011.04 15.9943 1011.98 15.7301 1013.08 15.7301C1014.17 15.7301 1015.11 15.9943 1015.9 16.5227C1016.69 17.0511 1017.3 17.8182 1017.73 18.8239C1018.16 19.8253 1018.37 21.0398 1018.36 22.4673C1018.36 23.9034 1018.15 25.1307 1017.72 26.1491C1017.3 27.1676 1016.7 27.9453 1015.91 28.4822C1015.12 29.0192 1014.18 29.2876 1013.08 29.2876ZM1013.08 26.9929C1013.83 26.9929 1014.43 26.6158 1014.87 25.8615C1015.32 25.1072 1015.54 23.9759 1015.54 22.4673C1015.54 21.4744 1015.44 20.6477 1015.23 19.9872C1015.03 19.3267 1014.75 18.8303 1014.37 18.4979C1014.01 18.1655 1013.58 17.9993 1013.08 17.9993C1012.33 17.9993 1011.73 18.3722 1011.29 19.1179C1010.84 19.8636 1010.61 20.9801 1010.61 22.4673C1010.61 23.473 1010.71 24.3125 1010.91 24.9858C1011.11 25.6548 1011.4 26.1577 1011.77 26.4943C1012.14 26.8267 1012.58 26.9929 1013.08 26.9929ZM1026.03 15.9091V29H1023.26V18.5362H1023.19L1020.19 20.4155V17.9609L1023.43 15.9091H1026.03ZM1035.29 21.3743V23.5348H1029.32V21.3743H1035.29ZM1043.28 15.9091V29H1040.51V18.5362H1040.43L1037.43 20.4155V17.9609L1040.67 15.9091H1043.28Z" fill="white"/>
<path d="M1126.09 29.179C1125.41 29.1747 1124.76 29.0618 1124.14 28.8402C1123.51 28.6186 1122.96 28.2585 1122.46 27.7599C1121.97 27.2614 1121.57 26.6009 1121.28 25.7784C1121 24.956 1120.86 23.946 1120.86 22.7486C1120.86 21.6491 1120.99 20.6669 1121.23 19.8018C1121.49 18.9325 1121.84 18.1953 1122.31 17.5902C1122.78 16.9851 1123.34 16.5249 1123.99 16.2095C1124.64 15.8899 1125.37 15.7301 1126.18 15.7301C1127.05 15.7301 1127.83 15.9006 1128.5 16.2415C1129.16 16.5781 1129.7 17.0362 1130.11 17.6158C1130.51 18.1953 1130.76 18.8452 1130.85 19.5653H1128.12C1128.01 19.1094 1127.79 18.7514 1127.45 18.4915C1127.11 18.2315 1126.68 18.1016 1126.18 18.1016C1125.33 18.1016 1124.68 18.4723 1124.24 19.2138C1123.8 19.9553 1123.58 20.9631 1123.57 22.2372H1123.66C1123.85 21.8494 1124.12 21.5192 1124.45 21.2464C1124.79 20.9695 1125.17 20.7585 1125.59 20.6136C1126.02 20.4645 1126.48 20.3899 1126.95 20.3899C1127.73 20.3899 1128.42 20.5732 1129.03 20.9396C1129.63 21.3018 1130.11 21.8004 1130.46 22.4354C1130.81 23.0703 1130.98 23.7969 1130.98 24.6151C1130.98 25.5014 1130.77 26.2898 1130.36 26.9801C1129.95 27.6705 1129.38 28.2116 1128.64 28.6037C1127.91 28.9915 1127.06 29.1832 1126.09 29.179ZM1126.07 27.0057C1126.5 27.0057 1126.88 26.9034 1127.22 26.6989C1127.55 26.4943 1127.82 26.2173 1128.01 25.8679C1128.2 25.5185 1128.3 25.1264 1128.3 24.6918C1128.3 24.2571 1128.2 23.8672 1128.01 23.522C1127.82 23.1768 1127.56 22.902 1127.23 22.6974C1126.9 22.4929 1126.52 22.3906 1126.09 22.3906C1125.77 22.3906 1125.48 22.4503 1125.2 22.5696C1124.93 22.6889 1124.7 22.8551 1124.49 23.0682C1124.29 23.2812 1124.14 23.5284 1124.02 23.8097C1123.91 24.0866 1123.85 24.3828 1123.85 24.6982C1123.85 25.12 1123.94 25.5057 1124.14 25.8551C1124.33 26.2045 1124.6 26.4837 1124.93 26.6925C1125.26 26.9013 1125.65 27.0057 1126.07 27.0057ZM1138.08 29.2876C1136.98 29.2834 1136.03 29.0128 1135.24 28.4759C1134.45 27.9389 1133.84 27.1612 1133.42 26.1428C1133 25.1243 1132.79 23.8991 1132.79 22.4673C1132.79 21.0398 1133 19.8232 1133.42 18.8175C1133.85 17.8118 1134.46 17.0469 1135.25 16.5227C1136.04 15.9943 1136.98 15.7301 1138.08 15.7301C1139.17 15.7301 1140.11 15.9943 1140.9 16.5227C1141.69 17.0511 1142.3 17.8182 1142.73 18.8239C1143.16 19.8253 1143.37 21.0398 1143.36 22.4673C1143.36 23.9034 1143.15 25.1307 1142.72 26.1491C1142.3 27.1676 1141.7 27.9453 1140.91 28.4822C1140.12 29.0192 1139.18 29.2876 1138.08 29.2876ZM1138.08 26.9929C1138.83 26.9929 1139.43 26.6158 1139.87 25.8615C1140.32 25.1072 1140.54 23.9759 1140.54 22.4673C1140.54 21.4744 1140.44 20.6477 1140.23 19.9872C1140.03 19.3267 1139.75 18.8303 1139.37 18.4979C1139.01 18.1655 1138.58 17.9993 1138.08 17.9993C1137.33 17.9993 1136.73 18.3722 1136.29 19.1179C1135.84 19.8636 1135.61 20.9801 1135.61 22.4673C1135.61 23.473 1135.71 24.3125 1135.91 24.9858C1136.11 25.6548 1136.4 26.1577 1136.77 26.4943C1137.14 26.8267 1137.58 26.9929 1138.08 26.9929ZM1151.03 15.9091V29H1148.26V18.5362H1148.19L1145.19 20.4155V17.9609L1148.43 15.9091H1151.03Z" fill="white"/>
<path d="M1251.09 29.179C1250.41 29.1747 1249.76 29.0618 1249.14 28.8402C1248.51 28.6186 1247.96 28.2585 1247.46 27.7599C1246.97 27.2614 1246.57 26.6009 1246.28 25.7784C1246 24.956 1245.86 23.946 1245.86 22.7486C1245.86 21.6491 1245.99 20.6669 1246.23 19.8018C1246.49 18.9325 1246.84 18.1953 1247.31 17.5902C1247.78 16.9851 1248.34 16.5249 1248.99 16.2095C1249.64 15.8899 1250.37 15.7301 1251.18 15.7301C1252.05 15.7301 1252.83 15.9006 1253.5 16.2415C1254.16 16.5781 1254.7 17.0362 1255.11 17.6158C1255.51 18.1953 1255.76 18.8452 1255.85 19.5653H1253.12C1253.01 19.1094 1252.79 18.7514 1252.45 18.4915C1252.11 18.2315 1251.68 18.1016 1251.18 18.1016C1250.33 18.1016 1249.68 18.4723 1249.24 19.2138C1248.8 19.9553 1248.58 20.9631 1248.57 22.2372H1248.66C1248.85 21.8494 1249.12 21.5192 1249.45 21.2464C1249.79 20.9695 1250.17 20.7585 1250.59 20.6136C1251.02 20.4645 1251.48 20.3899 1251.95 20.3899C1252.73 20.3899 1253.42 20.5732 1254.03 20.9396C1254.63 21.3018 1255.11 21.8004 1255.46 22.4354C1255.81 23.0703 1255.98 23.7969 1255.98 24.6151C1255.98 25.5014 1255.77 26.2898 1255.36 26.9801C1254.95 27.6705 1254.38 28.2116 1253.64 28.6037C1252.91 28.9915 1252.06 29.1832 1251.09 29.179ZM1251.07 27.0057C1251.5 27.0057 1251.88 26.9034 1252.22 26.6989C1252.55 26.4943 1252.82 26.2173 1253.01 25.8679C1253.2 25.5185 1253.3 25.1264 1253.3 24.6918C1253.3 24.2571 1253.2 23.8672 1253.01 23.522C1252.82 23.1768 1252.56 22.902 1252.23 22.6974C1251.9 22.4929 1251.52 22.3906 1251.09 22.3906C1250.77 22.3906 1250.48 22.4503 1250.2 22.5696C1249.93 22.6889 1249.7 22.8551 1249.49 23.0682C1249.29 23.2812 1249.14 23.5284 1249.02 23.8097C1248.91 24.0866 1248.85 24.3828 1248.85 24.6982C1248.85 25.12 1248.94 25.5057 1249.14 25.8551C1249.33 26.2045 1249.6 26.4837 1249.93 26.6925C1250.26 26.9013 1250.65 27.0057 1251.07 27.0057ZM1263.08 29.2876C1261.98 29.2834 1261.03 29.0128 1260.24 28.4759C1259.45 27.9389 1258.84 27.1612 1258.42 26.1428C1258 25.1243 1257.79 23.8991 1257.79 22.4673C1257.79 21.0398 1258 19.8232 1258.42 18.8175C1258.85 17.8118 1259.46 17.0469 1260.25 16.5227C1261.04 15.9943 1261.98 15.7301 1263.08 15.7301C1264.17 15.7301 1265.11 15.9943 1265.9 16.5227C1266.69 17.0511 1267.3 17.8182 1267.73 18.8239C1268.16 19.8253 1268.37 21.0398 1268.36 22.4673C1268.36 23.9034 1268.15 25.1307 1267.72 26.1491C1267.3 27.1676 1266.7 27.9453 1265.91 28.4822C1265.12 29.0192 1264.18 29.2876 1263.08 29.2876ZM1263.08 26.9929C1263.83 26.9929 1264.43 26.6158 1264.87 25.8615C1265.32 25.1072 1265.54 23.9759 1265.54 22.4673C1265.54 21.4744 1265.44 20.6477 1265.23 19.9872C1265.03 19.3267 1264.75 18.8303 1264.37 18.4979C1264.01 18.1655 1263.58 17.9993 1263.08 17.9993C1262.33 17.9993 1261.73 18.3722 1261.29 19.1179C1260.84 19.8636 1260.61 20.9801 1260.61 22.4673C1260.61 23.473 1260.71 24.3125 1260.91 24.9858C1261.11 25.6548 1261.4 26.1577 1261.77 26.4943C1262.14 26.8267 1262.58 26.9929 1263.08 26.9929ZM1270.14 26.6989V24.5192L1275.6 15.9091H1277.48V18.9261H1276.37L1272.93 24.3786V24.4808H1280.69V26.6989H1270.14ZM1276.42 29V26.0341L1276.47 25.0689V15.9091H1279.07V29H1276.42Z" fill="white"/>
<path d="M1477.82 34.0852C1477.83 33.4119 1477.94 32.7621 1478.16 32.1357C1478.38 31.5135 1478.74 30.9553 1479.24 30.4609C1479.74 29.9666 1480.4 29.5746 1481.22 29.2848C1482.04 28.9993 1483.05 28.8565 1484.25 28.8565C1485.35 28.8608 1486.33 28.9865 1487.2 29.2337C1488.07 29.4851 1488.8 29.843 1489.41 30.3075C1490.01 30.7763 1490.48 31.3366 1490.79 31.9886C1491.11 32.6406 1491.27 33.3714 1491.27 34.1811C1491.27 35.0547 1491.1 35.826 1490.76 36.495C1490.42 37.1641 1489.96 37.701 1489.38 38.1058C1488.8 38.5149 1488.15 38.7621 1487.43 38.8473V36.1179C1487.89 36.0114 1488.25 35.7876 1488.51 35.4467C1488.77 35.1058 1488.9 34.6839 1488.9 34.1811C1488.9 33.3288 1488.53 32.6811 1487.79 32.2379C1487.04 31.799 1486.04 31.5753 1484.76 31.5668V31.6562C1485.15 31.8523 1485.48 32.1165 1485.75 32.4489C1486.03 32.7855 1486.24 33.1669 1486.39 33.593C1486.54 34.0234 1486.61 34.4773 1486.61 34.9545C1486.61 35.7301 1486.43 36.4205 1486.06 37.0256C1485.7 37.6307 1485.2 38.108 1484.56 38.4574C1483.93 38.8068 1483.2 38.9815 1482.38 38.9815C1481.5 38.9815 1480.71 38.7749 1480.02 38.3615C1479.33 37.9524 1478.79 37.3793 1478.4 36.642C1478.01 35.9091 1477.82 35.0568 1477.82 34.0852ZM1479.99 34.0724C1479.99 34.4986 1480.1 34.88 1480.3 35.2166C1480.51 35.5533 1480.78 35.8175 1481.13 36.0092C1481.48 36.201 1481.87 36.2969 1482.31 36.2969C1482.74 36.2969 1483.13 36.201 1483.48 36.0092C1483.82 35.8217 1484.1 35.5618 1484.3 35.2294C1484.51 34.897 1484.61 34.5178 1484.61 34.0916C1484.61 33.772 1484.55 33.4759 1484.43 33.2031C1484.31 32.9347 1484.14 32.6982 1483.93 32.4936C1483.72 32.2933 1483.47 32.1357 1483.19 32.0206C1482.91 31.9055 1482.62 31.848 1482.3 31.848C1481.88 31.848 1481.49 31.9439 1481.14 32.1357C1480.8 32.3317 1480.52 32.5959 1480.31 32.9283C1480.1 33.2649 1479.99 33.6463 1479.99 34.0724ZM1477.71 46.0767C1477.72 44.9773 1477.99 44.0313 1478.52 43.2386C1479.06 42.4503 1479.84 41.843 1480.86 41.4169C1481.88 40.995 1483.1 40.7862 1484.53 40.7905C1485.96 40.7905 1487.18 41.0014 1488.18 41.4233C1489.19 41.8494 1489.95 42.4567 1490.48 43.245C1491.01 44.0376 1491.27 44.9815 1491.27 46.0767C1491.27 47.1719 1491.01 48.1136 1490.48 48.902C1489.95 49.6946 1489.18 50.304 1488.18 50.7301C1487.17 51.1563 1485.96 51.3672 1484.53 51.3629C1483.1 51.3629 1481.87 51.1499 1480.85 50.7237C1479.83 50.3018 1479.05 49.6967 1478.52 48.9084C1477.98 48.12 1477.71 47.1761 1477.71 46.0767ZM1480.01 46.0767C1480.01 46.8267 1480.38 47.4254 1481.14 47.8729C1481.89 48.3203 1483.02 48.5419 1484.53 48.5376C1485.53 48.5376 1486.35 48.4354 1487.01 48.2308C1487.67 48.0305 1488.17 47.745 1488.5 47.3743C1488.83 47.0078 1489 46.5753 1489 46.0767C1489 45.331 1488.63 44.7344 1487.88 44.2869C1487.14 43.8395 1486.02 43.6136 1484.53 43.6094C1483.53 43.6094 1482.69 43.7095 1482.01 43.9098C1481.35 44.1143 1480.84 44.402 1480.51 44.7727C1480.17 45.1435 1480.01 45.5781 1480.01 46.0767ZM1478 53.3365H1479.99L1484.31 57.9963C1484.69 58.3926 1485.04 58.725 1485.34 58.9934C1485.65 59.2662 1485.95 59.4728 1486.25 59.6135C1486.54 59.7541 1486.87 59.8244 1487.21 59.8244C1487.59 59.8244 1487.92 59.737 1488.2 59.5623C1488.48 59.3876 1488.7 59.149 1488.85 58.8464C1489 58.5439 1489.08 58.2008 1489.08 57.8173C1489.08 57.4167 1489 57.0673 1488.83 56.769C1488.67 56.4707 1488.44 56.2406 1488.14 56.0787C1487.84 55.9167 1487.48 55.8358 1487.06 55.8358V53.2086C1487.91 53.2086 1488.66 53.4025 1489.29 53.7903C1489.92 54.1781 1490.41 54.7214 1490.75 55.4203C1491.1 56.1191 1491.27 56.9245 1491.27 57.8365C1491.27 58.774 1491.1 59.59 1490.77 60.2846C1490.44 60.9835 1489.99 61.5268 1489.4 61.9146C1488.82 62.3024 1488.15 62.4963 1487.4 62.4963C1486.9 62.4963 1486.41 62.3983 1485.93 62.2022C1485.45 62.0105 1484.92 61.6674 1484.33 61.1731C1483.74 60.6788 1483.04 59.9821 1482.23 59.0829L1480.35 57.1717H1480.26V62.6689H1478V53.3365Z" fill="white"/>
<path d="M1477.82 142.085C1477.83 141.412 1477.94 140.762 1478.16 140.136C1478.38 139.513 1478.74 138.955 1479.24 138.461C1479.74 137.967 1480.4 137.575 1481.22 137.285C1482.04 136.999 1483.05 136.857 1484.25 136.857C1485.35 136.861 1486.33 136.987 1487.2 137.234C1488.07 137.485 1488.8 137.843 1489.41 138.308C1490.01 138.776 1490.48 139.337 1490.79 139.989C1491.11 140.641 1491.27 141.371 1491.27 142.181C1491.27 143.055 1491.1 143.826 1490.76 144.495C1490.42 145.164 1489.96 145.701 1489.38 146.106C1488.8 146.515 1488.15 146.762 1487.43 146.847V144.118C1487.89 144.011 1488.25 143.788 1488.51 143.447C1488.77 143.106 1488.9 142.684 1488.9 142.181C1488.9 141.329 1488.53 140.681 1487.79 140.238C1487.04 139.799 1486.04 139.575 1484.76 139.567V139.656C1485.15 139.852 1485.48 140.116 1485.75 140.449C1486.03 140.786 1486.24 141.167 1486.39 141.593C1486.54 142.023 1486.61 142.477 1486.61 142.955C1486.61 143.73 1486.43 144.42 1486.06 145.026C1485.7 145.631 1485.2 146.108 1484.56 146.457C1483.93 146.807 1483.2 146.982 1482.38 146.982C1481.5 146.982 1480.71 146.775 1480.02 146.362C1479.33 145.952 1478.79 145.379 1478.4 144.642C1478.01 143.909 1477.82 143.057 1477.82 142.085ZM1479.99 142.072C1479.99 142.499 1480.1 142.88 1480.3 143.217C1480.51 143.553 1480.78 143.817 1481.13 144.009C1481.48 144.201 1481.87 144.297 1482.31 144.297C1482.74 144.297 1483.13 144.201 1483.48 144.009C1483.82 143.822 1484.1 143.562 1484.3 143.229C1484.51 142.897 1484.61 142.518 1484.61 142.092C1484.61 141.772 1484.55 141.476 1484.43 141.203C1484.31 140.935 1484.14 140.698 1483.93 140.494C1483.72 140.293 1483.47 140.136 1483.19 140.021C1482.91 139.906 1482.62 139.848 1482.3 139.848C1481.88 139.848 1481.49 139.944 1481.14 140.136C1480.8 140.332 1480.52 140.596 1480.31 140.928C1480.1 141.265 1479.99 141.646 1479.99 142.072ZM1477.71 154.077C1477.72 152.977 1477.99 152.031 1478.52 151.239C1479.06 150.45 1479.84 149.843 1480.86 149.417C1481.88 148.995 1483.1 148.786 1484.53 148.79C1485.96 148.79 1487.18 149.001 1488.18 149.423C1489.19 149.849 1489.95 150.457 1490.48 151.245C1491.01 152.038 1491.27 152.982 1491.27 154.077C1491.27 155.172 1491.01 156.114 1490.48 156.902C1489.95 157.695 1489.18 158.304 1488.18 158.73C1487.17 159.156 1485.96 159.367 1484.53 159.363C1483.1 159.363 1481.87 159.15 1480.85 158.724C1479.83 158.302 1479.05 157.697 1478.52 156.908C1477.98 156.12 1477.71 155.176 1477.71 154.077ZM1480.01 154.077C1480.01 154.827 1480.38 155.425 1481.14 155.873C1481.89 156.32 1483.02 156.542 1484.53 156.538C1485.53 156.538 1486.35 156.435 1487.01 156.231C1487.67 156.031 1488.17 155.745 1488.5 155.374C1488.83 155.008 1489 154.575 1489 154.077C1489 153.331 1488.63 152.734 1487.88 152.287C1487.14 151.839 1486.02 151.614 1484.53 151.609C1483.53 151.609 1482.69 151.71 1482.01 151.91C1481.35 152.114 1480.84 152.402 1480.51 152.773C1480.17 153.143 1480.01 153.578 1480.01 154.077ZM1477.82 166.175C1477.82 165.221 1477.99 164.371 1478.31 163.625C1478.65 162.883 1479.1 162.297 1479.68 161.867C1480.26 161.441 1480.94 161.221 1481.7 161.209V163.996C1481.38 164.013 1481.1 164.117 1480.86 164.309C1480.62 164.505 1480.43 164.765 1480.3 165.089C1480.17 165.412 1480.1 165.777 1480.1 166.182C1480.1 166.604 1480.18 166.976 1480.33 167.3C1480.48 167.624 1480.68 167.878 1480.95 168.061C1481.21 168.244 1481.52 168.336 1481.86 168.336C1482.21 168.336 1482.52 168.238 1482.79 168.042C1483.06 167.85 1483.27 167.573 1483.43 167.211C1483.58 166.853 1483.66 166.427 1483.66 165.932V164.711H1485.69V165.932C1485.69 166.35 1485.76 166.719 1485.91 167.038C1486.05 167.362 1486.25 167.613 1486.51 167.792C1486.77 167.971 1487.07 168.061 1487.42 168.061C1487.74 168.061 1488.03 167.982 1488.28 167.824C1488.53 167.671 1488.73 167.454 1488.87 167.172C1489.01 166.895 1489.08 166.572 1489.08 166.201C1489.08 165.826 1489.01 165.483 1488.87 165.172C1488.74 164.861 1488.55 164.611 1488.3 164.424C1488.06 164.236 1487.77 164.136 1487.43 164.123V161.471C1488.19 161.483 1488.85 161.699 1489.43 162.116C1490 162.534 1490.45 163.096 1490.78 163.804C1491.11 164.515 1491.27 165.319 1491.27 166.214C1491.27 167.117 1491.11 167.907 1490.78 168.585C1490.45 169.263 1490.01 169.789 1489.45 170.164C1488.89 170.543 1488.27 170.731 1487.58 170.726C1486.85 170.731 1486.24 170.503 1485.75 170.042C1485.26 169.586 1484.95 168.992 1484.81 168.259H1484.71C1484.59 169.222 1484.25 169.955 1483.71 170.458C1483.17 170.965 1482.49 171.216 1481.68 171.212C1480.93 171.216 1480.27 171.001 1479.69 170.567C1479.11 170.136 1478.65 169.542 1478.32 168.783C1477.99 168.025 1477.82 167.155 1477.82 166.175Z" fill="white"/>
<path d="M1477.82 259.085C1477.83 258.412 1477.94 257.762 1478.16 257.136C1478.38 256.513 1478.74 255.955 1479.24 255.461C1479.74 254.967 1480.4 254.575 1481.22 254.285C1482.04 253.999 1483.05 253.857 1484.25 253.857C1485.35 253.861 1486.33 253.987 1487.2 254.234C1488.07 254.485 1488.8 254.843 1489.41 255.308C1490.01 255.776 1490.48 256.337 1490.79 256.989C1491.11 257.641 1491.27 258.371 1491.27 259.181C1491.27 260.055 1491.1 260.826 1490.76 261.495C1490.42 262.164 1489.96 262.701 1489.38 263.106C1488.8 263.515 1488.15 263.762 1487.43 263.847V261.118C1487.89 261.011 1488.25 260.788 1488.51 260.447C1488.77 260.106 1488.9 259.684 1488.9 259.181C1488.9 258.329 1488.53 257.681 1487.79 257.238C1487.04 256.799 1486.04 256.575 1484.76 256.567V256.656C1485.15 256.852 1485.48 257.116 1485.75 257.449C1486.03 257.786 1486.24 258.167 1486.39 258.593C1486.54 259.023 1486.61 259.477 1486.61 259.955C1486.61 260.73 1486.43 261.42 1486.06 262.026C1485.7 262.631 1485.2 263.108 1484.56 263.457C1483.93 263.807 1483.2 263.982 1482.38 263.982C1481.5 263.982 1480.71 263.775 1480.02 263.362C1479.33 262.952 1478.79 262.379 1478.4 261.642C1478.01 260.909 1477.82 260.057 1477.82 259.085ZM1479.99 259.072C1479.99 259.499 1480.1 259.88 1480.3 260.217C1480.51 260.553 1480.78 260.817 1481.13 261.009C1481.48 261.201 1481.87 261.297 1482.31 261.297C1482.74 261.297 1483.13 261.201 1483.48 261.009C1483.82 260.822 1484.1 260.562 1484.3 260.229C1484.51 259.897 1484.61 259.518 1484.61 259.092C1484.61 258.772 1484.55 258.476 1484.43 258.203C1484.31 257.935 1484.14 257.698 1483.93 257.494C1483.72 257.293 1483.47 257.136 1483.19 257.021C1482.91 256.906 1482.62 256.848 1482.3 256.848C1481.88 256.848 1481.49 256.944 1481.14 257.136C1480.8 257.332 1480.52 257.596 1480.31 257.928C1480.1 258.265 1479.99 258.646 1479.99 259.072ZM1477.71 271.077C1477.72 269.977 1477.99 269.031 1478.52 268.239C1479.06 267.45 1479.84 266.843 1480.86 266.417C1481.88 265.995 1483.1 265.786 1484.53 265.79C1485.96 265.79 1487.18 266.001 1488.18 266.423C1489.19 266.849 1489.95 267.457 1490.48 268.245C1491.01 269.038 1491.27 269.982 1491.27 271.077C1491.27 272.172 1491.01 273.114 1490.48 273.902C1489.95 274.695 1489.18 275.304 1488.18 275.73C1487.17 276.156 1485.96 276.367 1484.53 276.363C1483.1 276.363 1481.87 276.15 1480.85 275.724C1479.83 275.302 1479.05 274.697 1478.52 273.908C1477.98 273.12 1477.71 272.176 1477.71 271.077ZM1480.01 271.077C1480.01 271.827 1480.38 272.425 1481.14 272.873C1481.89 273.32 1483.02 273.542 1484.53 273.538C1485.53 273.538 1486.35 273.435 1487.01 273.231C1487.67 273.031 1488.17 272.745 1488.5 272.374C1488.83 272.008 1489 271.575 1489 271.077C1489 270.331 1488.63 269.734 1487.88 269.287C1487.14 268.839 1486.02 268.614 1484.53 268.609C1483.53 268.609 1482.69 268.71 1482.01 268.91C1481.35 269.114 1480.84 269.402 1480.51 269.773C1480.17 270.143 1480.01 270.578 1480.01 271.077ZM1477.82 283.118C1477.82 282.214 1477.99 281.409 1478.32 280.702C1478.65 279.998 1479.11 279.44 1479.69 279.027C1480.28 278.613 1480.95 278.398 1481.7 278.381V281.066C1481.19 281.096 1480.78 281.309 1480.47 281.705C1480.15 282.101 1479.99 282.572 1479.99 283.118C1479.99 283.552 1480.09 283.936 1480.28 284.268C1480.48 284.605 1480.75 284.867 1481.09 285.055C1481.44 285.246 1481.84 285.342 1482.3 285.342C1482.76 285.342 1483.16 285.244 1483.51 285.048C1483.86 284.856 1484.13 284.59 1484.33 284.249C1484.52 283.908 1484.62 283.518 1484.63 283.079C1484.63 282.696 1484.55 282.323 1484.39 281.961C1484.23 281.603 1484.02 281.324 1483.75 281.123L1484.19 278.662L1491.09 279.282V287.285H1488.83V281.564L1485.55 281.226V281.302C1485.87 281.532 1486.14 281.88 1486.35 282.344C1486.57 282.809 1486.67 283.329 1486.67 283.904C1486.67 284.692 1486.49 285.395 1486.12 286.013C1485.75 286.631 1485.24 287.119 1484.59 287.477C1483.95 287.835 1483.21 288.012 1482.37 288.008C1481.48 288.012 1480.7 287.807 1480.01 287.394C1479.33 286.985 1478.79 286.412 1478.4 285.675C1478.01 284.942 1477.82 284.089 1477.82 283.118Z" fill="white"/>
<path d="M1477.82 398.085C1477.83 397.412 1477.94 396.762 1478.16 396.136C1478.38 395.513 1478.74 394.955 1479.24 394.461C1479.74 393.967 1480.4 393.575 1481.22 393.285C1482.04 392.999 1483.05 392.857 1484.25 392.857C1485.35 392.861 1486.33 392.987 1487.2 393.234C1488.07 393.485 1488.8 393.843 1489.41 394.308C1490.01 394.776 1490.48 395.337 1490.79 395.989C1491.11 396.641 1491.27 397.371 1491.27 398.181C1491.27 399.055 1491.1 399.826 1490.76 400.495C1490.42 401.164 1489.96 401.701 1489.38 402.106C1488.8 402.515 1488.15 402.762 1487.43 402.847V400.118C1487.89 400.011 1488.25 399.788 1488.51 399.447C1488.77 399.106 1488.9 398.684 1488.9 398.181C1488.9 397.329 1488.53 396.681 1487.79 396.238C1487.04 395.799 1486.04 395.575 1484.76 395.567V395.656C1485.15 395.852 1485.48 396.116 1485.75 396.449C1486.03 396.786 1486.24 397.167 1486.39 397.593C1486.54 398.023 1486.61 398.477 1486.61 398.955C1486.61 399.73 1486.43 400.42 1486.06 401.026C1485.7 401.631 1485.2 402.108 1484.56 402.457C1483.93 402.807 1483.2 402.982 1482.38 402.982C1481.5 402.982 1480.71 402.775 1480.02 402.362C1479.33 401.952 1478.79 401.379 1478.4 400.642C1478.01 399.909 1477.82 399.057 1477.82 398.085ZM1479.99 398.072C1479.99 398.499 1480.1 398.88 1480.3 399.217C1480.51 399.553 1480.78 399.817 1481.13 400.009C1481.48 400.201 1481.87 400.297 1482.31 400.297C1482.74 400.297 1483.13 400.201 1483.48 400.009C1483.82 399.822 1484.1 399.562 1484.3 399.229C1484.51 398.897 1484.61 398.518 1484.61 398.092C1484.61 397.772 1484.55 397.476 1484.43 397.203C1484.31 396.935 1484.14 396.698 1483.93 396.494C1483.72 396.293 1483.47 396.136 1483.19 396.021C1482.91 395.906 1482.62 395.848 1482.3 395.848C1481.88 395.848 1481.49 395.944 1481.14 396.136C1480.8 396.332 1480.52 396.596 1480.31 396.928C1480.1 397.265 1479.99 397.646 1479.99 398.072ZM1477.71 410.077C1477.72 408.977 1477.99 408.031 1478.52 407.239C1479.06 406.45 1479.84 405.843 1480.86 405.417C1481.88 404.995 1483.1 404.786 1484.53 404.79C1485.96 404.79 1487.18 405.001 1488.18 405.423C1489.19 405.849 1489.95 406.457 1490.48 407.245C1491.01 408.038 1491.27 408.982 1491.27 410.077C1491.27 411.172 1491.01 412.114 1490.48 412.902C1489.95 413.695 1489.18 414.304 1488.18 414.73C1487.17 415.156 1485.96 415.367 1484.53 415.363C1483.1 415.363 1481.87 415.15 1480.85 414.724C1479.83 414.302 1479.05 413.697 1478.52 412.908C1477.98 412.12 1477.71 411.176 1477.71 410.077ZM1480.01 410.077C1480.01 410.827 1480.38 411.425 1481.14 411.873C1481.89 412.32 1483.02 412.542 1484.53 412.538C1485.53 412.538 1486.35 412.435 1487.01 412.231C1487.67 412.031 1488.17 411.745 1488.5 411.374C1488.83 411.008 1489 410.575 1489 410.077C1489 409.331 1488.63 408.734 1487.88 408.287C1487.14 407.839 1486.02 407.614 1484.53 407.609C1483.53 407.609 1482.69 407.71 1482.01 407.91C1481.35 408.114 1480.84 408.402 1480.51 408.773C1480.17 409.143 1480.01 409.578 1480.01 410.077ZM1477.82 422.361C1477.83 421.687 1477.94 421.037 1478.16 420.411C1478.38 419.789 1478.74 419.231 1479.24 418.736C1479.74 418.242 1480.4 417.85 1481.22 417.56C1482.04 417.275 1483.05 417.132 1484.25 417.132C1485.35 417.136 1486.33 417.262 1487.2 417.509C1488.07 417.76 1488.8 418.118 1489.41 418.583C1490.01 419.052 1490.48 419.612 1490.79 420.264C1491.11 420.916 1491.27 421.647 1491.27 422.456C1491.27 423.33 1491.1 424.101 1490.76 424.77C1490.42 425.439 1489.96 425.976 1489.38 426.381C1488.8 426.79 1488.15 427.037 1487.43 427.123V424.393C1487.89 424.287 1488.25 424.063 1488.51 423.722C1488.77 423.381 1488.9 422.959 1488.9 422.456C1488.9 421.604 1488.53 420.956 1487.79 420.513C1487.04 420.074 1486.04 419.851 1484.76 419.842V419.932C1485.15 420.128 1485.48 420.392 1485.75 420.724C1486.03 421.061 1486.24 421.442 1486.39 421.868C1486.54 422.299 1486.61 422.753 1486.61 423.23C1486.61 424.006 1486.43 424.696 1486.06 425.301C1485.7 425.906 1485.2 426.383 1484.56 426.733C1483.93 427.082 1483.2 427.257 1482.38 427.257C1481.5 427.257 1480.71 427.05 1480.02 426.637C1479.33 426.228 1478.79 425.655 1478.4 424.917C1478.01 424.184 1477.82 423.332 1477.82 422.361ZM1479.99 422.348C1479.99 422.774 1480.1 423.155 1480.3 423.492C1480.51 423.829 1480.78 424.093 1481.13 424.285C1481.48 424.476 1481.87 424.572 1482.31 424.572C1482.74 424.572 1483.13 424.476 1483.48 424.285C1483.82 424.097 1484.1 423.837 1484.3 423.505C1484.51 423.172 1484.61 422.793 1484.61 422.367C1484.61 422.047 1484.55 421.751 1484.43 421.479C1484.31 421.21 1484.14 420.974 1483.93 420.769C1483.72 420.569 1483.47 420.411 1483.19 420.296C1482.91 420.181 1482.62 420.123 1482.3 420.123C1481.88 420.123 1481.49 420.219 1481.14 420.411C1480.8 420.607 1480.52 420.871 1480.31 421.204C1480.1 421.54 1479.99 421.922 1479.99 422.348Z" fill="white"/>
<path d="M380.085 29.179C379.412 29.1747 378.762 29.0618 378.136 28.8402C377.513 28.6186 376.955 28.2585 376.461 27.7599C375.967 27.2614 375.575 26.6009 375.285 25.7784C374.999 24.956 374.857 23.946 374.857 22.7486C374.861 21.6491 374.987 20.6669 375.234 19.8018C375.485 18.9325 375.843 18.1953 376.308 17.5902C376.776 16.9851 377.337 16.5249 377.989 16.2095C378.641 15.8899 379.371 15.7301 380.181 15.7301C381.055 15.7301 381.826 15.9006 382.495 16.2415C383.164 16.5781 383.701 17.0362 384.106 17.6158C384.515 18.1953 384.762 18.8452 384.847 19.5653H382.118C382.011 19.1094 381.788 18.7514 381.447 18.4915C381.106 18.2315 380.684 18.1016 380.181 18.1016C379.329 18.1016 378.681 18.4723 378.238 19.2138C377.799 19.9553 377.575 20.9631 377.567 22.2372H377.656C377.852 21.8494 378.116 21.5192 378.449 21.2464C378.786 20.9695 379.167 20.7585 379.593 20.6136C380.023 20.4645 380.477 20.3899 380.955 20.3899C381.73 20.3899 382.42 20.5732 383.026 20.9396C383.631 21.3018 384.108 21.8004 384.457 22.4354C384.807 23.0703 384.982 23.7969 384.982 24.6151C384.982 25.5014 384.775 26.2898 384.362 26.9801C383.952 27.6705 383.379 28.2116 382.642 28.6037C381.909 28.9915 381.057 29.1832 380.085 29.179ZM380.072 27.0057C380.499 27.0057 380.88 26.9034 381.217 26.6989C381.553 26.4943 381.817 26.2173 382.009 25.8679C382.201 25.5185 382.297 25.1264 382.297 24.6918C382.297 24.2571 382.201 23.8672 382.009 23.522C381.822 23.1768 381.562 22.902 381.229 22.6974C380.897 22.4929 380.518 22.3906 380.092 22.3906C379.772 22.3906 379.476 22.4503 379.203 22.5696C378.935 22.6889 378.698 22.8551 378.494 23.0682C378.293 23.2812 378.136 23.5284 378.021 23.8097C377.906 24.0866 377.848 24.3828 377.848 24.6982C377.848 25.12 377.944 25.5057 378.136 25.8551C378.332 26.2045 378.596 26.4837 378.928 26.6925C379.265 26.9013 379.646 27.0057 380.072 27.0057ZM386.944 29V27.0057L391.604 22.6911C392 22.3075 392.332 21.9624 392.601 21.6555C392.874 21.3487 393.08 21.0483 393.221 20.7543C393.362 20.456 393.432 20.1342 393.432 19.7891C393.432 19.4055 393.344 19.0753 393.17 18.7983C392.995 18.517 392.756 18.3018 392.454 18.1527C392.151 17.9993 391.808 17.9226 391.425 17.9226C391.024 17.9226 390.675 18.0036 390.376 18.1655C390.078 18.3274 389.848 18.5597 389.686 18.8622C389.524 19.1648 389.443 19.5249 389.443 19.9425H386.816C386.816 19.0859 387.01 18.3423 387.398 17.7116C387.786 17.081 388.329 16.593 389.028 16.2479C389.727 15.9027 390.532 15.7301 391.444 15.7301C392.381 15.7301 393.197 15.8963 393.892 16.2287C394.591 16.5568 395.134 17.0128 395.522 17.5966C395.91 18.1804 396.104 18.8494 396.104 19.6037C396.104 20.098 396.006 20.5859 395.81 21.0675C395.618 21.549 395.275 22.0838 394.781 22.6719C394.286 23.2557 393.589 23.9567 392.69 24.7749L390.779 26.6477V26.7372H396.276V29H386.944ZM403.121 29.179C402.166 29.179 401.316 29.0149 400.57 28.6868C399.829 28.3544 399.243 27.8984 398.812 27.3189C398.386 26.7351 398.167 26.0618 398.154 25.299H400.941C400.958 25.6186 401.062 25.8999 401.254 26.1428C401.45 26.3814 401.71 26.5668 402.034 26.6989C402.358 26.831 402.722 26.897 403.127 26.897C403.549 26.897 403.922 26.8224 404.246 26.6733C404.569 26.5241 404.823 26.3175 405.006 26.0533C405.189 25.7891 405.281 25.4844 405.281 25.1392C405.281 24.7898 405.183 24.4808 404.987 24.2124C404.795 23.9396 404.518 23.7266 404.156 23.5732C403.798 23.4197 403.372 23.343 402.878 23.343H401.657V21.3104H402.878C403.295 21.3104 403.664 21.2379 403.983 21.093C404.307 20.9482 404.559 20.7479 404.738 20.4922C404.917 20.2322 405.006 19.9297 405.006 19.5845C405.006 19.2564 404.927 18.9688 404.77 18.7216C404.616 18.4702 404.399 18.2741 404.118 18.1335C403.841 17.9929 403.517 17.9226 403.146 17.9226C402.771 17.9226 402.428 17.9908 402.117 18.1271C401.806 18.2592 401.557 18.4489 401.369 18.696C401.182 18.9432 401.081 19.233 401.069 19.5653H398.416C398.429 18.8111 398.644 18.1463 399.062 17.571C399.479 16.9957 400.042 16.5462 400.749 16.2223C401.461 15.8942 402.264 15.7301 403.159 15.7301C404.062 15.7301 404.853 15.8942 405.53 16.2223C406.208 16.5504 406.734 16.9936 407.109 17.5518C407.488 18.1058 407.676 18.728 407.672 19.4183C407.676 20.1513 407.448 20.7628 406.988 21.2528C406.532 21.7429 405.937 22.054 405.204 22.1861V22.2884C406.167 22.4119 406.9 22.7464 407.403 23.2919C407.91 23.8331 408.162 24.5107 408.157 25.3246C408.162 26.0703 407.947 26.733 407.512 27.3125C407.081 27.892 406.487 28.348 405.729 28.6804C404.97 29.0128 404.101 29.179 403.121 29.179Z" fill="white"/>
<path d="M49.0852 188.179C48.4119 188.175 47.7621 188.062 47.1357 187.84C46.5135 187.619 45.9553 187.259 45.4609 186.76C44.9666 186.261 44.5746 185.601 44.2848 184.778C43.9993 183.956 43.8565 182.946 43.8565 181.749C43.8608 180.649 43.9865 179.667 44.2337 178.802C44.4851 177.933 44.843 177.195 45.3075 176.59C45.7763 175.985 46.3366 175.525 46.9886 175.21C47.6406 174.89 48.3714 174.73 49.1811 174.73C50.0547 174.73 50.826 174.901 51.495 175.241C52.1641 175.578 52.701 176.036 53.1058 176.616C53.5149 177.195 53.7621 177.845 53.8473 178.565H51.1179C51.0114 178.109 50.7876 177.751 50.4467 177.491C50.1058 177.232 49.6839 177.102 49.1811 177.102C48.3288 177.102 47.6811 177.472 47.2379 178.214C46.799 178.955 46.5753 179.963 46.5668 181.237H46.6562C46.8523 180.849 47.1165 180.519 47.4489 180.246C47.7855 179.969 48.1669 179.759 48.593 179.614C49.0234 179.464 49.4773 179.39 49.9545 179.39C50.7301 179.39 51.4205 179.573 52.0256 179.94C52.6307 180.302 53.108 180.8 53.4574 181.435C53.8068 182.07 53.9815 182.797 53.9815 183.615C53.9815 184.501 53.7749 185.29 53.3615 185.98C52.9524 186.67 52.3793 187.212 51.642 187.604C50.9091 187.991 50.0568 188.183 49.0852 188.179ZM49.0724 186.006C49.4986 186.006 49.88 185.903 50.2166 185.699C50.5533 185.494 50.8175 185.217 51.0092 184.868C51.201 184.518 51.2969 184.126 51.2969 183.692C51.2969 183.257 51.201 182.867 51.0092 182.522C50.8217 182.177 50.5618 181.902 50.2294 181.697C49.897 181.493 49.5178 181.391 49.0916 181.391C48.772 181.391 48.4759 181.45 48.2031 181.57C47.9347 181.689 47.6982 181.855 47.4936 182.068C47.2933 182.281 47.1357 182.528 47.0206 182.81C46.9055 183.087 46.848 183.383 46.848 183.698C46.848 184.12 46.9439 184.506 47.1357 184.855C47.3317 185.205 47.5959 185.484 47.9283 185.692C48.2649 185.901 48.6463 186.006 49.0724 186.006ZM61.6392 174.909V188H58.8714V177.536H58.7947L55.7969 179.415V176.961L59.0376 174.909H61.6392ZM69.487 174.73C70.1603 174.73 70.8081 174.843 71.4302 175.069C72.0566 175.295 72.6149 175.655 73.1049 176.149C73.5993 176.643 73.9892 177.3 74.2747 178.118C74.5645 178.932 74.7115 179.931 74.7157 181.116C74.7157 182.228 74.59 183.221 74.3386 184.094C74.0914 184.964 73.7356 185.703 73.2711 186.312C72.8066 186.922 72.2463 187.386 71.59 187.706C70.9338 188.021 70.2008 188.179 69.3912 188.179C68.5176 188.179 67.7463 188.011 67.0772 187.674C66.4082 187.333 65.8691 186.871 65.46 186.287C65.0552 185.699 64.8102 185.038 64.725 184.305H67.4544C67.5609 184.783 67.7846 185.153 68.1255 185.418C68.4664 185.678 68.8883 185.808 69.3912 185.808C70.2434 185.808 70.8912 185.437 71.3343 184.695C71.7775 183.95 72.0012 182.929 72.0055 181.634H71.916C71.72 182.017 71.4558 182.347 71.1234 182.624C70.791 182.897 70.4096 183.108 69.9792 183.257C69.5531 183.406 69.0993 183.481 68.6177 183.481C67.8464 183.481 67.1582 183.3 66.5531 182.938C65.948 182.575 65.4707 182.077 65.1213 181.442C64.7718 180.807 64.5971 180.082 64.5971 179.268C64.5929 178.391 64.7953 177.609 65.2044 176.923C65.6135 176.237 66.1845 175.7 66.9174 175.312C67.6547 174.92 68.5112 174.726 69.487 174.73ZM69.5062 176.903C69.0758 176.903 68.6923 177.006 68.3556 177.21C68.0233 177.415 67.7591 177.69 67.563 178.035C67.3713 178.38 67.2775 178.766 67.2818 179.192C67.2818 179.622 67.3755 180.01 67.563 180.355C67.7548 180.696 68.0147 180.969 68.3429 181.173C68.6752 181.374 69.0545 181.474 69.4806 181.474C69.8002 181.474 70.0964 181.414 70.3691 181.295C70.6419 181.175 70.8784 181.011 71.0787 180.803C71.2832 180.589 71.443 180.344 71.5581 180.067C71.6731 179.79 71.7306 179.496 71.7306 179.185C71.7264 178.772 71.6284 178.393 71.4366 178.048C71.2449 177.702 70.9806 177.425 70.644 177.217C70.3074 177.008 69.9281 176.903 69.5062 176.903Z" fill="white"/>
<path d="M41.0852 478.179C40.4119 478.175 39.7621 478.062 39.1357 477.84C38.5135 477.619 37.9553 477.259 37.4609 476.76C36.9666 476.261 36.5746 475.601 36.2848 474.778C35.9993 473.956 35.8565 472.946 35.8565 471.749C35.8608 470.649 35.9865 469.667 36.2337 468.802C36.4851 467.933 36.843 467.195 37.3075 466.59C37.7763 465.985 38.3366 465.525 38.9886 465.21C39.6406 464.89 40.3714 464.73 41.1811 464.73C42.0547 464.73 42.826 464.901 43.495 465.241C44.1641 465.578 44.701 466.036 45.1058 466.616C45.5149 467.195 45.7621 467.845 45.8473 468.565H43.1179C43.0114 468.109 42.7876 467.751 42.4467 467.491C42.1058 467.232 41.6839 467.102 41.1811 467.102C40.3288 467.102 39.6811 467.472 39.2379 468.214C38.799 468.955 38.5753 469.963 38.5668 471.237H38.6562C38.8523 470.849 39.1165 470.519 39.4489 470.246C39.7855 469.969 40.1669 469.759 40.593 469.614C41.0234 469.464 41.4773 469.39 41.9545 469.39C42.7301 469.39 43.4205 469.573 44.0256 469.94C44.6307 470.302 45.108 470.8 45.4574 471.435C45.8068 472.07 45.9815 472.797 45.9815 473.615C45.9815 474.501 45.7749 475.29 45.3615 475.98C44.9524 476.67 44.3793 477.212 43.642 477.604C42.9091 477.991 42.0568 478.183 41.0852 478.179ZM41.0724 476.006C41.4986 476.006 41.88 475.903 42.2166 475.699C42.5533 475.494 42.8175 475.217 43.0092 474.868C43.201 474.518 43.2969 474.126 43.2969 473.692C43.2969 473.257 43.201 472.867 43.0092 472.522C42.8217 472.177 42.5618 471.902 42.2294 471.697C41.897 471.493 41.5178 471.391 41.0916 471.391C40.772 471.391 40.4759 471.45 40.2031 471.57C39.9347 471.689 39.6982 471.855 39.4936 472.068C39.2933 472.281 39.1357 472.528 39.0206 472.81C38.9055 473.087 38.848 473.383 38.848 473.698C38.848 474.12 38.9439 474.506 39.1357 474.855C39.3317 475.205 39.5959 475.484 39.9283 475.692C40.2649 475.901 40.6463 476.006 41.0724 476.006ZM53.6392 464.909V478H50.8714V467.536H50.7947L47.7969 469.415V466.961L51.0376 464.909H53.6392ZM61.6341 478.179C60.6497 478.179 59.774 478.019 59.0069 477.7C58.2441 477.376 57.6454 476.935 57.2108 476.376C56.7761 475.818 56.5588 475.185 56.5588 474.478C56.5588 473.933 56.6824 473.432 56.9295 472.976C57.1809 472.516 57.5218 472.134 57.9522 471.832C58.3826 471.525 58.8642 471.329 59.3968 471.244V471.154C58.698 471.013 58.1312 470.675 57.6966 470.138C57.2619 469.597 57.0446 468.968 57.0446 468.252C57.0446 467.575 57.2427 466.972 57.639 466.443C58.0353 465.911 58.5787 465.493 59.269 465.19C59.9636 464.884 60.752 464.73 61.6341 464.73C62.5162 464.73 63.3024 464.884 63.9927 465.19C64.6873 465.497 65.2328 465.917 65.6291 466.45C66.0254 466.978 66.2257 467.579 66.2299 468.252C66.2257 468.972 66.0041 469.601 65.5652 470.138C65.1262 470.675 64.5637 471.013 63.8777 471.154V471.244C64.4018 471.329 64.877 471.525 65.3031 471.832C65.7335 472.134 66.0744 472.516 66.3258 472.976C66.5815 473.432 66.7115 473.933 66.7157 474.478C66.7115 475.185 66.492 475.818 66.0574 476.376C65.6227 476.935 65.0218 477.376 64.2548 477.7C63.492 478.019 62.6184 478.179 61.6341 478.179ZM61.6341 476.146C62.073 476.146 62.4565 476.067 62.7846 475.91C63.1127 475.748 63.3684 475.526 63.5517 475.245C63.7392 474.96 63.8329 474.631 63.8329 474.261C63.8329 473.881 63.737 473.547 63.5453 473.257C63.3535 472.963 63.0936 472.733 62.7654 472.567C62.4373 472.396 62.0602 472.311 61.6341 472.311C61.2122 472.311 60.835 472.396 60.5027 472.567C60.1703 472.733 59.9082 472.963 59.7164 473.257C59.5289 473.547 59.4352 473.881 59.4352 474.261C59.4352 474.631 59.5268 474.96 59.71 475.245C59.8933 475.526 60.1511 475.748 60.4835 475.91C60.8159 476.067 61.1994 476.146 61.6341 476.146ZM61.6341 470.298C62.0005 470.298 62.3265 470.223 62.612 470.074C62.8975 469.925 63.1213 469.718 63.2832 469.454C63.4451 469.19 63.5261 468.885 63.5261 468.54C63.5261 468.199 63.4451 467.901 63.2832 467.645C63.1213 467.385 62.8997 467.183 62.6184 467.038C62.3372 466.888 62.0091 466.814 61.6341 466.814C61.2633 466.814 60.9352 466.888 60.6497 467.038C60.3642 467.183 60.1404 467.385 59.9785 467.645C59.8208 467.901 59.742 468.199 59.742 468.54C59.742 468.885 59.823 469.19 59.9849 469.454C60.1468 469.718 60.3706 469.925 60.6561 470.074C60.9416 470.223 61.2676 470.298 61.6341 470.298Z" fill="white"/>
<path d="M128.085 478.179C127.412 478.175 126.762 478.062 126.136 477.84C125.513 477.619 124.955 477.259 124.461 476.76C123.967 476.261 123.575 475.601 123.285 474.778C122.999 473.956 122.857 472.946 122.857 471.749C122.861 470.649 122.987 469.667 123.234 468.802C123.485 467.933 123.843 467.195 124.308 466.59C124.776 465.985 125.337 465.525 125.989 465.21C126.641 464.89 127.371 464.73 128.181 464.73C129.055 464.73 129.826 464.901 130.495 465.241C131.164 465.578 131.701 466.036 132.106 466.616C132.515 467.195 132.762 467.845 132.847 468.565H130.118C130.011 468.109 129.788 467.751 129.447 467.491C129.106 467.232 128.684 467.102 128.181 467.102C127.329 467.102 126.681 467.472 126.238 468.214C125.799 468.955 125.575 469.963 125.567 471.237H125.656C125.852 470.849 126.116 470.519 126.449 470.246C126.786 469.969 127.167 469.759 127.593 469.614C128.023 469.464 128.477 469.39 128.955 469.39C129.73 469.39 130.42 469.573 131.026 469.94C131.631 470.302 132.108 470.8 132.457 471.435C132.807 472.07 132.982 472.797 132.982 473.615C132.982 474.501 132.775 475.29 132.362 475.98C131.952 476.67 131.379 477.212 130.642 477.604C129.909 477.991 129.057 478.183 128.085 478.179ZM128.072 476.006C128.499 476.006 128.88 475.903 129.217 475.699C129.553 475.494 129.817 475.217 130.009 474.868C130.201 474.518 130.297 474.126 130.297 473.692C130.297 473.257 130.201 472.867 130.009 472.522C129.822 472.177 129.562 471.902 129.229 471.697C128.897 471.493 128.518 471.391 128.092 471.391C127.772 471.391 127.476 471.45 127.203 471.57C126.935 471.689 126.698 471.855 126.494 472.068C126.293 472.281 126.136 472.528 126.021 472.81C125.906 473.087 125.848 473.383 125.848 473.698C125.848 474.12 125.944 474.506 126.136 474.855C126.332 475.205 126.596 475.484 126.928 475.692C127.265 475.901 127.646 476.006 128.072 476.006ZM140.639 464.909V478H137.871V467.536H137.795L134.797 469.415V466.961L138.038 464.909H140.639ZM144.268 478L149.695 467.261V467.172H143.373V464.909H152.559V467.204L147.126 478H144.268Z" fill="white"/>
<path d="M212.085 478.179C211.412 478.175 210.762 478.062 210.136 477.84C209.513 477.619 208.955 477.259 208.461 476.76C207.967 476.261 207.575 475.601 207.285 474.778C206.999 473.956 206.857 472.946 206.857 471.749C206.861 470.649 206.987 469.667 207.234 468.802C207.485 467.933 207.843 467.195 208.308 466.59C208.776 465.985 209.337 465.525 209.989 465.21C210.641 464.89 211.371 464.73 212.181 464.73C213.055 464.73 213.826 464.901 214.495 465.241C215.164 465.578 215.701 466.036 216.106 466.616C216.515 467.195 216.762 467.845 216.847 468.565H214.118C214.011 468.109 213.788 467.751 213.447 467.491C213.106 467.232 212.684 467.102 212.181 467.102C211.329 467.102 210.681 467.472 210.238 468.214C209.799 468.955 209.575 469.963 209.567 471.237H209.656C209.852 470.849 210.116 470.519 210.449 470.246C210.786 469.969 211.167 469.759 211.593 469.614C212.023 469.464 212.477 469.39 212.955 469.39C213.73 469.39 214.42 469.573 215.026 469.94C215.631 470.302 216.108 470.8 216.457 471.435C216.807 472.07 216.982 472.797 216.982 473.615C216.982 474.501 216.775 475.29 216.362 475.98C215.952 476.67 215.379 477.212 214.642 477.604C213.909 477.991 213.057 478.183 212.085 478.179ZM212.072 476.006C212.499 476.006 212.88 475.903 213.217 475.699C213.553 475.494 213.817 475.217 214.009 474.868C214.201 474.518 214.297 474.126 214.297 473.692C214.297 473.257 214.201 472.867 214.009 472.522C213.822 472.177 213.562 471.902 213.229 471.697C212.897 471.493 212.518 471.391 212.092 471.391C211.772 471.391 211.476 471.45 211.203 471.57C210.935 471.689 210.698 471.855 210.494 472.068C210.293 472.281 210.136 472.528 210.021 472.81C209.906 473.087 209.848 473.383 209.848 473.698C209.848 474.12 209.944 474.506 210.136 474.855C210.332 475.205 210.596 475.484 210.928 475.692C211.265 475.901 211.646 476.006 212.072 476.006ZM224.639 464.909V478H221.871V467.536H221.795L218.797 469.415V466.961L222.038 464.909H224.639ZM232.775 478.179C232.101 478.175 231.452 478.062 230.825 477.84C230.203 477.619 229.645 477.259 229.15 476.76C228.656 476.261 228.264 475.601 227.974 474.778C227.689 473.956 227.546 472.946 227.546 471.749C227.55 470.649 227.676 469.667 227.923 468.802C228.175 467.933 228.532 467.195 228.997 466.59C229.466 465.985 230.026 465.525 230.678 465.21C231.33 464.89 232.061 464.73 232.871 464.73C233.744 464.73 234.515 464.901 235.184 465.241C235.854 465.578 236.39 466.036 236.795 466.616C237.204 467.195 237.452 467.845 237.537 468.565H234.807C234.701 468.109 234.477 467.751 234.136 467.491C233.795 467.232 233.373 467.102 232.871 467.102C232.018 467.102 231.371 467.472 230.927 468.214C230.488 468.955 230.265 469.963 230.256 471.237H230.346C230.542 470.849 230.806 470.519 231.138 470.246C231.475 469.969 231.856 469.759 232.282 469.614C232.713 469.464 233.167 469.39 233.644 469.39C234.42 469.39 235.11 469.573 235.715 469.94C236.32 470.302 236.797 470.8 237.147 471.435C237.496 472.07 237.671 472.797 237.671 473.615C237.671 474.501 237.464 475.29 237.051 475.98C236.642 476.67 236.069 477.212 235.331 477.604C234.599 477.991 233.746 478.183 232.775 478.179ZM232.762 476.006C233.188 476.006 233.569 475.903 233.906 475.699C234.243 475.494 234.507 475.217 234.699 474.868C234.89 474.518 234.986 474.126 234.986 473.692C234.986 473.257 234.89 472.867 234.699 472.522C234.511 472.177 234.251 471.902 233.919 471.697C233.586 471.493 233.207 471.391 232.781 471.391C232.461 471.391 232.165 471.45 231.893 471.57C231.624 471.689 231.388 471.855 231.183 472.068C230.983 472.281 230.825 472.528 230.71 472.81C230.595 473.087 230.537 473.383 230.537 473.698C230.537 474.12 230.633 474.506 230.825 474.855C231.021 475.205 231.285 475.484 231.618 475.692C231.954 475.901 232.336 476.006 232.762 476.006Z" fill="white"/>
<path d="M302.085 478.179C301.412 478.175 300.762 478.062 300.136 477.84C299.513 477.619 298.955 477.259 298.461 476.76C297.967 476.261 297.575 475.601 297.285 474.778C296.999 473.956 296.857 472.946 296.857 471.749C296.861 470.649 296.987 469.667 297.234 468.802C297.485 467.933 297.843 467.195 298.308 466.59C298.776 465.985 299.337 465.525 299.989 465.21C300.641 464.89 301.371 464.73 302.181 464.73C303.055 464.73 303.826 464.901 304.495 465.241C305.164 465.578 305.701 466.036 306.106 466.616C306.515 467.195 306.762 467.845 306.847 468.565H304.118C304.011 468.109 303.788 467.751 303.447 467.491C303.106 467.232 302.684 467.102 302.181 467.102C301.329 467.102 300.681 467.472 300.238 468.214C299.799 468.955 299.575 469.963 299.567 471.237H299.656C299.852 470.849 300.116 470.519 300.449 470.246C300.786 469.969 301.167 469.759 301.593 469.614C302.023 469.464 302.477 469.39 302.955 469.39C303.73 469.39 304.42 469.573 305.026 469.94C305.631 470.302 306.108 470.8 306.457 471.435C306.807 472.07 306.982 472.797 306.982 473.615C306.982 474.501 306.775 475.29 306.362 475.98C305.952 476.67 305.379 477.212 304.642 477.604C303.909 477.991 303.057 478.183 302.085 478.179ZM302.072 476.006C302.499 476.006 302.88 475.903 303.217 475.699C303.553 475.494 303.817 475.217 304.009 474.868C304.201 474.518 304.297 474.126 304.297 473.692C304.297 473.257 304.201 472.867 304.009 472.522C303.822 472.177 303.562 471.902 303.229 471.697C302.897 471.493 302.518 471.391 302.092 471.391C301.772 471.391 301.476 471.45 301.203 471.57C300.935 471.689 300.698 471.855 300.494 472.068C300.293 472.281 300.136 472.528 300.021 472.81C299.906 473.087 299.848 473.383 299.848 473.698C299.848 474.12 299.944 474.506 300.136 474.855C300.332 475.205 300.596 475.484 300.928 475.692C301.265 475.901 301.646 476.006 302.072 476.006ZM314.639 464.909V478H311.871V467.536H311.795L308.797 469.415V466.961L312.038 464.909H314.639ZM322.532 478.179C321.628 478.179 320.823 478.013 320.116 477.68C319.412 477.348 318.854 476.89 318.441 476.306C318.028 475.722 317.812 475.053 317.795 474.299H320.48C320.51 474.806 320.723 475.217 321.119 475.533C321.515 475.848 321.986 476.006 322.532 476.006C322.966 476.006 323.35 475.91 323.682 475.718C324.019 475.522 324.281 475.251 324.469 474.906C324.66 474.557 324.756 474.156 324.756 473.705C324.756 473.244 324.658 472.839 324.462 472.49C324.27 472.141 324.004 471.868 323.663 471.672C323.322 471.476 322.932 471.376 322.493 471.371C322.11 471.371 321.737 471.45 321.375 471.608C321.017 471.766 320.738 471.981 320.537 472.254L318.077 471.812L318.697 464.909H326.699V467.172H320.979L320.64 470.451H320.716C320.947 470.127 321.294 469.859 321.758 469.646C322.223 469.433 322.743 469.326 323.318 469.326C324.106 469.326 324.809 469.511 325.427 469.882C326.045 470.253 326.533 470.762 326.891 471.41C327.249 472.053 327.426 472.795 327.422 473.634C327.426 474.516 327.221 475.3 326.808 475.987C326.399 476.668 325.826 477.205 325.089 477.597C324.356 477.985 323.503 478.179 322.532 478.179Z" fill="white"/>
<path d="M501.085 479.179C500.412 479.175 499.762 479.062 499.136 478.84C498.513 478.619 497.955 478.259 497.461 477.76C496.967 477.261 496.575 476.601 496.285 475.778C495.999 474.956 495.857 473.946 495.857 472.749C495.861 471.649 495.987 470.667 496.234 469.802C496.485 468.933 496.843 468.195 497.308 467.59C497.776 466.985 498.337 466.525 498.989 466.21C499.641 465.89 500.371 465.73 501.181 465.73C502.055 465.73 502.826 465.901 503.495 466.241C504.164 466.578 504.701 467.036 505.106 467.616C505.515 468.195 505.762 468.845 505.847 469.565H503.118C503.011 469.109 502.788 468.751 502.447 468.491C502.106 468.232 501.684 468.102 501.181 468.102C500.329 468.102 499.681 468.472 499.238 469.214C498.799 469.955 498.575 470.963 498.567 472.237H498.656C498.852 471.849 499.116 471.519 499.449 471.246C499.786 470.969 500.167 470.759 500.593 470.614C501.023 470.464 501.477 470.39 501.955 470.39C502.73 470.39 503.42 470.573 504.026 470.94C504.631 471.302 505.108 471.8 505.457 472.435C505.807 473.07 505.982 473.797 505.982 474.615C505.982 475.501 505.775 476.29 505.362 476.98C504.952 477.67 504.379 478.212 503.642 478.604C502.909 478.991 502.057 479.183 501.085 479.179ZM501.072 477.006C501.499 477.006 501.88 476.903 502.217 476.699C502.553 476.494 502.817 476.217 503.009 475.868C503.201 475.518 503.297 475.126 503.297 474.692C503.297 474.257 503.201 473.867 503.009 473.522C502.822 473.177 502.562 472.902 502.229 472.697C501.897 472.493 501.518 472.391 501.092 472.391C500.772 472.391 500.476 472.45 500.203 472.57C499.935 472.689 499.698 472.855 499.494 473.068C499.293 473.281 499.136 473.528 499.021 473.81C498.906 474.087 498.848 474.383 498.848 474.698C498.848 475.12 498.944 475.506 499.136 475.855C499.332 476.205 499.596 476.484 499.928 476.692C500.265 476.901 500.646 477.006 501.072 477.006ZM513.639 465.909V479H510.871V468.536H510.795L507.797 470.415V467.961L511.038 465.909H513.639ZM516.552 476.699V474.519L522.018 465.909H523.897V468.926H522.785L519.339 474.379V474.481H527.106V476.699H516.552ZM522.836 479V476.034L522.887 475.069V465.909H525.482V479H522.836Z" fill="white"/>
<rect x="688" y="276" width="111" height="214" fill="#FFF5ED" stroke="#41414A" stroke-width="6"/>
<rect x="799" y="276" width="76" height="214" fill="white" stroke="#41414A" stroke-width="6"/>
<rect x="875" y="276" width="77" height="214" fill="white" stroke="#41414A" stroke-width="6"/>
<rect x="952" y="276" width="74" height="214" fill="white" stroke="#41414A" stroke-width="6"/>
<rect x="1026" y="276" width="79" height="214" fill="white" stroke="#41414A" stroke-width="6"/>
<rect x="1106" y="276" width="154" height="214" fill="white" stroke="#41414A" stroke-width="6"/>
<rect x="657" y="333" width="83" height="157" fill="#FFF5ED" stroke="#41414A" stroke-width="6"/>
<mask id="path-73-inside-1_409_5" fill="white">
<path fill-rule="evenodd" clip-rule="evenodd" d="M711 1H643V141H718V62H743V1H718H711Z"/>
</mask>
<path fill-rule="evenodd" clip-rule="evenodd" d="M711 1H643V141H718V62H743V1H718H711Z" fill="white"/>
<path d="M643 1V-5H637V1H643ZM643 141H637V147H643V141ZM718 141V147H724V141H718ZM718 62V56H712V62H718ZM743 62V68H749V62H743ZM743 1H749V-5H743V1ZM643 7H711V-5H643V7ZM649 141V1H637V141H649ZM718 135H643V147H718V135ZM712 62V141H724V62H712ZM743 56H718V68H743V56ZM737 1V62H749V1H737ZM718 7H743V-5H718V7ZM711 7H718V-5H711V7Z" fill="#41414A" mask="url(#path-73-inside-1_409_5)"/>
<rect x="646" y="138" width="69" height="73" fill="white" stroke="#41414A" stroke-width="6"/>
<rect x="657" y="454" width="83" height="36" fill="#D0598F" stroke="#41414A" stroke-width="6"/>
<rect x="799" y="454" width="76" height="36" fill="#D0598F" stroke="#41414A" stroke-width="6"/>
<rect x="952" y="454" width="74" height="36" fill="#D0598F" stroke="#41414A" stroke-width="6"/>
<rect x="1026" y="454" width="79" height="36" fill="#D0598F" stroke="#41414A" stroke-width="6"/>
<rect x="1106" y="454" width="154" height="36" fill="#D0598F" stroke="#41414A" stroke-width="6"/>
<path d="M678.085 479.179C677.412 479.175 676.762 479.062 676.136 478.84C675.513 478.619 674.955 478.259 674.461 477.76C673.967 477.261 673.575 476.601 673.285 475.778C672.999 474.956 672.857 473.946 672.857 472.749C672.861 471.649 672.987 470.667 673.234 469.802C673.485 468.933 673.843 468.195 674.308 467.59C674.776 466.985 675.337 466.525 675.989 466.21C676.641 465.89 677.371 465.73 678.181 465.73C679.055 465.73 679.826 465.901 680.495 466.241C681.164 466.578 681.701 467.036 682.106 467.616C682.515 468.195 682.762 468.845 682.847 469.565H680.118C680.011 469.109 679.788 468.751 679.447 468.491C679.106 468.232 678.684 468.102 678.181 468.102C677.329 468.102 676.681 468.472 676.238 469.214C675.799 469.955 675.575 470.963 675.567 472.237H675.656C675.852 471.849 676.116 471.519 676.449 471.246C676.786 470.969 677.167 470.759 677.593 470.614C678.023 470.464 678.477 470.39 678.955 470.39C679.73 470.39 680.42 470.573 681.026 470.94C681.631 471.302 682.108 471.8 682.457 472.435C682.807 473.07 682.982 473.797 682.982 474.615C682.982 475.501 682.775 476.29 682.362 476.98C681.952 477.67 681.379 478.212 680.642 478.604C679.909 478.991 679.057 479.183 678.085 479.179ZM678.072 477.006C678.499 477.006 678.88 476.903 679.217 476.699C679.553 476.494 679.817 476.217 680.009 475.868C680.201 475.518 680.297 475.126 680.297 474.692C680.297 474.257 680.201 473.867 680.009 473.522C679.822 473.177 679.562 472.902 679.229 472.697C678.897 472.493 678.518 472.391 678.092 472.391C677.772 472.391 677.476 472.45 677.203 472.57C676.935 472.689 676.698 472.855 676.494 473.068C676.293 473.281 676.136 473.528 676.021 473.81C675.906 474.087 675.848 474.383 675.848 474.698C675.848 475.12 675.944 475.506 676.136 475.855C676.332 476.205 676.596 476.484 676.928 476.692C677.265 476.901 677.646 477.006 678.072 477.006ZM690.639 465.909V479H687.871V468.536H687.795L684.797 470.415V467.961L688.038 465.909H690.639ZM693.552 476.699V474.519L699.018 465.909H700.897V468.926H699.785L696.339 474.379V474.481H704.106V476.699H693.552ZM699.836 479V476.034L699.887 475.069V465.909H702.482V479H699.836ZM712.093 471.374V473.535H706.122V471.374H712.093ZM720.083 465.909V479H717.315V468.536H717.238L714.24 470.415V467.961L717.481 465.909H720.083Z" fill="white"/>
<path d="M828.085 479.179C827.412 479.175 826.762 479.062 826.136 478.84C825.513 478.619 824.955 478.259 824.461 477.76C823.967 477.261 823.575 476.601 823.285 475.778C822.999 474.956 822.857 473.946 822.857 472.749C822.861 471.649 822.987 470.667 823.234 469.802C823.485 468.933 823.843 468.195 824.308 467.59C824.776 466.985 825.337 466.525 825.989 466.21C826.641 465.89 827.371 465.73 828.181 465.73C829.055 465.73 829.826 465.901 830.495 466.241C831.164 466.578 831.701 467.036 832.106 467.616C832.515 468.195 832.762 468.845 832.847 469.565H830.118C830.011 469.109 829.788 468.751 829.447 468.491C829.106 468.232 828.684 468.102 828.181 468.102C827.329 468.102 826.681 468.472 826.238 469.214C825.799 469.955 825.575 470.963 825.567 472.237H825.656C825.852 471.849 826.116 471.519 826.449 471.246C826.786 470.969 827.167 470.759 827.593 470.614C828.023 470.464 828.477 470.39 828.955 470.39C829.73 470.39 830.42 470.573 831.026 470.94C831.631 471.302 832.108 471.8 832.457 472.435C832.807 473.07 832.982 473.797 832.982 474.615C832.982 475.501 832.775 476.29 832.362 476.98C831.952 477.67 831.379 478.212 830.642 478.604C829.909 478.991 829.057 479.183 828.085 479.179ZM828.072 477.006C828.499 477.006 828.88 476.903 829.217 476.699C829.553 476.494 829.817 476.217 830.009 475.868C830.201 475.518 830.297 475.126 830.297 474.692C830.297 474.257 830.201 473.867 830.009 473.522C829.822 473.177 829.562 472.902 829.229 472.697C828.897 472.493 828.518 472.391 828.092 472.391C827.772 472.391 827.476 472.45 827.203 472.57C826.935 472.689 826.698 472.855 826.494 473.068C826.293 473.281 826.136 473.528 826.021 473.81C825.906 474.087 825.848 474.383 825.848 474.698C825.848 475.12 825.944 475.506 826.136 475.855C826.332 476.205 826.596 476.484 826.928 476.692C827.265 476.901 827.646 477.006 828.072 477.006ZM840.639 465.909V479H837.871V468.536H837.795L834.797 470.415V467.961L838.038 465.909H840.639ZM848.883 479.288C847.784 479.283 846.838 479.013 846.045 478.476C845.257 477.939 844.65 477.161 844.224 476.143C843.802 475.124 843.593 473.899 843.597 472.467C843.597 471.04 843.808 469.823 844.23 468.817C844.656 467.812 845.263 467.047 846.052 466.523C846.844 465.994 847.788 465.73 848.883 465.73C849.979 465.73 850.92 465.994 851.709 466.523C852.501 467.051 853.111 467.818 853.537 468.824C853.963 469.825 854.174 471.04 854.17 472.467C854.17 473.903 853.956 475.131 853.53 476.149C853.108 477.168 852.503 477.945 851.715 478.482C850.927 479.019 849.983 479.288 848.883 479.288ZM848.883 476.993C849.633 476.993 850.232 476.616 850.68 475.862C851.127 475.107 851.349 473.976 851.344 472.467C851.344 471.474 851.242 470.648 851.037 469.987C850.837 469.327 850.552 468.83 850.181 468.498C849.814 468.165 849.382 467.999 848.883 467.999C848.138 467.999 847.541 468.372 847.094 469.118C846.646 469.864 846.42 470.98 846.416 472.467C846.416 473.473 846.516 474.312 846.716 474.986C846.921 475.655 847.209 476.158 847.579 476.494C847.95 476.827 848.385 476.993 848.883 476.993Z" fill="white"/>
<path d="M978.085 479.179C977.412 479.175 976.762 479.062 976.136 478.84C975.513 478.619 974.955 478.259 974.461 477.76C973.967 477.261 973.575 476.601 973.285 475.778C972.999 474.956 972.857 473.946 972.857 472.749C972.861 471.649 972.987 470.667 973.234 469.802C973.485 468.933 973.843 468.195 974.308 467.59C974.776 466.985 975.337 466.525 975.989 466.21C976.641 465.89 977.371 465.73 978.181 465.73C979.055 465.73 979.826 465.901 980.495 466.241C981.164 466.578 981.701 467.036 982.106 467.616C982.515 468.195 982.762 468.845 982.847 469.565H980.118C980.011 469.109 979.788 468.751 979.447 468.491C979.106 468.232 978.684 468.102 978.181 468.102C977.329 468.102 976.681 468.472 976.238 469.214C975.799 469.955 975.575 470.963 975.567 472.237H975.656C975.852 471.849 976.116 471.519 976.449 471.246C976.786 470.969 977.167 470.759 977.593 470.614C978.023 470.464 978.477 470.39 978.955 470.39C979.73 470.39 980.42 470.573 981.026 470.94C981.631 471.302 982.108 471.8 982.457 472.435C982.807 473.07 982.982 473.797 982.982 474.615C982.982 475.501 982.775 476.29 982.362 476.98C981.952 477.67 981.379 478.212 980.642 478.604C979.909 478.991 979.057 479.183 978.085 479.179ZM978.072 477.006C978.499 477.006 978.88 476.903 979.217 476.699C979.553 476.494 979.817 476.217 980.009 475.868C980.201 475.518 980.297 475.126 980.297 474.692C980.297 474.257 980.201 473.867 980.009 473.522C979.822 473.177 979.562 472.902 979.229 472.697C978.897 472.493 978.518 472.391 978.092 472.391C977.772 472.391 977.476 472.45 977.203 472.57C976.935 472.689 976.698 472.855 976.494 473.068C976.293 473.281 976.136 473.528 976.021 473.81C975.906 474.087 975.848 474.383 975.848 474.698C975.848 475.12 975.944 475.506 976.136 475.855C976.332 476.205 976.596 476.484 976.928 476.692C977.265 476.901 977.646 477.006 978.072 477.006ZM990.077 479.288C988.977 479.283 988.031 479.013 987.239 478.476C986.45 477.939 985.843 477.161 985.417 476.143C984.995 475.124 984.786 473.899 984.79 472.467C984.79 471.04 985.001 469.823 985.423 468.817C985.849 467.812 986.457 467.047 987.245 466.523C988.038 465.994 988.982 465.73 990.077 465.73C991.172 465.73 992.114 465.994 992.902 466.523C993.695 467.051 994.304 467.818 994.73 468.824C995.156 469.825 995.367 471.04 995.363 472.467C995.363 473.903 995.15 475.131 994.724 476.149C994.302 477.168 993.697 477.945 992.908 478.482C992.12 479.019 991.176 479.288 990.077 479.288ZM990.077 476.993C990.827 476.993 991.425 476.616 991.873 475.862C992.32 475.107 992.542 473.976 992.538 472.467C992.538 471.474 992.435 470.648 992.231 469.987C992.031 469.327 991.745 468.83 991.374 468.498C991.008 468.165 990.575 467.999 990.077 467.999C989.331 467.999 988.734 468.372 988.287 469.118C987.839 469.864 987.614 470.98 987.609 472.467C987.609 473.473 987.71 474.312 987.91 474.986C988.114 475.655 988.402 476.158 988.773 476.494C989.143 476.827 989.578 476.993 990.077 476.993ZM1002.07 465.73C1002.75 465.73 1003.39 465.843 1004.02 466.069C1004.64 466.295 1005.2 466.655 1005.69 467.149C1006.19 467.643 1006.58 468.3 1006.86 469.118C1007.15 469.932 1007.3 470.931 1007.3 472.116C1007.3 473.228 1007.18 474.221 1006.92 475.094C1006.68 475.964 1006.32 476.703 1005.86 477.312C1005.39 477.922 1004.83 478.386 1004.18 478.706C1003.52 479.021 1002.79 479.179 1001.98 479.179C1001.1 479.179 1000.33 479.011 999.663 478.674C998.994 478.333 998.455 477.871 998.046 477.287C997.641 476.699 997.396 476.038 997.311 475.305H1000.04C1000.15 475.783 1000.37 476.153 1000.71 476.418C1001.05 476.678 1001.47 476.808 1001.98 476.808C1002.83 476.808 1003.48 476.437 1003.92 475.695C1004.36 474.95 1004.59 473.929 1004.59 472.634H1004.5C1004.31 473.017 1004.04 473.347 1003.71 473.624C1003.38 473.897 1003 474.108 1002.57 474.257C1002.14 474.406 1001.69 474.481 1001.2 474.481C1000.43 474.481 999.744 474.3 999.139 473.938C998.534 473.575 998.057 473.077 997.707 472.442C997.358 471.807 997.183 471.082 997.183 470.268C997.179 469.391 997.381 468.609 997.79 467.923C998.199 467.237 998.77 466.7 999.503 466.312C1000.24 465.92 1001.1 465.726 1002.07 465.73ZM1002.09 467.903C1001.66 467.903 1001.28 468.006 1000.94 468.21C1000.61 468.415 1000.34 468.69 1000.15 469.035C999.957 469.38 999.863 469.766 999.868 470.192C999.868 470.622 999.961 471.01 1000.15 471.355C1000.34 471.696 1000.6 471.969 1000.93 472.173C1001.26 472.374 1001.64 472.474 1002.07 472.474C1002.39 472.474 1002.68 472.414 1002.96 472.295C1003.23 472.175 1003.46 472.011 1003.66 471.803C1003.87 471.589 1004.03 471.344 1004.14 471.067C1004.26 470.79 1004.32 470.496 1004.32 470.185C1004.31 469.772 1004.21 469.393 1004.02 469.048C1003.83 468.702 1003.57 468.425 1003.23 468.217C1002.89 468.008 1002.51 467.903 1002.09 467.903Z" fill="white"/>
<path d="M1053.09 479.179C1052.41 479.175 1051.76 479.062 1051.14 478.84C1050.51 478.619 1049.96 478.259 1049.46 477.76C1048.97 477.261 1048.57 476.601 1048.28 475.778C1048 474.956 1047.86 473.946 1047.86 472.749C1047.86 471.649 1047.99 470.667 1048.23 469.802C1048.49 468.933 1048.84 468.195 1049.31 467.59C1049.78 466.985 1050.34 466.525 1050.99 466.21C1051.64 465.89 1052.37 465.73 1053.18 465.73C1054.05 465.73 1054.83 465.901 1055.5 466.241C1056.16 466.578 1056.7 467.036 1057.11 467.616C1057.51 468.195 1057.76 468.845 1057.85 469.565H1055.12C1055.01 469.109 1054.79 468.751 1054.45 468.491C1054.11 468.232 1053.68 468.102 1053.18 468.102C1052.33 468.102 1051.68 468.472 1051.24 469.214C1050.8 469.955 1050.58 470.963 1050.57 472.237H1050.66C1050.85 471.849 1051.12 471.519 1051.45 471.246C1051.79 470.969 1052.17 470.759 1052.59 470.614C1053.02 470.464 1053.48 470.39 1053.95 470.39C1054.73 470.39 1055.42 470.573 1056.03 470.94C1056.63 471.302 1057.11 471.8 1057.46 472.435C1057.81 473.07 1057.98 473.797 1057.98 474.615C1057.98 475.501 1057.77 476.29 1057.36 476.98C1056.95 477.67 1056.38 478.212 1055.64 478.604C1054.91 478.991 1054.06 479.183 1053.09 479.179ZM1053.07 477.006C1053.5 477.006 1053.88 476.903 1054.22 476.699C1054.55 476.494 1054.82 476.217 1055.01 475.868C1055.2 475.518 1055.3 475.126 1055.3 474.692C1055.3 474.257 1055.2 473.867 1055.01 473.522C1054.82 473.177 1054.56 472.902 1054.23 472.697C1053.9 472.493 1053.52 472.391 1053.09 472.391C1052.77 472.391 1052.48 472.45 1052.2 472.57C1051.93 472.689 1051.7 472.855 1051.49 473.068C1051.29 473.281 1051.14 473.528 1051.02 473.81C1050.91 474.087 1050.85 474.383 1050.85 474.698C1050.85 475.12 1050.94 475.506 1051.14 475.855C1051.33 476.205 1051.6 476.484 1051.93 476.692C1052.26 476.901 1052.65 477.006 1053.07 477.006ZM1065.08 479.288C1063.98 479.283 1063.03 479.013 1062.24 478.476C1061.45 477.939 1060.84 477.161 1060.42 476.143C1060 475.124 1059.79 473.899 1059.79 472.467C1059.79 471.04 1060 469.823 1060.42 468.817C1060.85 467.812 1061.46 467.047 1062.25 466.523C1063.04 465.994 1063.98 465.73 1065.08 465.73C1066.17 465.73 1067.11 465.994 1067.9 466.523C1068.69 467.051 1069.3 467.818 1069.73 468.824C1070.16 469.825 1070.37 471.04 1070.36 472.467C1070.36 473.903 1070.15 475.131 1069.72 476.149C1069.3 477.168 1068.7 477.945 1067.91 478.482C1067.12 479.019 1066.18 479.288 1065.08 479.288ZM1065.08 476.993C1065.83 476.993 1066.43 476.616 1066.87 475.862C1067.32 475.107 1067.54 473.976 1067.54 472.467C1067.54 471.474 1067.44 470.648 1067.23 469.987C1067.03 469.327 1066.75 468.83 1066.37 468.498C1066.01 468.165 1065.58 467.999 1065.08 467.999C1064.33 467.999 1063.73 468.372 1063.29 469.118C1062.84 469.864 1062.61 470.98 1062.61 472.467C1062.61 473.473 1062.71 474.312 1062.91 474.986C1063.11 475.655 1063.4 476.158 1063.77 476.494C1064.14 476.827 1064.58 476.993 1065.08 476.993ZM1077.22 479.179C1076.24 479.179 1075.36 479.019 1074.59 478.7C1073.83 478.376 1073.23 477.935 1072.8 477.376C1072.36 476.818 1072.14 476.185 1072.14 475.478C1072.14 474.933 1072.27 474.432 1072.52 473.976C1072.77 473.516 1073.11 473.134 1073.54 472.832C1073.97 472.525 1074.45 472.329 1074.98 472.244V472.154C1074.28 472.013 1073.72 471.675 1073.28 471.138C1072.85 470.597 1072.63 469.968 1072.63 469.252C1072.63 468.575 1072.83 467.972 1073.22 467.443C1073.62 466.911 1074.16 466.493 1074.85 466.19C1075.55 465.884 1076.34 465.73 1077.22 465.73C1078.1 465.73 1078.89 465.884 1079.58 466.19C1080.27 466.497 1080.82 466.917 1081.22 467.45C1081.61 467.978 1081.81 468.579 1081.82 469.252C1081.81 469.972 1081.59 470.601 1081.15 471.138C1080.71 471.675 1080.15 472.013 1079.46 472.154V472.244C1079.99 472.329 1080.46 472.525 1080.89 472.832C1081.32 473.134 1081.66 473.516 1081.91 473.976C1082.17 474.432 1082.3 474.933 1082.3 475.478C1082.3 476.185 1082.08 476.818 1081.64 477.376C1081.21 477.935 1080.61 478.376 1079.84 478.7C1079.08 479.019 1078.2 479.179 1077.22 479.179ZM1077.22 477.146C1077.66 477.146 1078.04 477.067 1078.37 476.91C1078.7 476.748 1078.95 476.526 1079.14 476.245C1079.33 475.96 1079.42 475.631 1079.42 475.261C1079.42 474.881 1079.32 474.547 1079.13 474.257C1078.94 473.963 1078.68 473.733 1078.35 473.567C1078.02 473.396 1077.65 473.311 1077.22 473.311C1076.8 473.311 1076.42 473.396 1076.09 473.567C1075.76 473.733 1075.49 473.963 1075.3 474.257C1075.11 474.547 1075.02 474.881 1075.02 475.261C1075.02 475.631 1075.11 475.96 1075.3 476.245C1075.48 476.526 1075.74 476.748 1076.07 476.91C1076.4 477.067 1076.79 477.146 1077.22 477.146ZM1077.22 471.298C1077.59 471.298 1077.91 471.223 1078.2 471.074C1078.48 470.925 1078.71 470.718 1078.87 470.454C1079.03 470.19 1079.11 469.885 1079.11 469.54C1079.11 469.199 1079.03 468.901 1078.87 468.645C1078.71 468.385 1078.49 468.183 1078.2 468.038C1077.92 467.888 1077.59 467.814 1077.22 467.814C1076.85 467.814 1076.52 467.888 1076.24 468.038C1075.95 468.183 1075.73 468.385 1075.56 468.645C1075.41 468.901 1075.33 469.199 1075.33 469.54C1075.33 469.885 1075.41 470.19 1075.57 470.454C1075.73 470.718 1075.96 470.925 1076.24 471.074C1076.53 471.223 1076.85 471.298 1077.22 471.298Z" fill="white"/>
<path d="M1172.09 479.179C1171.41 479.175 1170.76 479.062 1170.14 478.84C1169.51 478.619 1168.96 478.259 1168.46 477.76C1167.97 477.261 1167.57 476.601 1167.28 475.778C1167 474.956 1166.86 473.946 1166.86 472.749C1166.86 471.649 1166.99 470.667 1167.23 469.802C1167.49 468.933 1167.84 468.195 1168.31 467.59C1168.78 466.985 1169.34 466.525 1169.99 466.21C1170.64 465.89 1171.37 465.73 1172.18 465.73C1173.05 465.73 1173.83 465.901 1174.5 466.241C1175.16 466.578 1175.7 467.036 1176.11 467.616C1176.51 468.195 1176.76 468.845 1176.85 469.565H1174.12C1174.01 469.109 1173.79 468.751 1173.45 468.491C1173.11 468.232 1172.68 468.102 1172.18 468.102C1171.33 468.102 1170.68 468.472 1170.24 469.214C1169.8 469.955 1169.58 470.963 1169.57 472.237H1169.66C1169.85 471.849 1170.12 471.519 1170.45 471.246C1170.79 470.969 1171.17 470.759 1171.59 470.614C1172.02 470.464 1172.48 470.39 1172.95 470.39C1173.73 470.39 1174.42 470.573 1175.03 470.94C1175.63 471.302 1176.11 471.8 1176.46 472.435C1176.81 473.07 1176.98 473.797 1176.98 474.615C1176.98 475.501 1176.77 476.29 1176.36 476.98C1175.95 477.67 1175.38 478.212 1174.64 478.604C1173.91 478.991 1173.06 479.183 1172.09 479.179ZM1172.07 477.006C1172.5 477.006 1172.88 476.903 1173.22 476.699C1173.55 476.494 1173.82 476.217 1174.01 475.868C1174.2 475.518 1174.3 475.126 1174.3 474.692C1174.3 474.257 1174.2 473.867 1174.01 473.522C1173.82 473.177 1173.56 472.902 1173.23 472.697C1172.9 472.493 1172.52 472.391 1172.09 472.391C1171.77 472.391 1171.48 472.45 1171.2 472.57C1170.93 472.689 1170.7 472.855 1170.49 473.068C1170.29 473.281 1170.14 473.528 1170.02 473.81C1169.91 474.087 1169.85 474.383 1169.85 474.698C1169.85 475.12 1169.94 475.506 1170.14 475.855C1170.33 476.205 1170.6 476.484 1170.93 476.692C1171.26 476.901 1171.65 477.006 1172.07 477.006ZM1184.08 479.288C1182.98 479.283 1182.03 479.013 1181.24 478.476C1180.45 477.939 1179.84 477.161 1179.42 476.143C1179 475.124 1178.79 473.899 1178.79 472.467C1178.79 471.04 1179 469.823 1179.42 468.817C1179.85 467.812 1180.46 467.047 1181.25 466.523C1182.04 465.994 1182.98 465.73 1184.08 465.73C1185.17 465.73 1186.11 465.994 1186.9 466.523C1187.69 467.051 1188.3 467.818 1188.73 468.824C1189.16 469.825 1189.37 471.04 1189.36 472.467C1189.36 473.903 1189.15 475.131 1188.72 476.149C1188.3 477.168 1187.7 477.945 1186.91 478.482C1186.12 479.019 1185.18 479.288 1184.08 479.288ZM1184.08 476.993C1184.83 476.993 1185.43 476.616 1185.87 475.862C1186.32 475.107 1186.54 473.976 1186.54 472.467C1186.54 471.474 1186.44 470.648 1186.23 469.987C1186.03 469.327 1185.75 468.83 1185.37 468.498C1185.01 468.165 1184.58 467.999 1184.08 467.999C1183.33 467.999 1182.73 468.372 1182.29 469.118C1181.84 469.864 1181.61 470.98 1181.61 472.467C1181.61 473.473 1181.71 474.312 1181.91 474.986C1182.11 475.655 1182.4 476.158 1182.77 476.494C1183.14 476.827 1183.58 476.993 1184.08 476.993ZM1191.5 479L1196.93 468.261V468.172H1190.61V465.909H1199.79V468.204L1194.36 479H1191.5Z" fill="white"/>
<path d="M515.688 117.492H512.888C512.837 117.13 512.733 116.808 512.575 116.527C512.418 116.241 512.215 115.999 511.968 115.798C511.721 115.598 511.435 115.445 511.112 115.338C510.792 115.232 510.445 115.178 510.07 115.178C509.392 115.178 508.802 115.347 508.299 115.683C507.796 116.016 507.406 116.501 507.129 117.141C506.852 117.776 506.714 118.547 506.714 119.455C506.714 120.388 506.852 121.172 507.129 121.807C507.411 122.442 507.803 122.921 508.305 123.245C508.808 123.569 509.39 123.731 510.05 123.731C510.421 123.731 510.764 123.682 511.08 123.584C511.399 123.486 511.683 123.343 511.93 123.156C512.177 122.964 512.381 122.732 512.543 122.459C512.71 122.186 512.825 121.875 512.888 121.526L515.688 121.538C515.616 122.139 515.435 122.719 515.145 123.277C514.859 123.831 514.474 124.327 513.988 124.766C513.506 125.201 512.931 125.546 512.262 125.802C511.597 126.053 510.845 126.179 510.006 126.179C508.838 126.179 507.794 125.915 506.874 125.386C505.957 124.858 505.233 124.093 504.7 123.092C504.172 122.09 503.908 120.878 503.908 119.455C503.908 118.027 504.176 116.812 504.713 115.811C505.25 114.81 505.979 114.047 506.899 113.523C507.82 112.994 508.855 112.73 510.006 112.73C510.764 112.73 511.467 112.837 512.115 113.05C512.767 113.263 513.344 113.574 513.847 113.983C514.35 114.388 514.759 114.884 515.075 115.472C515.394 116.06 515.599 116.734 515.688 117.492ZM523.324 112.295L519.105 127.969H516.759L520.978 112.295H523.324ZM526.317 129.682C525.971 129.682 525.648 129.654 525.345 129.599C525.047 129.548 524.8 129.482 524.604 129.401L525.217 127.368C525.537 127.466 525.824 127.519 526.08 127.528C526.34 127.536 526.564 127.477 526.751 127.349C526.943 127.221 527.099 127.004 527.218 126.697L527.378 126.281L523.856 116.182H526.719L528.752 123.392H528.854L530.906 116.182H533.789L529.973 127.061C529.79 127.589 529.54 128.05 529.225 128.442C528.914 128.838 528.52 129.143 528.042 129.356C527.565 129.573 526.99 129.682 526.317 129.682Z" fill="#41414A"/>
<rect x="619" y="49" width="119" height="39" rx="19.5" transform="rotate(90 619 49)" fill="white" stroke="#595961" stroke-width="4"/>
<line x1="599" y1="74" x2="599" y2="154" stroke="#595961" stroke-width="4" stroke-linecap="round"/>
<line x1="554" y1="72" x2="644" y2="72" stroke="#41414A" stroke-width="4"/>
<line x1="554" y1="85" x2="644" y2="85" stroke="#41414A" stroke-width="4"/>
<line x1="554" y1="99" x2="644" y2="99" stroke="#41414A" stroke-width="4"/>
<line x1="554" y1="113" x2="644" y2="113" stroke="#41414A" stroke-width="4"/>
<line x1="554" y1="127" x2="644" y2="127" stroke="#41414A" stroke-width="4"/>
<line x1="554" y1="141" x2="644" y2="141" stroke="#41414A" stroke-width="4"/>
<line x1="554" y1="154" x2="644" y2="154" stroke="#41414A" stroke-width="4"/>
<path d="M580.5 74L576.603 83H584.397L580.5 74Z" fill="#41414A"/>
<path d="M618.5 152L622.397 143L614.603 143L618.5 152Z" fill="#41414A"/>
<rect x="882" y="49" width="119" height="39" rx="19.5" transform="rotate(90 882 49)" fill="white" stroke="#595961" stroke-width="4"/>
<line x1="862" y1="74" x2="862" y2="154" stroke="#595961" stroke-width="4" stroke-linecap="round"/>
<line x1="817" y1="72" x2="907" y2="72" stroke="#41414A" stroke-width="4"/>
<line x1="817" y1="85" x2="907" y2="85" stroke="#41414A" stroke-width="4"/>
<line x1="817" y1="99" x2="907" y2="99" stroke="#41414A" stroke-width="4"/>
<line x1="817" y1="113" x2="907" y2="113" stroke="#41414A" stroke-width="4"/>
<line x1="817" y1="127" x2="907" y2="127" stroke="#41414A" stroke-width="4"/>
<line x1="817" y1="141" x2="907" y2="141" stroke="#41414A" stroke-width="4"/>
<line x1="817" y1="154" x2="907" y2="154" stroke="#41414A" stroke-width="4"/>
<path d="M843.5 74L839.603 83H847.397L843.5 74Z" fill="#41414A"/>
<path d="M881.5 152L885.397 143L877.603 143L881.5 152Z" fill="#41414A"/>
<path d="M215 211.5V276H269" stroke="#41414A" stroke-width="6"/>
<rect x="757" y="32" width="58" height="47" fill="white" stroke="#41414A" stroke-width="6"/>
<rect x="757" y="146" width="58" height="47" fill="white" stroke="#41414A" stroke-width="6"/>
<rect x="749" y="79" width="66" height="66" fill="white" stroke="#41414A" stroke-width="6"/>
</svg>
